<svg width="78" height="56" viewBox="0 0 78 56" fill="none" xmlns="http://www.w3.org/2000/svg">
<path d="M1.184 20V2.24H6.056C11.48 2.24 14.816 5.048 14.816 11.048C14.816 17.024 11.48 20 6.248 20H1.184ZM4.736 17.144H5.816C9.152 17.144 11.192 15.368 11.192 11.048C11.192 6.728 9.152 5.072 5.816 5.072H4.736V17.144ZM18.0288 20V6.584H20.8848L21.1728 8.96H21.2448C22.2048 7.184 23.6688 6.248 25.0608 6.248C25.7808 6.248 26.2128 6.344 26.6208 6.536L26.0208 9.56C25.5408 9.44 25.1808 9.344 24.6048 9.344C23.5728 9.344 22.3008 10.064 21.5568 12.008V20H18.0288ZM28.5054 20V6.584H32.0334V20H28.5054ZM30.2574 4.4C29.0334 4.4 28.2174 3.632 28.2174 2.456C28.2174 1.304 29.0334 0.559999 30.2574 0.559999C31.4814 0.559999 32.3214 1.304 32.3214 2.456C32.3214 3.632 31.4814 4.4 30.2574 4.4ZM35.7944 20V6.584H38.6504L38.9384 8.36H39.0104C40.1624 7.208 41.5544 6.248 43.3784 6.248C46.2584 6.248 47.5304 8.264 47.5304 11.624V20H44.0024V12.08C44.0024 9.968 43.4024 9.272 42.1064 9.272C41.0024 9.272 40.3064 9.8 39.3224 10.76V20H35.7944ZM51.1694 20V0.871999H54.6254V12.344H54.7454L59.3054 6.584H63.1934L58.5854 12.104L63.6014 20H59.7854L56.5214 14.432L54.6254 16.616V20H51.1694ZM6.488 55.336C4.088 55.336 1.736 54.424 0.00800008 52.768L2.048 50.32C3.296 51.496 5 52.264 6.56 52.264C8.408 52.264 9.368 51.472 9.368 50.248C9.368 48.928 8.288 48.496 6.704 47.824L4.328 46.816C2.552 46.096 0.728 44.632 0.728 42.064C0.728 39.16 3.296 36.928 6.872 36.928C8.936 36.928 11 37.744 12.44 39.208L10.664 41.44C9.512 40.504 8.336 39.976 6.872 39.976C5.312 39.976 4.328 40.672 4.328 41.824C4.328 43.096 5.6 43.576 7.112 44.176L9.44 45.136C11.576 46.024 12.992 47.416 12.992 49.96C12.992 52.864 10.568 55.336 6.488 55.336ZM21.7286 55.336C17.9606 55.336 15.0326 52.744 15.0326 48.304C15.0326 43.936 18.1046 41.248 21.2726 41.248C24.9926 41.248 26.8886 43.936 26.8886 47.656C26.8886 48.328 26.8166 48.952 26.7446 49.288H18.4406C18.7526 51.496 20.1926 52.624 22.1846 52.624C23.2646 52.624 24.2246 52.288 25.2086 51.688L26.3846 53.872C25.0646 54.784 23.3846 55.336 21.7286 55.336ZM18.3926 46.936H23.8886C23.8886 45.112 23.0726 43.96 21.3446 43.96C19.9286 43.96 18.6806 44.968 18.3926 46.936ZM32.6371 55.336C30.2371 55.336 28.6771 53.656 28.6771 51.352C28.6771 48.496 31.0051 46.984 36.4051 46.384C36.3331 45.064 35.7811 44.08 34.1251 44.08C32.8771 44.08 31.6531 44.608 30.4291 45.352L29.1571 43C30.7411 42.04 32.6371 41.248 34.7731 41.248C38.1811 41.248 39.9331 43.264 39.9331 47.176V55H37.0531L36.7891 53.584H36.6931C35.5171 54.592 34.1731 55.336 32.6371 55.336ZM33.7891 52.576C34.7971 52.576 35.5411 52.12 36.4051 51.28V48.568C33.1171 48.976 32.0371 49.864 32.0371 51.088C32.0371 52.12 32.7571 52.576 33.7891 52.576ZM43.5288 55V41.584H46.3848L46.6728 43.96H46.7448C47.7048 42.184 49.1688 41.248 50.5608 41.248C51.2808 41.248 51.7128 41.344 52.1208 41.536L51.5208 44.56C51.0408 44.44 50.6808 44.344 50.1048 44.344C49.0728 44.344 47.8008 45.064 47.0568 47.008V55H43.5288ZM59.2949 55.336C55.5989 55.336 52.7669 52.744 52.7669 48.304C52.7669 43.84 55.9589 41.248 59.6069 41.248C61.2869 41.248 62.5349 41.872 63.5189 42.736L61.8629 44.992C61.1909 44.416 60.5429 44.128 59.8229 44.128C57.7349 44.128 56.3669 45.76 56.3669 48.304C56.3669 50.824 57.7589 52.48 59.6789 52.48C60.6629 52.48 61.5749 52 62.3189 51.4L63.7109 53.728C62.4389 54.832 60.7829 55.336 59.2949 55.336ZM66.2632 55V35.872H69.7912V40.696L69.6232 43.216C70.6792 42.208 72.0232 41.248 73.8472 41.248C76.7272 41.248 77.9992 43.264 77.9992 46.624V55H74.4712V47.08C74.4712 44.968 73.8712 44.272 72.5752 44.272C71.4712 44.272 70.7752 44.8 69.7912 45.76V55H66.2632Z" fill="black"/>
</svg>