<svg width="84" height="61" viewBox="0 0 84 61" fill="none" xmlns="http://www.w3.org/2000/svg">
<path d="M1.184 20V2.24H6.056C11.48 2.24 14.816 5.048 14.816 11.048C14.816 17.024 11.48 20 6.248 20H1.184ZM4.736 17.144H5.816C9.152 17.144 11.192 15.368 11.192 11.048C11.192 6.728 9.152 5.072 5.816 5.072H4.736V17.144ZM18.0288 20V6.584H20.8848L21.1728 8.96H21.2448C22.2048 7.184 23.6688 6.248 25.0608 6.248C25.7808 6.248 26.2128 6.344 26.6208 6.536L26.0208 9.56C25.5408 9.44 25.1808 9.344 24.6048 9.344C23.5728 9.344 22.3008 10.064 21.5568 12.008V20H18.0288ZM28.5054 20V6.584H32.0334V20H28.5054ZM30.2574 4.4C29.0334 4.4 28.2174 3.632 28.2174 2.456C28.2174 1.304 29.0334 0.559999 30.2574 0.559999C31.4814 0.559999 32.3214 1.304 32.3214 2.456C32.3214 3.632 31.4814 4.4 30.2574 4.4ZM35.7944 20V6.584H38.6504L38.9384 8.36H39.0104C40.1624 7.208 41.5544 6.248 43.3784 6.248C46.2584 6.248 47.5304 8.264 47.5304 11.624V20H44.0024V12.08C44.0024 9.968 43.4024 9.272 42.1064 9.272C41.0024 9.272 40.3064 9.8 39.3224 10.76V20H35.7944ZM51.1694 20V0.871999H54.6254V12.344H54.7454L59.3054 6.584H63.1934L58.5854 12.104L63.6014 20H59.7854L56.5214 14.432L54.6254 16.616V20H51.1694ZM8.816 55.336C3.992 55.336 0.296 52.12 0.296 46.192C0.296 40.336 4.088 36.928 8.816 36.928C11.36 36.928 13.136 38.032 14.288 39.184L12.416 41.464C11.528 40.624 10.52 39.976 8.936 39.976C5.96 39.976 3.92 42.28 3.92 46.072C3.92 49.96 5.696 52.264 9.176 52.264C10.04 52.264 10.904 52.024 11.408 51.616V48.112H8.24V45.208H14.576V53.2C13.376 54.4 11.264 55.336 8.816 55.336ZM21.3871 55.336C18.9871 55.336 17.4271 53.656 17.4271 51.352C17.4271 48.496 19.7551 46.984 25.1551 46.384C25.0831 45.064 24.5311 44.08 22.8751 44.08C21.6271 44.08 20.4031 44.608 19.1791 45.352L17.9071 43C19.4911 42.04 21.3871 41.248 23.5231 41.248C26.9311 41.248 28.6831 43.264 28.6831 47.176V55H25.8031L25.5391 53.584H25.4431C24.2671 54.592 22.9231 55.336 21.3871 55.336ZM22.5391 52.576C23.5471 52.576 24.2911 52.12 25.1551 51.28V48.568C21.8671 48.976 20.7871 49.864 20.7871 51.088C20.7871 52.12 21.5071 52.576 22.5391 52.576ZM35.5908 55.336C33.1188 55.336 32.2788 53.728 32.2788 51.232V35.872H35.8068V51.376C35.8068 52.216 36.1668 52.48 36.5028 52.48C36.6228 52.48 36.7188 52.48 36.9588 52.432L37.3908 55.048C36.9828 55.192 36.4308 55.336 35.5908 55.336ZM43.1611 55.336C40.6891 55.336 39.8491 53.728 39.8491 51.232V35.872H43.3771V51.376C43.3771 52.216 43.7371 52.48 44.0731 52.48C44.1931 52.48 44.2891 52.48 44.5291 52.432L44.9611 55.048C44.5531 55.192 44.0011 55.336 43.1611 55.336ZM53.2754 55.336C49.5074 55.336 46.5794 52.744 46.5794 48.304C46.5794 43.936 49.6514 41.248 52.8194 41.248C56.5394 41.248 58.4354 43.936 58.4354 47.656C58.4354 48.328 58.3634 48.952 58.2914 49.288H49.9874C50.2994 51.496 51.7394 52.624 53.7314 52.624C54.8114 52.624 55.7714 52.288 56.7554 51.688L57.9314 53.872C56.6114 54.784 54.9314 55.336 53.2754 55.336ZM49.9394 46.936H55.4354C55.4354 45.112 54.6194 43.96 52.8914 43.96C51.4754 43.96 50.2274 44.968 49.9394 46.936ZM61.3648 55V41.584H64.2208L64.5088 43.96H64.5808C65.5408 42.184 67.0048 41.248 68.3968 41.248C69.1168 41.248 69.5488 41.344 69.9568 41.536L69.3568 44.56C68.8768 44.44 68.5168 44.344 67.9408 44.344C66.9088 44.344 65.6367 45.064 64.8928 47.008V55H61.3648ZM73.2043 60.4C72.4363 60.4 71.8843 60.304 71.3803 60.136L72.0283 57.424C72.2683 57.496 72.6283 57.616 72.9643 57.616C74.3083 57.616 75.0763 56.752 75.4843 55.552L75.7003 54.76L70.4683 41.584H74.0443L76.1562 47.8C76.5643 49.024 76.9003 50.32 77.3083 51.616H77.4283C77.7163 50.344 78.0523 49.072 78.3643 47.8L80.2363 41.584H83.6203L78.8443 55.432C77.6683 58.576 76.2283 60.4 73.2043 60.4Z" fill="black"/>
</svg>