<svg width="87" height="56" viewBox="0 0 87 56" fill="none" xmlns="http://www.w3.org/2000/svg">
<path d="M0.184 20V2.24H3.736V9.944H3.784L9.688 2.24H13.6L8.152 9.224L14.536 20H10.672L6.064 12.032L3.736 15.008V20H0.184ZM14.2692 14.408V11.888H20.8452V14.408H14.2692ZM24.184 20V2.24H29.056C34.48 2.24 37.816 5.048 37.816 11.048C37.816 17.024 34.48 20 29.248 20H24.184ZM27.736 17.144H28.816C32.152 17.144 34.192 15.368 34.192 11.048C34.192 6.728 32.152 5.072 28.816 5.072H27.736V17.144ZM41.0288 20V6.584H43.8848L44.1728 8.96H44.2448C45.2048 7.184 46.6688 6.248 48.0608 6.248C48.7808 6.248 49.2128 6.344 49.6208 6.536L49.0208 9.56C48.5408 9.44 48.1808 9.344 47.6048 9.344C46.5728 9.344 45.3008 10.064 44.5568 12.008V20H41.0288ZM51.5054 20V6.584H55.0334V20H51.5054ZM53.2574 4.4C52.0334 4.4 51.2174 3.632 51.2174 2.456C51.2174 1.304 52.0334 0.559999 53.2574 0.559999C54.4814 0.559999 55.3214 1.304 55.3214 2.456C55.3214 3.632 54.4814 4.4 53.2574 4.4ZM58.7944 20V6.584H61.6504L61.9384 8.36H62.0104C63.1624 7.208 64.5544 6.248 66.3784 6.248C69.2584 6.248 70.5304 8.264 70.5304 11.624V20H67.0024V12.08C67.0024 9.968 66.4024 9.272 65.1064 9.272C64.0024 9.272 63.3064 9.8 62.3224 10.76V20H58.7944ZM74.1694 20V0.871999H77.6254V12.344H77.7454L82.3054 6.584H86.1934L81.5854 12.104L86.6014 20H82.7854L79.5214 14.432L77.6254 16.616V20H74.1694ZM0.184 55V37.24H3.736V55H0.184ZM7.81788 55V41.584H10.6739L10.9619 43.36H11.0339C12.1859 42.208 13.5779 41.248 15.4019 41.248C18.2819 41.248 19.5539 43.264 19.5539 46.624V55H16.0259V47.08C16.0259 44.968 15.4259 44.272 14.1299 44.272C13.0259 44.272 12.3299 44.8 11.3459 45.76V55H7.81788ZM23.7689 55V40.48C23.7689 37.696 25.0889 35.536 28.4489 35.536C29.5049 35.536 30.4169 35.752 31.0169 35.968L30.3449 38.608C29.8889 38.416 29.3849 38.296 28.9289 38.296C27.8729 38.296 27.2969 38.944 27.2969 40.432V55H23.7689ZM21.9689 44.344V41.728L23.9849 41.584H29.8409V44.344H21.9689ZM37.3401 55.336C33.9561 55.336 30.8841 52.744 30.8841 48.304C30.8841 43.84 33.9561 41.248 37.3401 41.248C40.7001 41.248 43.7721 43.84 43.7721 48.304C43.7721 52.744 40.7001 55.336 37.3401 55.336ZM37.3401 52.48C39.1641 52.48 40.1721 50.824 40.1721 48.304C40.1721 45.76 39.1641 44.128 37.3401 44.128C35.4921 44.128 34.4841 45.76 34.4841 48.304C34.4841 50.824 35.4921 52.48 37.3401 52.48Z" fill="black"/>
</svg>
