<svg width="87" height="61" viewBox="0 0 87 61" fill="none" xmlns="http://www.w3.org/2000/svg">
<path d="M0.184 20V2.24H3.736V9.944H3.784L9.688 2.24H13.6L8.152 9.224L14.536 20H10.672L6.064 12.032L3.736 15.008V20H0.184ZM14.2692 14.408V11.888H20.8452V14.408H14.2692ZM24.184 20V2.24H29.056C34.48 2.24 37.816 5.048 37.816 11.048C37.816 17.024 34.48 20 29.248 20H24.184ZM27.736 17.144H28.816C32.152 17.144 34.192 15.368 34.192 11.048C34.192 6.728 32.152 5.072 28.816 5.072H27.736V17.144ZM41.0288 20V6.584H43.8848L44.1728 8.96H44.2448C45.2048 7.184 46.6688 6.248 48.0608 6.248C48.7808 6.248 49.2128 6.344 49.6208 6.536L49.0208 9.56C48.5408 9.44 48.1808 9.344 47.6048 9.344C46.5728 9.344 45.3008 10.064 44.5568 12.008V20H41.0288ZM51.5054 20V6.584H55.0334V20H51.5054ZM53.2574 4.4C52.0334 4.4 51.2174 3.632 51.2174 2.456C51.2174 1.304 52.0334 0.559999 53.2574 0.559999C54.4814 0.559999 55.3214 1.304 55.3214 2.456C55.3214 3.632 54.4814 4.4 53.2574 4.4ZM58.7944 20V6.584H61.6504L61.9384 8.36H62.0104C63.1624 7.208 64.5544 6.248 66.3784 6.248C69.2584 6.248 70.5304 8.264 70.5304 11.624V20H67.0024V12.08C67.0024 9.968 66.4024 9.272 65.1064 9.272C64.0024 9.272 63.3064 9.8 62.3224 10.76V20H58.7944ZM74.1694 20V0.871999H77.6254V12.344H77.7454L82.3054 6.584H86.1934L81.5854 12.104L86.6014 20H82.7854L79.5214 14.432L77.6254 16.616V20H74.1694ZM0.184 55V37.24H11.08V40.192H3.736V44.296H9.952V47.296H3.736V52.024H11.344V55H0.184ZM11.86 55L16.084 48.016L12.148 41.584H15.916L17.284 43.936C17.644 44.728 18.052 45.472 18.46 46.24H18.58C18.892 45.472 19.228 44.728 19.564 43.936L20.668 41.584H24.316L20.38 48.4L24.604 55H20.812L19.324 52.528C18.892 51.76 18.46 50.944 18.004 50.2H17.884C17.5 50.944 17.14 51.736 16.756 52.528L15.532 55H11.86ZM26.8726 60.16V41.584H29.7286L30.0166 42.976H30.0886C31.1926 41.992 32.5846 41.248 34.0246 41.248C37.3366 41.248 39.3046 43.936 39.3046 48.088C39.3046 52.696 36.5446 55.336 33.5926 55.336C32.4406 55.336 31.2886 54.832 30.2806 53.896L30.4006 56.08V60.16H26.8726ZM32.8246 52.432C34.4326 52.432 35.6806 51.04 35.6806 48.136C35.6806 45.544 34.8886 44.128 33.0166 44.128C32.1286 44.128 31.3126 44.584 30.4006 45.52V51.448C31.2406 52.192 32.1046 52.432 32.8246 52.432Z" fill="black"/>
</svg>