 <svg width="579" height="51" viewBox="0 0 579 51" fill="none" xmlns="http://www.w3.org/2000/svg">
<path d="M12.36 0.68994H14.02V14.2499H12.36V0.68994ZM13.5 6.60994H16.7V8.00994H13.5V6.60994ZM0.04 2.86994H10.72V4.20994H0.04V2.86994ZM5.38 5.20994C7.94 5.20994 9.7 6.54994 9.7 8.58994C9.7 10.6099 7.94 11.9499 5.38 11.9499C2.8 11.9499 1.04 10.6099 1.04 8.58994C1.04 6.54994 2.8 5.20994 5.38 5.20994ZM5.38 6.50994C3.74 6.50994 2.62 7.32994 2.62 8.58994C2.62 9.82994 3.74 10.6499 5.38 10.6499C7 10.6499 8.12 9.82994 8.12 8.58994C8.12 7.32994 7 6.50994 5.38 6.50994ZM4.54 0.669941H6.2V3.56994H4.54V0.669941ZM2.76 16.9899H14.84V18.3499H2.76V16.9899ZM2.76 13.1699H4.42V17.5699H2.76V13.1699ZM20.4784 1.50994H32.1184V2.86994H20.4784V1.50994ZM18.3984 7.98994H34.7784V9.34994H18.3984V7.98994ZM25.7384 8.90994H27.3784V13.1699H25.7384V8.90994ZM31.0384 1.50994H32.6584V2.84994C32.6584 4.34994 32.6584 6.16994 32.0584 8.64994L30.4384 8.44994C31.0384 6.02994 31.0384 4.30994 31.0384 2.84994V1.50994ZM20.0984 12.6299H32.7784V18.7499H31.1184V13.9899H20.0984V12.6299ZM51.5722 5.64994H56.1322V7.00994H51.5722V5.64994ZM55.1922 0.68994H56.8522V13.9299H55.1922V0.68994ZM45.3122 16.9899H57.3522V18.3499H45.3122V16.9899ZM45.3122 12.7699H46.9722V17.6899H45.3122V12.7699ZM46.5922 2.92994H47.9522V4.38994C47.9522 7.66994 45.9122 10.5099 42.8922 11.6299L42.0322 10.3099C44.7322 9.34994 46.5922 6.94994 46.5922 4.38994V2.92994ZM46.9122 2.92994H48.2522V4.36994C48.2522 6.70994 50.0122 8.98994 52.6322 9.90994L51.7922 11.2099C48.8522 10.1499 46.9122 7.42994 46.9122 4.36994V2.92994ZM42.5522 2.14994H52.2122V3.48994H42.5522V2.14994ZM60.3706 10.2499H76.7106V11.5899H60.3706V10.2499ZM67.7106 7.90994H69.3506V10.8099H67.7106V7.90994ZM62.5306 7.16994H74.7906V8.46994H62.5306V7.16994ZM62.5306 1.18994H74.7106V2.48994H64.1706V7.86994H62.5306V1.18994ZM63.6906 4.14994H74.2306V5.42994H63.6906V4.14994ZM68.5306 12.9299C72.4706 12.9299 74.7306 13.9299 74.7306 15.8299C74.7306 17.7099 72.4706 18.7099 68.5306 18.7099C64.5906 18.7099 62.3306 17.7099 62.3306 15.8299C62.3306 13.9299 64.5906 12.9299 68.5306 12.9299ZM68.5306 14.1899C65.6306 14.1899 64.0106 14.7699 64.0106 15.8299C64.0106 16.9099 65.6306 17.4699 68.5306 17.4699C71.4306 17.4699 73.0506 16.9099 73.0506 15.8299C73.0506 14.7699 71.4306 14.1899 68.5306 14.1899ZM86.0291 2.44994H87.4691V3.20994C87.4691 6.44994 84.0291 8.82994 80.3891 9.44994L79.7491 8.12994C82.9291 7.66994 86.0291 5.58994 86.0291 3.20994V2.44994ZM86.4491 2.44994H87.8691V3.20994C87.8691 5.58994 90.9891 7.66994 94.1491 8.12994L93.5291 9.44994C89.8691 8.82994 86.4491 6.44994 86.4491 3.20994V2.44994ZM86.0891 11.8499H87.7291V18.7499H86.0891V11.8499ZM78.7891 10.9699H95.1291V12.3299H78.7891V10.9699ZM80.3091 1.78994H93.5491V3.12994H80.3091V1.78994ZM103.048 1.96994C105.868 1.96994 107.888 3.70994 107.888 6.22994C107.888 8.76994 105.868 10.5099 103.048 10.5099C100.228 10.5099 98.1875 8.76994 98.1875 6.22994C98.1875 3.70994 100.228 1.96994 103.048 1.96994ZM103.048 3.40994C101.168 3.40994 99.8075 4.54994 99.8075 6.22994C99.8075 7.90994 101.168 9.06994 103.048 9.06994C104.908 9.06994 106.268 7.90994 106.268 6.22994C106.268 4.54994 104.908 3.40994 103.048 3.40994ZM110.248 0.649941H111.908V18.7699H110.248V0.649941ZM97.5075 14.8099L97.2675 13.4299C100.568 13.4299 105.128 13.4099 109.068 12.7899L109.208 14.0099C105.148 14.7899 100.728 14.8099 97.5075 14.8099ZM121.521 2.04994H129.661V10.0699H121.521V2.04994ZM128.021 3.38994H123.141V8.72994H128.021V3.38994ZM133.141 0.669941H134.801V12.6699H133.141V0.669941ZM134.341 5.60994H137.481V6.96994H134.341V5.60994ZM128.521 11.8099H129.941V12.3699C129.941 15.7499 126.781 18.0099 123.141 18.6899L122.481 17.3699C125.721 16.8499 128.521 14.9299 128.521 12.3699V11.8099ZM128.741 11.8099H130.161V12.3699C130.161 14.9299 132.981 16.8499 136.181 17.3699L135.541 18.6899C131.901 18.0099 128.741 15.7499 128.741 12.3699V11.8099ZM139.98 2.64994H148.16V3.98994H139.98V2.64994ZM142.8 7.80994H144.44V13.9299H142.8V7.80994ZM147.48 2.64994H149.1V3.60994C149.1 5.08994 149.1 7.44994 148.58 10.8099L146.94 10.6499C147.48 7.38994 147.48 5.06994 147.48 3.60994V2.64994ZM151.38 0.669941H153.02V18.7499H151.38V0.669941ZM152.58 8.22994H155.92V9.62994H152.58V8.22994ZM139.18 14.8099L138.98 13.4099C142.26 13.4099 146.62 13.3499 150.28 12.8899L150.36 14.1099C146.62 14.7099 142.38 14.7899 139.18 14.8099ZM175.993 0.669941H177.653V13.0099H175.993V0.669941ZM171.453 5.22994H176.393V6.58994H171.453V5.22994ZM163.593 2.02994H171.853V10.0699H163.593V2.02994ZM170.213 3.36994H165.213V8.74994H170.213V3.36994ZM170.973 11.6699H172.393V12.3699C172.393 15.6299 169.233 18.0299 165.553 18.6899L164.913 17.3699C168.113 16.8299 170.973 14.8299 170.973 12.3699V11.6699ZM171.253 11.6699H172.673V12.3699C172.673 14.8899 175.513 16.8299 178.753 17.3699L178.093 18.6899C174.433 18.0099 171.253 15.7099 171.253 12.3699V11.6699ZM184.192 15.0899C184.072 15.5566 183.919 16.0633 183.732 16.6099C183.545 17.1566 183.345 17.6966 183.132 18.2299C182.919 18.7766 182.699 19.2899 182.472 19.7699H180.932C181.065 19.2499 181.192 18.6966 181.312 18.1099C181.445 17.5366 181.565 16.9699 181.672 16.4099C181.779 15.8499 181.865 15.3366 181.932 14.8699H184.052L184.192 15.0899ZM191.816 9.90994H208.196V11.2699H191.816V9.90994ZM199.296 10.7499H200.956V14.9099H199.296V10.7499ZM193.916 1.50994H206.076V7.86994H193.916V1.50994ZM204.436 2.84994H195.536V6.52994H204.436V2.84994ZM193.896 16.9899H206.376V18.3499H193.896V16.9899ZM193.896 13.1699H195.536V17.4699H193.896V13.1699ZM214.914 11.4499H216.574V14.3899H214.914V11.4499ZM222.514 0.669941H224.174V18.7499H222.514V0.669941ZM223.634 8.34994H226.974V9.74994H223.634V8.34994ZM210.254 15.3099L210.014 13.9299C213.254 13.9299 217.674 13.8899 221.414 13.3499L221.554 14.5899C217.654 15.2899 213.414 15.3099 210.254 15.3099ZM210.314 2.84994H221.134V4.18994H210.314V2.84994ZM215.734 5.24994C218.254 5.24994 219.994 6.56994 219.994 8.58994C219.994 10.6299 218.254 11.9299 215.734 11.9299C213.214 11.9299 211.494 10.6299 211.494 8.58994C211.494 6.56994 213.214 5.24994 215.734 5.24994ZM215.734 6.52994C214.114 6.52994 213.054 7.34994 213.054 8.58994C213.054 9.82994 214.114 10.6499 215.734 10.6499C217.354 10.6499 218.434 9.82994 218.434 8.58994C218.434 7.34994 217.354 6.52994 215.734 6.52994ZM214.914 0.68994H216.574V3.74994H214.914V0.68994ZM233.233 2.50994H234.593V3.96994C234.593 7.26994 232.553 10.0899 229.533 11.2099L228.673 9.88994C231.373 8.92994 233.233 6.52994 233.233 3.96994V2.50994ZM233.553 2.50994H234.893V3.96994C234.893 6.28994 236.653 8.54994 239.273 9.46994L238.433 10.7899C235.493 9.70994 233.553 6.98994 233.553 3.96994V2.50994ZM238.293 5.36994H242.313V6.74994H238.293V5.36994ZM229.193 1.90994H238.853V3.24994H229.193V1.90994ZM231.433 12.4699H243.493V18.7499H241.833V13.8299H231.433V12.4699ZM241.833 0.669941H243.493V11.4899H241.833V0.669941ZM264.447 0.649941H266.127V18.7499H264.447V0.649941ZM265.667 7.98994H269.007V9.36994H265.667V7.98994ZM259.827 2.60994H261.447C261.447 7.74994 259.087 12.3899 253.247 15.3299L252.327 14.0499C257.327 11.5099 259.827 7.64994 259.827 2.86994V2.60994ZM253.167 2.60994H260.687V3.96994H253.167V2.60994ZM283.765 0.669941H285.425V18.7499H283.765V0.669941ZM275.625 4.96994H276.965V6.50994C276.965 10.3699 274.785 13.8699 271.885 15.2699L270.945 13.9899C273.625 12.7499 275.625 9.66994 275.625 6.50994V4.96994ZM275.945 4.96994H277.265V6.50994C277.265 9.52994 279.325 12.4699 282.025 13.6499L281.085 14.9499C278.165 13.6299 275.945 10.2499 275.945 6.50994V4.96994ZM271.445 3.80994H281.405V5.14994H271.445V3.80994ZM275.625 0.98994H277.285V4.54994H275.625V0.98994ZM289.003 9.06994H305.403V10.3299H289.003V9.06994ZM290.943 11.7899H303.343V15.6499H292.643V17.7699H291.003V14.5099H301.723V12.9699H290.943V11.7899ZM291.003 17.3299H303.923V18.5299H291.003V17.3299ZM291.083 1.18994H303.283V4.94994H292.763V6.90994H291.123V3.82994H301.663V2.36994H291.083V1.18994ZM291.123 6.50994H303.623V7.70994H291.123V6.50994ZM313.657 1.52994H315.317V8.76994H313.657V1.52994ZM313.657 7.86994H315.057C317.937 7.86994 320.357 7.70994 323.057 7.16994L323.277 8.54994C320.477 9.10994 317.997 9.24994 315.057 9.24994H313.657V7.86994ZM320.697 3.66994H326.217V5.02994H320.697V3.66994ZM325.817 0.669941H327.477V10.0099H325.817V0.669941ZM315.837 10.8499H327.477V15.2099H317.537V17.8899H315.897V13.9499H325.837V12.2099H315.837V10.8499ZM315.897 17.1699H328.117V18.5099H315.897V17.1699ZM344.176 0.649941H345.836V18.7699H344.176V0.649941ZM332.056 13.0299H333.556C336.576 13.0299 339.276 12.9099 342.476 12.3899L342.656 13.7499C339.376 14.2899 336.656 14.4099 333.556 14.4099H332.056V13.0299ZM332.016 2.34994H340.376V8.80994H333.716V13.5499H332.056V7.44994H338.696V3.70994H332.016V2.34994ZM366.969 0.669941H368.629V9.86994H366.969V0.669941ZM367.909 4.54994H371.289V5.92994H367.909V4.54994ZM357.149 10.7299H368.629V15.1699H358.829V17.8699H357.189V13.9099H367.009V12.0499H357.149V10.7299ZM357.189 17.1699H369.289V18.5099H357.189V17.1699ZM359.589 1.30994C362.309 1.30994 364.269 2.96994 364.269 5.32994C364.269 7.70994 362.309 9.36994 359.589 9.36994C356.909 9.36994 354.929 7.70994 354.929 5.32994C354.929 2.96994 356.909 1.30994 359.589 1.30994ZM359.589 2.66994C357.849 2.66994 356.549 3.76994 356.549 5.32994C356.549 6.90994 357.849 8.00994 359.589 8.00994C361.369 8.00994 362.669 6.90994 362.669 5.32994C362.669 3.76994 361.369 2.66994 359.589 2.66994ZM386.168 0.649941H387.828V18.7699H386.168V0.649941ZM374.048 13.0299H375.548C378.568 13.0299 381.268 12.9099 384.468 12.3899L384.648 13.7499C381.368 14.2899 378.648 14.4099 375.548 14.4099H374.048V13.0299ZM374.008 2.34994H382.368V8.80994H375.708V13.5499H374.048V7.44994H380.688V3.70994H374.008V2.34994ZM393.126 2.46994H404.766V3.84994H393.126V2.46994ZM391.406 14.8499H407.746V16.2299H391.406V14.8499ZM397.746 8.38994H399.406V15.5299H397.746V8.38994ZM404.146 2.46994H405.786V4.26994C405.786 6.50994 405.786 8.98994 405.126 12.6499L403.466 12.4299C404.146 8.96994 404.146 6.42994 404.146 4.26994V2.46994ZM414.265 3.24994H415.585V6.18994C415.585 9.94994 413.285 13.8299 410.465 15.2699L409.505 13.9499C412.085 12.6899 414.265 9.24994 414.265 6.18994V3.24994ZM414.565 3.24994H415.885V6.18994C415.885 9.04994 417.925 12.2699 420.545 13.5099L419.605 14.8299C416.745 13.4099 414.565 9.76994 414.565 6.18994V3.24994ZM410.145 2.50994H419.885V3.90994H410.145V2.50994ZM422.025 0.669941H423.705V18.7499H422.025V0.669941ZM423.305 7.96994H426.665V9.36994H423.305V7.96994ZM435.618 5.68994H447.878V7.04994H435.618V5.68994ZM435.618 1.02994H437.258V6.28994H435.618V1.02994ZM433.398 9.42994H449.738V10.7699H433.398V9.42994ZM440.738 6.40994H442.398V10.0299H440.738V6.40994ZM441.538 12.1499C445.398 12.1499 447.738 13.3299 447.738 15.4499C447.738 17.5299 445.398 18.7099 441.538 18.7099C437.678 18.7099 435.338 17.5299 435.338 15.4499C435.338 13.3299 437.678 12.1499 441.538 12.1499ZM441.538 13.4499C438.718 13.4499 437.018 14.1699 437.018 15.4499C437.018 16.6899 438.718 17.4099 441.538 17.4099C444.378 17.4099 446.058 16.6899 446.058 15.4499C446.058 14.1699 444.378 13.4499 441.538 13.4499ZM464.937 0.669941H466.617V11.3899H464.937V0.669941ZM452.717 9.16994H454.177C457.457 9.16994 459.877 9.06994 462.777 8.60994L462.957 9.94994C459.977 10.4499 457.537 10.5499 454.177 10.5499H452.717V9.16994ZM452.677 1.74994H460.877V6.68994H454.337V9.98994H452.717V5.40994H459.257V3.10994H452.677V1.74994ZM454.937 12.3899H466.617V18.5099H454.937V12.3899ZM464.977 13.7099H456.557V17.1699H464.977V13.7099ZM477.535 10.7299H479.175V13.5699H477.535V10.7299ZM470.175 9.76994H486.515V11.1099H470.175V9.76994ZM471.995 13.1499H484.495V18.6899H482.835V14.5099H471.995V13.1499ZM477.535 0.569941H479.175V3.08994H477.535V0.569941ZM477.455 3.30994H478.915V3.60994C478.915 6.58994 475.615 8.32994 471.675 8.74994L471.155 7.48994C474.655 7.16994 477.455 5.68994 477.455 3.60994V3.30994ZM477.795 3.30994H479.255V3.60994C479.255 5.68994 482.055 7.16994 485.555 7.48994L485.035 8.74994C481.075 8.32994 477.795 6.58994 477.795 3.60994V3.30994ZM471.855 2.42994H484.855V3.76994H471.855V2.42994ZM493.034 1.76994H494.394V3.98994C494.394 7.52994 492.434 10.3499 489.394 11.5299L488.514 10.2099C491.274 9.22994 493.034 6.78994 493.034 3.98994V1.76994ZM493.314 1.76994H494.674V4.04994C494.674 6.50994 496.474 8.82994 499.114 9.76994L498.294 11.0699C495.314 9.98994 493.314 7.22994 493.314 4.04994V1.76994ZM500.954 0.649941H502.614V14.0099H500.954V0.649941ZM502.094 6.20994H505.294V7.58994H502.094V6.20994ZM491.394 16.9899H503.414V18.3499H491.394V16.9899ZM491.394 12.7499H493.054V17.6499H491.394V12.7499ZM511.692 1.52994H513.072V3.28994C513.072 6.70994 511.032 9.64994 507.972 10.8099L507.132 9.48994C509.872 8.48994 511.692 5.98994 511.692 3.28994V1.52994ZM511.992 1.52994H513.352V3.28994C513.352 5.88994 515.212 8.22994 517.892 9.16994L517.052 10.4699C514.032 9.36994 511.992 6.60994 511.992 3.28994V1.52994ZM509.732 12.4699H521.812V18.7499H520.132V13.8299H509.732V12.4699ZM520.132 0.669941H521.812V11.5499H520.132V0.669941ZM532.731 10.2699H534.371V13.3899H532.731V10.2699ZM525.371 9.38994H541.711V10.7499H525.371V9.38994ZM526.891 1.22994H540.171V2.58994H526.891V1.22994ZM526.971 6.36994H540.091V7.72994H526.971V6.36994ZM529.631 1.82994H531.291V7.24994H529.631V1.82994ZM535.791 1.82994H537.431V7.24994H535.791V1.82994ZM527.371 12.8499H539.711V18.5099H527.371V12.8499ZM538.091 14.1699H529.011V17.1699H538.091V14.1699ZM543.769 11.3699H560.169V12.7299H543.769V11.3699ZM551.089 12.0099H552.729V18.7499H551.089V12.0099ZM545.829 1.38994H547.489V3.86994H556.429V1.38994H558.069V9.20994H545.829V1.38994ZM547.489 5.20994V7.86994H556.429V5.20994H547.489ZM566.748 9.78994H568.408V14.1099H566.748V9.78994ZM567.568 1.82994C570.348 1.82994 572.348 3.56994 572.348 6.08994C572.348 8.60994 570.348 10.3499 567.568 10.3499C564.788 10.3499 562.788 8.60994 562.788 6.08994C562.788 3.56994 564.788 1.82994 567.568 1.82994ZM567.568 3.24994C565.728 3.24994 564.408 4.40994 564.408 6.08994C564.408 7.76994 565.728 8.92994 567.568 8.92994C569.408 8.92994 570.728 7.76994 570.728 6.08994C570.728 4.40994 569.408 3.24994 567.568 3.24994ZM574.408 0.669941H576.068V18.7499H574.408V0.669941ZM575.588 8.10994H578.928V9.50994H575.588V8.10994ZM562.208 14.8499L561.968 13.4699C565.228 13.4499 569.588 13.4299 573.268 12.9299L573.408 14.1699C569.588 14.8099 565.368 14.8499 562.208 14.8499ZM12.36 32.6899H14.02V46.2499H12.36V32.6899ZM13.5 38.6099H16.7V40.0099H13.5V38.6099ZM0.04 34.8699H10.72V36.2099H0.04V34.8699ZM5.38 37.2099C7.94 37.2099 9.7 38.5499 9.7 40.5899C9.7 42.6099 7.94 43.9499 5.38 43.9499C2.8 43.9499 1.04 42.6099 1.04 40.5899C1.04 38.5499 2.8 37.2099 5.38 37.2099ZM5.38 38.5099C3.74 38.5099 2.62 39.3299 2.62 40.5899C2.62 41.8299 3.74 42.6499 5.38 42.6499C7 42.6499 8.12 41.8299 8.12 40.5899C8.12 39.3299 7 38.5099 5.38 38.5099ZM4.54 32.6699H6.2V35.5699H4.54V32.6699ZM2.76 48.9899H14.84V50.3499H2.76V48.9899ZM2.76 45.1699H4.42V49.5699H2.76V45.1699ZM20.4784 33.5099H32.1184V34.8699H20.4784V33.5099ZM18.3984 39.9899H34.7784V41.3499H18.3984V39.9899ZM25.7384 40.9099H27.3784V45.1699H25.7384V40.9099ZM31.0384 33.5099H32.6584V34.8499C32.6584 36.3499 32.6584 38.1699 32.0584 40.6499L30.4384 40.4499C31.0384 38.0299 31.0384 36.3099 31.0384 34.8499V33.5099ZM20.0984 44.6299H32.7784V50.7499H31.1184V45.9899H20.0984V44.6299ZM39.0169 37.6899H51.2769V39.0499H39.0169V37.6899ZM39.0169 33.0299H40.6569V38.2899H39.0169V33.0299ZM36.7969 41.4299H53.1369V42.7699H36.7969V41.4299ZM44.1369 38.4099H45.7969V42.0299H44.1369V38.4099ZM44.9369 44.1499C48.7969 44.1499 51.1369 45.3299 51.1369 47.4499C51.1369 49.5299 48.7969 50.7099 44.9369 50.7099C41.0769 50.7099 38.7369 49.5299 38.7369 47.4499C38.7369 45.3299 41.0769 44.1499 44.9369 44.1499ZM44.9369 45.4499C42.1169 45.4499 40.4169 46.1699 40.4169 47.4499C40.4169 48.6899 42.1169 49.4099 44.9369 49.4099C47.7769 49.4099 49.4569 48.6899 49.4569 47.4499C49.4569 46.1699 47.7769 45.4499 44.9369 45.4499ZM62.4953 33.3099H63.9553V34.3099C63.9553 37.7699 60.4353 40.2499 56.6753 40.8899L56.0153 39.5499C59.3153 39.0499 62.4953 36.8899 62.4953 34.3099V33.3099ZM62.7953 33.3099H64.2353V34.3099C64.2353 36.8299 67.4553 39.0499 70.7153 39.5499L70.0553 40.8899C66.3353 40.2499 62.7953 37.7299 62.7953 34.3099V33.3099ZM62.4953 43.8699H64.1353V50.7499H62.4953V43.8699ZM55.1953 42.8499H71.5353V44.2299H55.1953V42.8499ZM78.0338 33.7699H79.3938V35.9899C79.3938 39.5299 77.4338 42.3499 74.3938 43.5299L73.5138 42.2099C76.2738 41.2299 78.0338 38.7899 78.0338 35.9899V33.7699ZM78.3138 33.7699H79.6738V36.0499C79.6738 38.5099 81.4738 40.8299 84.1138 41.7699L83.2938 43.0699C80.3138 41.9899 78.3138 39.2299 78.3138 36.0499V33.7699ZM85.9538 32.6499H87.6138V46.0099H85.9538V32.6499ZM87.0938 38.2099H90.2938V39.5899H87.0938V38.2099ZM76.3938 48.9899H88.4138V50.3499H76.3938V48.9899ZM76.3938 44.7499H78.0538V49.6499H76.3938V44.7499ZM96.6922 33.5299H98.0722V35.2899C98.0722 38.7099 96.0322 41.6499 92.9722 42.8099L92.1322 41.4899C94.8722 40.4899 96.6922 37.9899 96.6922 35.2899V33.5299ZM96.9922 33.5299H98.3522V35.2899C98.3522 37.8899 100.212 40.2299 102.892 41.1699L102.052 42.4699C99.0322 41.3699 96.9922 38.6099 96.9922 35.2899V33.5299ZM94.7322 44.4699H106.812V50.7499H105.132V45.8299H94.7322V44.4699ZM105.132 32.6699H106.812V43.5499H105.132V32.6699ZM117.731 42.2699H119.371V45.3899H117.731V42.2699ZM110.371 41.3899H126.711V42.7499H110.371V41.3899ZM111.891 33.2299H125.171V34.5899H111.891V33.2299ZM111.971 38.3699H125.091V39.7299H111.971V38.3699ZM114.631 33.8299H116.291V39.2499H114.631V33.8299ZM120.791 33.8299H122.431V39.2499H120.791V33.8299ZM112.371 44.8499H124.711V50.5099H112.371V44.8499ZM123.091 46.1699H114.011V49.1699H123.091V46.1699ZM132.969 43.8499H134.669V50.7499H132.969V43.8499ZM139.189 43.8499H140.889V50.7499H139.189V43.8499ZM128.769 42.9499H145.169V44.3299H128.769V42.9499ZM136.929 33.3899C140.709 33.3899 143.249 34.9099 143.249 37.3299C143.249 39.7299 140.709 41.2699 136.929 41.2699C133.169 41.2699 130.609 39.7299 130.609 37.3299C130.609 34.9099 133.169 33.3899 136.929 33.3899ZM136.929 34.7299C134.169 34.7299 132.289 35.7499 132.289 37.3299C132.289 38.9099 134.169 39.9299 136.929 39.9299C139.689 39.9299 141.549 38.9099 141.549 37.3299C141.549 35.7499 139.689 34.7299 136.929 34.7299ZM147.168 42.2499H163.508V43.5899H147.168V42.2499ZM154.508 39.9099H156.148V42.8099H154.508V39.9099ZM149.328 39.1699H161.588V40.4699H149.328V39.1699ZM149.328 33.1899H161.508V34.4899H150.968V39.8699H149.328V33.1899ZM150.488 36.1499H161.028V37.4299H150.488V36.1499ZM155.328 44.9299C159.268 44.9299 161.528 45.9299 161.528 47.8299C161.528 49.7099 159.268 50.7099 155.328 50.7099C151.388 50.7099 149.127 49.7099 149.127 47.8299C149.127 45.9299 151.388 44.9299 155.328 44.9299ZM155.328 46.1899C152.428 46.1899 150.808 46.7699 150.808 47.8299C150.808 48.9099 152.428 49.4699 155.328 49.4699C158.228 49.4699 159.848 48.9099 159.848 47.8299C159.848 46.7699 158.228 46.1899 155.328 46.1899ZM173.686 44.0699C177.526 44.0699 179.986 45.3299 179.986 47.4099C179.986 49.4699 177.526 50.7099 173.686 50.7099C169.826 50.7099 167.386 49.4699 167.386 47.4099C167.386 45.3299 169.826 44.0699 173.686 44.0699ZM173.686 45.3699C170.846 45.3699 169.026 46.1499 169.026 47.4099C169.026 48.6499 170.846 49.4299 173.686 49.4299C176.526 49.4299 178.326 48.6499 178.326 47.4099C178.326 46.1499 176.526 45.3699 173.686 45.3699ZM167.526 33.5699H179.166V34.9299H167.526V33.5699ZM165.586 41.0899H181.906V42.4299H165.586V41.0899ZM172.286 37.6099H173.926V41.4699H172.286V37.6099ZM178.206 33.5699H179.826V35.1099C179.826 36.5699 179.826 38.0299 179.346 39.9099L177.706 39.7099C178.206 37.8499 178.206 36.5299 178.206 35.1099V33.5699ZM188.404 34.2299H189.764V37.4699C189.764 41.4699 187.604 45.3699 184.744 46.8899L183.724 45.5699C186.344 44.2499 188.404 40.7699 188.404 37.4699V34.2299ZM188.704 34.2299H190.044V37.4699C190.044 40.6499 192.064 43.9499 194.624 45.2299L193.604 46.5499C190.804 45.0499 188.704 41.3499 188.704 37.4699V34.2299ZM196.204 32.6699H197.884V50.7499H196.204V32.6699ZM197.484 39.9899H200.844V41.3899H197.484V39.9899ZM214.603 32.6499H216.283V50.7499H214.603V32.6499ZM215.823 39.9899H219.163V41.3699H215.823V39.9899ZM209.983 34.6099H211.603C211.603 39.7499 209.243 44.3899 203.403 47.3299L202.483 46.0499C207.483 43.5099 209.983 39.6499 209.983 34.8699V34.6099ZM203.323 34.6099H210.843V35.9699H203.323V34.6099ZM235.257 35.9299H239.877V37.3099H235.257V35.9299ZM239.177 32.6699H240.837V41.9899H239.177V32.6699ZM229.197 42.9299H240.837V47.2499H230.877V49.9899H229.257V46.0099H239.197V44.2499H229.197V42.9299ZM229.257 49.1899H241.517V50.5099H229.257V49.1899ZM230.477 33.2299H231.837V34.9299C231.837 38.2699 229.837 40.9699 226.817 42.0499L225.957 40.7299C228.677 39.8099 230.477 37.5499 230.477 34.9299V33.2299ZM230.757 33.2299H232.097V34.9299C232.097 37.2899 233.917 39.4699 236.537 40.3299L235.677 41.6299C232.757 40.5899 230.757 37.9899 230.757 34.9299V33.2299ZM257.515 32.6699H259.195V42.6099H257.515V32.6699ZM245.295 40.8699H246.755C250.035 40.8699 252.455 40.7699 255.355 40.2899L255.535 41.6699C252.555 42.1299 250.115 42.2299 246.755 42.2299H245.295V40.8699ZM245.255 33.5499H253.455V38.4499H246.915V41.7699H245.295V37.1499H251.835V34.8899H245.255V33.5499ZM247.495 43.5099H249.135V45.6299H257.555V43.5099H259.195V50.5099H247.495V43.5099ZM249.135 46.9499V49.1499H257.555V46.9499H249.135ZM275.133 32.6899H276.793V46.2499H275.133V32.6899ZM276.273 38.6099H279.473V40.0099H276.273V38.6099ZM262.813 34.8699H273.493V36.2099H262.813V34.8699ZM268.153 37.2099C270.713 37.2099 272.473 38.5499 272.473 40.5899C272.473 42.6099 270.713 43.9499 268.153 43.9499C265.573 43.9499 263.813 42.6099 263.813 40.5899C263.813 38.5499 265.573 37.2099 268.153 37.2099ZM268.153 38.5099C266.513 38.5099 265.393 39.3299 265.393 40.5899C265.393 41.8299 266.513 42.6499 268.153 42.6499C269.773 42.6499 270.893 41.8299 270.893 40.5899C270.893 39.3299 269.773 38.5099 268.153 38.5099ZM267.313 32.6699H268.973V35.5699H267.313V32.6699ZM265.533 48.9899H277.613V50.3499H265.533V48.9899ZM265.533 45.1699H267.193V49.5699H265.533V45.1699ZM295.947 37.6499H300.507V39.0099H295.947V37.6499ZM299.567 32.6899H301.227V45.9299H299.567V32.6899ZM289.687 48.9899H301.727V50.3499H289.687V48.9899ZM289.687 44.7699H291.347V49.6899H289.687V44.7699ZM290.967 34.9299H292.327V36.3899C292.327 39.6699 290.287 42.5099 287.267 43.6299L286.407 42.3099C289.107 41.3499 290.967 38.9499 290.967 36.3899V34.9299ZM291.287 34.9299H292.627V36.3699C292.627 38.7099 294.387 40.9899 297.007 41.9099L296.167 43.2099C293.227 42.1499 291.287 39.4299 291.287 36.3699V34.9299ZM286.927 34.1499H296.587V35.4899H286.927V34.1499ZM304.746 42.2499H321.086V43.5899H304.746V42.2499ZM312.086 39.9099H313.726V42.8099H312.086V39.9099ZM306.906 39.1699H319.166V40.4699H306.906V39.1699ZM306.906 33.1899H319.086V34.4899H308.546V39.8699H306.906V33.1899ZM308.066 36.1499H318.606V37.4299H308.066V36.1499ZM312.906 44.9299C316.846 44.9299 319.106 45.9299 319.106 47.8299C319.106 49.7099 316.846 50.7099 312.906 50.7099C308.966 50.7099 306.706 49.7099 306.706 47.8299C306.706 45.9299 308.966 44.9299 312.906 44.9299ZM312.906 46.1899C310.006 46.1899 308.386 46.7699 308.386 47.8299C308.386 48.9099 310.006 49.4699 312.906 49.4699C315.806 49.4699 317.426 48.9099 317.426 47.8299C317.426 46.7699 315.806 46.1899 312.906 46.1899ZM330.404 34.4499H331.844V35.2099C331.844 38.4499 328.404 40.8299 324.764 41.4499L324.124 40.1299C327.304 39.6699 330.404 37.5899 330.404 35.2099V34.4499ZM330.824 34.4499H332.244V35.2099C332.244 37.5899 335.364 39.6699 338.524 40.1299L337.904 41.4499C334.244 40.8299 330.824 38.4499 330.824 35.2099V34.4499ZM330.464 43.8499H332.104V50.7499H330.464V43.8499ZM323.164 42.9699H339.504V44.3299H323.164V42.9699ZM324.684 33.7899H337.924V35.1299H324.684V33.7899ZM341.563 47.0299H357.943V48.4099H341.563V47.0299ZM348.843 42.6499H350.483V47.4899H348.843V42.6499ZM348.803 33.8699H350.243V35.2699C350.243 39.1299 346.543 42.1099 342.903 42.8699L342.203 41.4899C345.383 40.9099 348.803 38.2499 348.803 35.2699V33.8699ZM349.103 33.8699H350.543V35.2699C350.543 38.2699 353.983 40.9099 357.163 41.4899L356.443 42.8699C352.803 42.1099 349.103 39.1299 349.103 35.2699V33.8699ZM359.941 42.2499H376.281V43.5899H359.941V42.2499ZM367.281 39.9099H368.921V42.8099H367.281V39.9099ZM362.101 39.1699H374.361V40.4699H362.101V39.1699ZM362.101 33.1899H374.281V34.4899H363.741V39.8699H362.101V33.1899ZM363.261 36.1499H373.801V37.4299H363.261V36.1499ZM368.101 44.9299C372.041 44.9299 374.301 45.9299 374.301 47.8299C374.301 49.7099 372.041 50.7099 368.101 50.7099C364.161 50.7099 361.901 49.7099 361.901 47.8299C361.901 45.9299 364.161 44.9299 368.101 44.9299ZM368.101 46.1899C365.201 46.1899 363.581 46.7699 363.581 47.8299C363.581 48.9099 365.201 49.4699 368.101 49.4699C371.001 49.4699 372.621 48.9099 372.621 47.8299C372.621 46.7699 371.001 46.1899 368.101 46.1899ZM386.459 44.0699C390.299 44.0699 392.759 45.3299 392.759 47.4099C392.759 49.4699 390.299 50.7099 386.459 50.7099C382.599 50.7099 380.159 49.4699 380.159 47.4099C380.159 45.3299 382.599 44.0699 386.459 44.0699ZM386.459 45.3699C383.619 45.3699 381.799 46.1499 381.799 47.4099C381.799 48.6499 383.619 49.4299 386.459 49.4299C389.299 49.4299 391.099 48.6499 391.099 47.4099C391.099 46.1499 389.299 45.3699 386.459 45.3699ZM380.299 33.5699H391.939V34.9299H380.299V33.5699ZM378.359 41.0899H394.679V42.4299H378.359V41.0899ZM385.059 37.6099H386.699V41.4699H385.059V37.6099ZM390.979 33.5699H392.599V35.1099C392.599 36.5699 392.599 38.0299 392.119 39.9099L390.479 39.7099C390.979 37.8499 390.979 36.5299 390.979 35.1099V33.5699ZM409.118 32.6699H410.778V45.8899H409.118V32.6699ZM410.258 38.1499H413.458V39.5299H410.258V38.1499ZM404.178 34.0699H405.938C405.938 38.7499 402.658 42.1699 397.478 43.8299L396.758 42.4699C401.318 41.0699 404.178 38.2699 404.178 34.7899V34.0699ZM397.498 34.0699H405.018V35.4299H397.498V34.0699ZM399.498 48.9899H411.578V50.3499H399.498V48.9899ZM399.498 44.5499H401.158V49.5299H399.498V44.5499ZM428.296 32.6699H429.976V42.3699H428.296V32.6699ZM418.316 43.2699H419.956V45.4699H428.336V43.2699H429.976V50.5099H418.316V43.2699ZM419.956 46.7899V49.1699H428.336V46.7899H419.956ZM420.276 33.5299C423.016 33.5299 424.976 35.2299 424.976 37.6899C424.976 40.1699 423.016 41.8699 420.276 41.8699C417.536 41.8699 415.556 40.1699 415.556 37.6899C415.556 35.2299 417.536 33.5299 420.276 33.5299ZM420.276 34.9099C418.476 34.9099 417.176 36.0499 417.176 37.6899C417.176 39.3299 418.476 40.4699 420.276 40.4699C422.076 40.4699 423.376 39.3299 423.376 37.6899C423.376 36.0499 422.076 34.9099 420.276 34.9099ZM446.695 32.6699H448.355V50.7499H446.695V32.6699ZM434.695 34.4299H436.335V45.6299H434.695V34.4299ZM434.695 44.6499H436.175C438.915 44.6499 441.775 44.4499 444.835 43.8099L445.035 45.2299C441.895 45.8699 439.035 46.0899 436.175 46.0899H434.695V44.6499ZM464.173 32.6499H465.853V50.7699H464.173V32.6499ZM465.453 39.7899H468.813V41.1899H465.453V39.7899ZM452.713 44.8699H454.133C457.473 44.8699 459.813 44.7499 462.513 44.2499L462.693 45.6499C459.913 46.1699 457.533 46.2699 454.133 46.2699H452.713V44.8699ZM452.713 34.4099H461.113V35.7699H454.353V45.4899H452.713V34.4099ZM470.712 48.0099C470.712 47.4899 470.845 47.1233 471.112 46.9099C471.378 46.6966 471.698 46.5899 472.072 46.5899C472.458 46.5899 472.785 46.6966 473.052 46.9099C473.318 47.1233 473.452 47.4899 473.452 48.0099C473.452 48.5299 473.318 48.9033 473.052 49.1299C472.785 49.3566 472.458 49.4699 472.072 49.4699C471.698 49.4699 471.378 49.3566 471.112 49.1299C470.845 48.9033 470.712 48.5299 470.712 48.0099Z" fill="white"/>
</svg>