<svg width="226" height="145" viewBox="0 0 226 145" fill="none" xmlns="http://www.w3.org/2000/svg">
<path d="M0.784 8.6699H13.904V9.7579H0.784V8.6699ZM6.64 9.3419H7.952V14.8459H6.64V9.3419ZM7.312 0.9579C10.336 0.9579 12.368 2.1899 12.368 4.1259C12.368 6.0619 10.336 7.2939 7.312 7.2939C4.304 7.2939 2.256 6.0619 2.256 4.1259C2.256 2.1899 4.304 0.9579 7.312 0.9579ZM7.312 2.0299C5.104 2.0299 3.6 2.8459 3.6 4.1259C3.6 5.4059 5.104 6.2219 7.312 6.2219C9.52 6.2219 11.008 5.4059 11.008 4.1259C11.008 2.8459 9.52 2.0299 7.312 2.0299ZM26.0468 0.3659H27.3748V14.8619H26.0468V0.3659ZM16.3508 10.2699H17.5508C19.9668 10.2699 22.1268 10.1739 24.6868 9.7579L24.8308 10.8459C22.2068 11.2779 20.0308 11.3739 17.5508 11.3739H16.3508V10.2699ZM16.3188 1.7259H23.0068V6.8939H17.6788V10.6859H16.3508V5.8059H21.6628V2.8139H16.3188V1.7259ZM36.0935 0.4459H37.2135V0.9739C37.2135 3.4379 34.3975 5.0859 31.3895 5.4699L30.9415 4.4459C33.5655 4.1579 36.0935 2.7659 36.0935 0.9739V0.4459ZM36.3175 0.4459H37.4375V0.9739C37.4375 2.7659 39.9655 4.1579 42.5895 4.4459L42.1255 5.4699C39.1335 5.0859 36.3175 3.4379 36.3175 0.9739V0.4459ZM36.0935 7.1979H37.4055V9.4059H36.0935V7.1979ZM30.2215 6.4139H43.2935V7.4859H30.2215V6.4139ZM31.8055 8.9099H41.6295V12.2059H33.1495V13.9499H31.8375V11.2459H40.3175V9.9339H31.8055V8.9099ZM31.8375 13.6459H42.0615V14.6859H31.8375V13.6459ZM49.6443 1.4219C51.9003 1.4219 53.5163 2.8139 53.5163 4.8299C53.5163 6.8619 51.9003 8.2539 49.6443 8.2539C47.3883 8.2539 45.7563 6.8619 45.7563 4.8299C45.7563 2.8139 47.3883 1.4219 49.6443 1.4219ZM49.6443 2.5739C48.1403 2.5739 47.0523 3.4859 47.0523 4.8299C47.0523 6.1739 48.1403 7.1019 49.6443 7.1019C51.1323 7.1019 52.2203 6.1739 52.2203 4.8299C52.2203 3.4859 51.1323 2.5739 49.6443 2.5739ZM55.4043 0.3659H56.7323V14.8619H55.4043V0.3659ZM45.2122 11.6939L45.0203 10.5899C47.6603 10.5899 51.3083 10.5739 54.4603 10.0779L54.5723 11.0539C51.3243 11.6779 47.7883 11.6939 45.2122 11.6939ZM73.6073 0.3659H74.9513V14.8459H73.6073V0.3659ZM74.5833 6.2379H77.2553V7.3419H74.5833V6.2379ZM69.9113 1.9339H71.2073C71.2073 6.0459 69.3193 9.7579 64.6473 12.1099L63.9113 11.0859C67.9113 9.0539 69.9113 5.9659 69.9113 2.1419V1.9339ZM64.5833 1.9339H70.5993V3.0219H64.5833V1.9339ZM89.062 0.3819H90.39V14.8459H89.062V0.3819ZM82.55 3.8219H83.622V5.0539C83.622 8.1419 81.878 10.9419 79.558 12.0619L78.806 11.0379C80.95 10.0459 82.55 7.5819 82.55 5.0539V3.8219ZM82.806 3.8219H83.862V5.0539C83.862 7.4699 85.51 9.8219 87.67 10.7659L86.918 11.8059C84.582 10.7499 82.806 8.0459 82.806 5.0539V3.8219ZM79.206 2.8939H87.174V3.9659H79.206V2.8939ZM82.55 0.637899H83.878V3.4859H82.55V0.637899ZM96.9168 7.6779H98.2448V11.1339H96.9168V7.6779ZM97.5728 1.3099C99.7968 1.3099 101.397 2.7019 101.397 4.7179C101.397 6.7339 99.7968 8.1259 97.5728 8.1259C95.3488 8.1259 93.7488 6.7339 93.7488 4.7179C93.7488 2.7019 95.3488 1.3099 97.5728 1.3099ZM97.5728 2.4459C96.1008 2.4459 95.0448 3.3739 95.0448 4.7179C95.0448 6.0619 96.1008 6.9899 97.5728 6.9899C99.0448 6.9899 100.101 6.0619 100.101 4.7179C100.101 3.3739 99.0448 2.4459 97.5728 2.4459ZM103.045 0.3819H104.373V14.8459H103.045V0.3819ZM103.989 6.3339H106.661V7.4539H103.989V6.3339ZM93.2848 11.7259L93.0928 10.6219C95.7008 10.6059 99.1888 10.5899 102.133 10.1899L102.245 11.1819C99.1888 11.6939 95.8128 11.7259 93.2848 11.7259ZM112.128 8.6699H125.248V9.7579H112.128V8.6699ZM117.984 9.3419H119.296V14.8459H117.984V9.3419ZM118.656 0.9579C121.68 0.9579 123.712 2.1899 123.712 4.1259C123.712 6.0619 121.68 7.2939 118.656 7.2939C115.648 7.2939 113.6 6.0619 113.6 4.1259C113.6 2.1899 115.648 0.9579 118.656 0.9579ZM118.656 2.0299C116.448 2.0299 114.944 2.8459 114.944 4.1259C114.944 5.4059 116.448 6.2219 118.656 6.2219C120.864 6.2219 122.352 5.4059 122.352 4.1259C122.352 2.8459 120.864 2.0299 118.656 2.0299ZM132.703 0.8939H133.871V1.6939C133.871 4.4619 131.055 6.4459 128.047 6.9579L127.519 5.8859C130.159 5.4859 132.703 3.7579 132.703 1.6939V0.8939ZM132.943 0.8939H134.095V1.6939C134.095 3.7099 136.671 5.4859 139.279 5.8859L138.751 6.9579C135.775 6.4459 132.943 4.4299 132.943 1.6939V0.8939ZM132.703 9.3419H134.015V14.8459H132.703V9.3419ZM126.863 8.5259H139.935V9.6299H126.863V8.5259ZM145.213 1.1979H146.317V2.6859C146.317 5.4859 144.733 7.7739 142.253 8.7019L141.565 7.6139C143.773 6.8299 145.213 4.8939 145.213 2.6859V1.1979ZM145.453 1.1979H146.541V2.6379C146.541 4.6859 147.949 6.4939 150.061 7.2299L149.341 8.2699C147.005 7.3899 145.453 5.2619 145.453 2.6379V1.1979ZM152.141 0.3819H153.469V8.9419H152.141V0.3819ZM148.717 9.3579C151.693 9.3579 153.533 10.3659 153.533 12.0939C153.533 13.8219 151.693 14.8139 148.717 14.8139C145.725 14.8139 143.885 13.8219 143.885 12.0939C143.885 10.3659 145.725 9.3579 148.717 9.3579ZM148.717 10.4139C146.541 10.4139 145.213 11.0379 145.213 12.0939C145.213 13.1499 146.541 13.7739 148.717 13.7739C150.893 13.7739 152.221 13.1499 152.221 12.0939C152.221 11.0379 150.893 10.4139 148.717 10.4139ZM149.005 3.4379H152.429V4.5419H149.005V3.4379ZM162.828 0.6219C166.012 0.6219 167.916 1.5179 167.916 3.1339C167.916 4.7499 166.012 5.6459 162.828 5.6459C159.628 5.6459 157.74 4.7499 157.74 3.1339C157.74 1.5179 159.628 0.6219 162.828 0.6219ZM162.828 1.6299C160.46 1.6299 159.1 2.1739 159.1 3.1339C159.1 4.0939 160.46 4.6379 162.828 4.6379C165.18 4.6379 166.54 4.0939 166.54 3.1339C166.54 2.1739 165.18 1.6299 162.828 1.6299ZM156.284 6.6059H169.356V7.6779H156.284V6.6059ZM157.868 8.9099H167.692V12.1739H159.212V13.9339H157.9V11.2139H166.38V9.9339H157.868V8.9099ZM157.9 13.6459H168.124V14.6859H157.9V13.6459ZM185.063 0.3819H186.391V7.7419H185.063V0.3819ZM185.815 3.4859H188.519V4.5899H185.815V3.4859ZM177.207 8.4299H186.391V11.9819H178.551V14.1419H177.239V10.9739H185.095V9.4859H177.207V8.4299ZM177.239 13.5819H186.919V14.6539H177.239V13.5819ZM179.159 0.8939C181.335 0.8939 182.903 2.2219 182.903 4.1099C182.903 6.0139 181.335 7.3419 179.159 7.3419C177.015 7.3419 175.431 6.0139 175.431 4.1099C175.431 2.2219 177.015 0.8939 179.159 0.8939ZM179.159 1.9819C177.767 1.9819 176.727 2.8619 176.727 4.1099C176.727 5.3739 177.767 6.2539 179.159 6.2539C180.583 6.2539 181.623 5.3739 181.623 4.1099C181.623 2.8619 180.583 1.9819 179.159 1.9819ZM200.422 0.3659H201.75V14.8619H200.422V0.3659ZM190.726 10.2699H191.926C194.342 10.2699 196.502 10.1739 199.062 9.7579L199.206 10.8459C196.582 11.2779 194.406 11.3739 191.926 11.3739H190.726V10.2699ZM190.694 1.7259H197.382V6.8939H192.054V10.6859H190.726V5.8059H196.038V2.8139H190.694V1.7259ZM206.373 4.7179H216.197V5.8059H206.373V4.7179ZM204.597 7.7419H217.717V8.8299H204.597V7.7419ZM206.373 0.9099H207.685V5.2619H206.373V0.9099ZM206.277 13.4059H216.277V14.4939H206.277V13.4059ZM206.277 10.2699H207.589V13.6939H206.277V10.2699ZM2.464 27.0539H11.776V28.1419H2.464V27.0539ZM0.8 32.2379H13.904V33.3259H0.8V32.2379ZM6.672 32.9739H7.984V36.3819H6.672V32.9739ZM10.912 27.0539H12.208V28.1259C12.208 29.3259 12.208 30.7819 11.728 32.7659L10.432 32.6059C10.912 30.6699 10.912 29.2939 10.912 28.1259V27.0539ZM2.16 35.9499H12.304V40.8459H10.976V37.0379H2.16V35.9499ZM26.4948 26.3819H27.7748V40.8459H26.4948V26.3819ZM24.0628 32.2699H26.8468V33.3579H24.0628V32.2699ZM23.2148 26.7019H24.4628V40.1099H23.2148V26.7019ZM16.2068 28.1259H17.5348V36.4779H16.2068V28.1259ZM16.2068 35.9499H17.1348C18.6228 35.9499 20.2868 35.8539 22.1748 35.4859L22.3188 36.6379C20.3508 37.0219 18.6868 37.1019 17.1348 37.1019H16.2068V35.9499ZM38.5218 34.0299H39.8658V37.1659H38.5218V34.0299ZM38.5218 28.9419H39.5938V29.2619C39.5938 31.7899 37.9458 33.7419 35.5138 34.5099L34.9058 33.4699C37.0498 32.8299 38.5218 31.2139 38.5218 29.2619V28.9419ZM38.7778 28.9419H39.8498V29.2619C39.8498 31.1339 41.3698 32.7019 43.4978 33.3259L42.8898 34.3499C40.4578 33.6299 38.7778 31.7099 38.7778 29.2619V28.9419ZM35.2418 28.2699H43.1938V29.3419H35.2418V28.2699ZM38.5218 26.4779H39.8658V28.7339H38.5218V26.4779ZM44.8418 26.3659H46.1698V40.8619H44.8418V26.3659ZM34.6497 37.8859L34.4578 36.7659C37.0978 36.7659 40.7458 36.7499 43.8978 36.2699L44.0098 37.2459C40.7618 37.8539 37.2258 37.8699 34.6497 37.8859ZM60.1045 26.3819H61.3845V40.8459H60.1045V26.3819ZM57.6565 32.1739H60.4405V33.2779H57.6565V32.1739ZM56.8245 26.7019H58.0725V40.1099H56.8245V26.7019ZM49.6245 36.1739H50.5685C52.6805 36.1739 54.1205 36.0939 55.8005 35.7419L55.9285 36.8459C54.2005 37.2139 52.7445 37.2779 50.5685 37.2779H49.6245V36.1739ZM49.6245 28.1419H55.0005V29.2299H50.9365V36.6699H49.6245V28.1419ZM68.5193 27.4219C70.7753 27.4219 72.3913 28.8139 72.3913 30.8299C72.3913 32.8619 70.7753 34.2539 68.5193 34.2539C66.2633 34.2539 64.6313 32.8619 64.6313 30.8299C64.6313 28.8139 66.2633 27.4219 68.5193 27.4219ZM68.5193 28.5739C67.0153 28.5739 65.9273 29.4859 65.9273 30.8299C65.9273 32.1739 67.0153 33.1019 68.5193 33.1019C70.0073 33.1019 71.0953 32.1739 71.0953 30.8299C71.0953 29.4859 70.0073 28.5739 68.5193 28.5739ZM74.2793 26.3659H75.6073V40.8619H74.2793V26.3659ZM64.0872 37.6939L63.8953 36.5899C66.5353 36.5899 70.1833 36.5739 73.3353 36.0779L73.4473 37.0539C70.1993 37.6779 66.6633 37.6939 64.0872 37.6939ZM90.3703 30.3659H94.0183V31.4539H90.3703V30.3659ZM93.2663 26.3979H94.5943V36.9899H93.2663V26.3979ZM85.3623 39.4379H94.9943V40.5259H85.3623V39.4379ZM85.3623 36.0619H86.6903V39.9979H85.3623V36.0619ZM86.3863 28.1899H87.4743V29.3579C87.4743 31.9819 85.8423 34.2539 83.4263 35.1499L82.7383 34.0939C84.8983 33.3259 86.3863 31.4059 86.3863 29.3579V28.1899ZM86.6423 28.1899H87.7143V29.3419C87.7143 31.2139 89.1223 33.0379 91.2183 33.7739L90.5463 34.8139C88.1943 33.9659 86.6423 31.7899 86.6423 29.3419V28.1899ZM83.1543 27.5659H90.8823V28.6379H83.1543V27.5659ZM97.409 34.0459H110.481V35.1179H97.409V34.0459ZM103.281 32.1739H104.593V34.4939H103.281V32.1739ZM99.137 31.5819H108.945V32.6219H99.137V31.5819ZM99.137 26.7979H108.881V27.8379H100.449V32.1419H99.137V26.7979ZM100.065 29.1659H108.497V30.1899H100.065V29.1659ZM103.937 36.1899C107.089 36.1899 108.897 36.9899 108.897 38.5099C108.897 40.0139 107.089 40.8139 103.937 40.8139C100.785 40.8139 98.977 40.0139 98.977 38.5099C98.977 36.9899 100.785 36.1899 103.937 36.1899ZM103.937 37.1979C101.617 37.1979 100.321 37.6619 100.321 38.5099C100.321 39.3739 101.617 39.8219 103.937 39.8219C106.257 39.8219 107.553 39.3739 107.553 38.5099C107.553 37.6619 106.257 37.1979 103.937 37.1979ZM117.936 27.8059H119.088V28.4139C119.088 31.0059 116.336 32.9099 113.424 33.4059L112.912 32.3499C115.456 31.9819 117.936 30.3179 117.936 28.4139V27.8059ZM118.272 27.8059H119.408V28.4139C119.408 30.3179 121.904 31.9819 124.432 32.3499L123.936 33.4059C121.008 32.9099 118.272 31.0059 118.272 28.4139V27.8059ZM117.984 35.3259H119.296V40.8459H117.984V35.3259ZM112.144 34.6219H125.216V35.7099H112.144V34.6219ZM113.36 27.2779H123.952V28.3499H113.36V27.2779ZM141.931 26.3819H143.195V35.5339H141.931V26.3819ZM139.579 30.3019H142.315V31.4059H139.579V30.3019ZM138.843 26.6699H140.091V35.0219H138.843V26.6699ZM130.939 28.1099H138.267V29.1659H130.939V28.1099ZM134.619 29.9019C136.427 29.9019 137.691 30.8939 137.691 32.3819C137.691 33.8859 136.427 34.8619 134.619 34.8619C132.795 34.8619 131.531 33.8859 131.531 32.3819C131.531 30.8939 132.795 29.9019 134.619 29.9019ZM134.619 30.8939C133.483 30.8939 132.715 31.4859 132.715 32.3819C132.715 33.2939 133.483 33.8699 134.619 33.8699C135.739 33.8699 136.507 33.2939 136.507 32.3819C136.507 31.4859 135.739 30.8939 134.619 30.8939ZM133.963 26.4939H135.259V28.7019H133.963V26.4939ZM138.459 35.7899C141.467 35.7899 143.275 36.6859 143.275 38.3019C143.275 39.9019 141.467 40.8139 138.459 40.8139C135.419 40.8139 133.627 39.9019 133.627 38.3019C133.627 36.6859 135.419 35.7899 138.459 35.7899ZM138.459 36.8139C136.235 36.8139 134.939 37.3419 134.939 38.3019C134.939 39.2619 136.235 39.8059 138.459 39.8059C140.651 39.8059 141.963 39.2619 141.963 38.3019C141.963 37.3419 140.651 36.8139 138.459 36.8139ZM149.274 27.6299H150.362V30.2219C150.362 33.4219 148.634 36.5419 146.346 37.7579L145.53 36.7019C147.626 35.6459 149.274 32.8619 149.274 30.2219V27.6299ZM149.514 27.6299H150.586V30.2219C150.586 32.7659 152.202 35.4059 154.25 36.4299L153.434 37.4859C151.194 36.2859 149.514 33.3259 149.514 30.2219V27.6299ZM155.514 26.3819H156.858V40.8459H155.514V26.3819ZM156.538 32.2379H159.226V33.3579H156.538V32.2379ZM166.565 28.1739L166.245 32.3019H165.173L164.853 28.1739H166.565ZM179.401 26.3819H180.681V40.8459H179.401V26.3819ZM176.953 32.1739H179.737V33.2779H176.953V32.1739ZM176.121 26.7019H177.369V40.1099H176.121V26.7019ZM168.921 36.1739H169.865C171.977 36.1739 173.417 36.0939 175.097 35.7419L175.225 36.8459C173.497 37.2139 172.041 37.2779 169.865 37.2779H168.921V36.1739ZM168.921 28.1419H174.297V29.2299H170.233V36.6699H168.921V28.1419ZM193.016 26.3979H194.344V37.2459H193.016V26.3979ZM193.928 31.1339H196.488V32.2539H193.928V31.1339ZM183.16 28.1419H191.704V29.2139H183.16V28.1419ZM187.432 30.0139C189.48 30.0139 190.888 31.0859 190.888 32.7179C190.888 34.3339 189.48 35.4059 187.432 35.4059C185.368 35.4059 183.96 34.3339 183.96 32.7179C183.96 31.0859 185.368 30.0139 187.432 30.0139ZM187.432 31.0539C186.12 31.0539 185.224 31.7099 185.224 32.7179C185.224 33.7099 186.12 34.3659 187.432 34.3659C188.728 34.3659 189.624 33.7099 189.624 32.7179C189.624 31.7099 188.728 31.0539 187.432 31.0539ZM186.76 26.3819H188.088V28.7019H186.76V26.3819ZM185.336 39.4379H195V40.5259H185.336V39.4379ZM185.336 36.3819H186.664V39.9019H185.336V36.3819ZM198.599 27.6299H205.335V34.3659H198.599V27.6299ZM204.055 28.7019H199.879V33.2939H204.055V28.7019ZM208.359 26.3979H209.703V36.7819H208.359V26.3979ZM200.407 39.2779H210.135V40.3819H200.407V39.2779ZM200.407 35.7899H201.719V39.7259H200.407V35.7899ZM214.23 27.0539H223.542V28.1419H214.23V27.0539ZM212.566 32.2379H225.67V33.3259H212.566V32.2379ZM218.438 32.9739H219.75V36.3819H218.438V32.9739ZM222.678 27.0539H223.974V28.1259C223.974 29.3259 223.974 30.7819 223.494 32.7659L222.198 32.6059C222.678 30.6699 222.678 29.2939 222.678 28.1259V27.0539ZM213.926 35.9499H224.07V40.8459H222.742V37.0379H213.926V35.9499ZM0.784 60.6699H13.904V61.7579H0.784V60.6699ZM6.64 61.3419H7.952V66.8459H6.64V61.3419ZM7.312 52.9579C10.336 52.9579 12.368 54.1899 12.368 56.1259C12.368 58.0619 10.336 59.2939 7.312 59.2939C4.304 59.2939 2.256 58.0619 2.256 56.1259C2.256 54.1899 4.304 52.9579 7.312 52.9579ZM7.312 54.0299C5.104 54.0299 3.6 54.8459 3.6 56.1259C3.6 57.4059 5.104 58.2219 7.312 58.2219C9.52 58.2219 11.008 57.4059 11.008 56.1259C11.008 54.8459 9.52 54.0299 7.312 54.0299ZM26.0468 52.3659H27.3748V66.8619H26.0468V52.3659ZM16.3508 62.2699H17.5508C19.9668 62.2699 22.1268 62.1739 24.6868 61.7579L24.8308 62.8459C22.2068 63.2779 20.0308 63.3739 17.5508 63.3739H16.3508V62.2699ZM16.3188 53.7259H23.0068V58.8939H17.6788V62.6859H16.3508V57.8059H21.6628V54.8139H16.3188V53.7259ZM36.0935 52.4459H37.2135V52.9739C37.2135 55.4379 34.3975 57.0859 31.3895 57.4699L30.9415 56.4459C33.5655 56.1579 36.0935 54.7659 36.0935 52.9739V52.4459ZM36.3175 52.4459H37.4375V52.9739C37.4375 54.7659 39.9655 56.1579 42.5895 56.4459L42.1255 57.4699C39.1335 57.0859 36.3175 55.4379 36.3175 52.9739V52.4459ZM36.0935 59.1979H37.4055V61.4059H36.0935V59.1979ZM30.2215 58.4139H43.2935V59.4859H30.2215V58.4139ZM31.8055 60.9099H41.6295V64.2059H33.1495V65.9499H31.8375V63.2459H40.3175V61.9339H31.8055V60.9099ZM31.8375 65.6459H42.0615V66.6859H31.8375V65.6459ZM60.1045 52.3819H61.3845V66.8459H60.1045V52.3819ZM57.6565 58.1739H60.4405V59.2779H57.6565V58.1739ZM56.8245 52.7019H58.0725V66.1099H56.8245V52.7019ZM49.6245 62.1739H50.5685C52.6805 62.1739 54.1205 62.0939 55.8005 61.7419L55.9285 62.8459C54.2005 63.2139 52.7445 63.2779 50.5685 63.2779H49.6245V62.1739ZM49.6245 54.1419H55.0005V55.2299H50.9365V62.6699H49.6245V54.1419ZM69.7033 60.4299H71.0153V62.7019H69.7033V60.4299ZM63.8153 59.6619H76.8873V60.7339H63.8153V59.6619ZM65.2713 62.3659H75.2713V66.7979H73.9433V63.4539H65.2713V62.3659ZM69.7033 52.3019H71.0153V54.3179H69.7033V52.3019ZM69.6393 54.4939H70.8073V54.7339C70.8073 57.1179 68.1673 58.5099 65.0153 58.8459L64.5993 57.8379C67.3993 57.5819 69.6393 56.3979 69.6393 54.7339V54.4939ZM69.9113 54.4939H71.0793V54.7339C71.0793 56.3979 73.3193 57.5819 76.1193 57.8379L75.7033 58.8459C72.5353 58.5099 69.9113 57.1179 69.9113 54.7339V54.4939ZM65.1593 53.7899H75.5593V54.8619H65.1593V53.7899ZM89.542 52.3819H90.822V66.8459H89.542V52.3819ZM84.278 57.5659H87.046V58.6699H84.278V57.5659ZM86.646 52.7179H87.894V66.1099H86.646V52.7179ZM81.494 54.6219H82.518V56.4619C82.518 59.6299 81.302 62.6219 79.174 63.9659L78.358 62.9739C80.374 61.7579 81.494 59.1179 81.494 56.4619V54.6219ZM81.766 54.6219H82.79V56.4619C82.79 58.9739 83.878 61.4859 85.862 62.6379L85.046 63.6139C82.934 62.3339 81.766 59.4859 81.766 56.4619V54.6219ZM78.758 54.0619H85.366V55.1659H78.758V54.0619ZM95.2208 54.1739L94.9008 58.3019H93.8288L93.5088 54.1739H95.2208ZM106.842 52.3659H108.186V66.8459H106.842V52.3659ZM107.818 58.2379H110.49V59.3419H107.818V58.2379ZM103.146 53.9339H104.442C104.442 58.0459 102.554 61.7579 97.8816 64.1099L97.1456 63.0859C101.146 61.0539 103.146 57.9659 103.146 54.1419V53.9339ZM97.8176 53.9339H103.834V55.0219H97.8176V53.9339ZM126.917 52.3819H128.197V66.8459H126.917V52.3819ZM124.581 58.1899H127.349V59.2779H124.581V58.1899ZM120.837 54.2379H122.117C122.117 57.9659 120.837 61.4219 116.709 63.7419L115.925 62.7979C119.557 60.7659 120.837 57.8379 120.837 54.4939V54.2379ZM116.485 54.2379H121.285V55.3419H116.485V54.2379ZM123.701 52.7659H124.965V66.1419H123.701V52.7659ZM134.787 60.0299H136.131V63.1659H134.787V60.0299ZM134.787 54.9419H135.859V55.2619C135.859 57.7899 134.211 59.7419 131.779 60.5099L131.171 59.4699C133.315 58.8299 134.787 57.2139 134.787 55.2619V54.9419ZM135.043 54.9419H136.115V55.2619C136.115 57.1339 137.635 58.7019 139.763 59.3259L139.155 60.3499C136.723 59.6299 135.043 57.7099 135.043 55.2619V54.9419ZM131.507 54.2699H139.459V55.3419H131.507V54.2699ZM134.787 52.4779H136.131V54.7339H134.787V52.4779ZM141.107 52.3659H142.435V66.8619H141.107V52.3659ZM130.915 63.8859L130.723 62.7659C133.363 62.7659 137.011 62.7499 140.163 62.2699L140.275 63.2459C137.027 63.8539 133.491 63.8699 130.915 63.8859ZM146.754 56.1739H153.698V57.1979H146.754V56.1739ZM146.754 52.9899H153.538V54.0299H148.114V56.6379H146.754V52.9899ZM149.522 56.7499H150.85V59.1659H149.522V56.7499ZM155.906 52.3819H157.234V60.1579H155.906V52.3819ZM145.634 59.8219L145.458 58.7659C148.258 58.7499 151.794 58.6859 154.786 58.3499L154.866 59.2779C151.794 59.7259 148.354 59.8219 145.634 59.8219ZM147.698 60.8139H157.234V64.1899H149.026V66.0459H147.714V63.1819H155.938V61.8699H147.698V60.8139ZM147.714 65.6299H157.73V66.6859H147.714V65.6299ZM170.013 55.8699H172.829V56.9739H170.013V55.8699ZM170.013 60.2699H172.829V61.3739H170.013V60.2699ZM175.261 52.3819H176.541V66.8459H175.261V52.3819ZM172.429 52.6859H173.677V66.1259H172.429V52.6859ZM167.501 53.5819C169.373 53.5819 170.589 55.5179 170.589 58.6219C170.589 61.7259 169.373 63.6619 167.501 63.6619C165.629 63.6619 164.429 61.7259 164.429 58.6219C164.429 55.5179 165.629 53.5819 167.501 53.5819ZM167.501 54.8139C166.365 54.8139 165.629 56.2859 165.629 58.6219C165.629 60.9579 166.365 62.4299 167.501 62.4299C168.653 62.4299 169.373 60.9579 169.373 58.6219C169.373 56.2859 168.653 54.8139 167.501 54.8139ZM186.684 56.1259H189.948V57.2299H186.684V56.1259ZM189.532 52.3819H190.86V61.0059H189.532V52.3819ZM186.108 61.4379C189.084 61.4379 190.924 62.4459 190.924 64.1419C190.924 65.8539 189.084 66.8299 186.108 66.8299C183.116 66.8299 181.276 65.8539 181.276 64.1419C181.276 62.4459 183.116 61.4379 186.108 61.4379ZM186.108 62.4779C183.932 62.4779 182.604 63.0859 182.604 64.1419C182.604 65.1819 183.932 65.7899 186.108 65.7899C188.284 65.7899 189.612 65.1819 189.612 64.1419C189.612 63.0859 188.284 62.4779 186.108 62.4779ZM182.652 53.8379H183.74V55.0059C183.74 57.6779 182.108 59.9659 179.708 60.8619L179.02 59.8059C181.164 59.0219 182.652 57.0859 182.652 55.0059V53.8379ZM182.908 53.8379H183.98V55.0059C183.98 56.8779 185.388 58.6699 187.484 59.4059L186.812 60.4619C184.46 59.6139 182.908 57.4379 182.908 55.0059V53.8379ZM179.42 53.4379H187.148V54.5259H179.42V53.4379ZM204.203 52.3819H205.547V60.1419H204.203V52.3819ZM196.219 60.8619H197.531V62.6219H204.235V60.8619H205.547V66.6539H196.219V60.8619ZM197.531 63.6779V65.5819H204.235V63.6779H197.531ZM197.787 53.0699C199.979 53.0699 201.547 54.4299 201.547 56.3979C201.547 58.3819 199.979 59.7419 197.787 59.7419C195.595 59.7419 194.011 58.3819 194.011 56.3979C194.011 54.4299 195.595 53.0699 197.787 53.0699ZM197.787 54.1739C196.347 54.1739 195.307 55.0859 195.307 56.3979C195.307 57.7099 196.347 58.6219 197.787 58.6219C199.227 58.6219 200.267 57.7099 200.267 56.3979C200.267 55.0859 199.227 54.1739 197.787 54.1739ZM218.921 52.3819H220.249V66.8459H218.921V52.3819ZM209.321 53.7899H210.633V62.7499H209.321V53.7899ZM209.321 61.9659H210.505C212.697 61.9659 214.985 61.8059 217.433 61.2939L217.593 62.4299C215.081 62.9419 212.793 63.1179 210.505 63.1179H209.321V61.9659ZM10.576 78.3659H11.92V92.8619H10.576V78.3659ZM11.6 84.0779H14.288V85.1979H11.6V84.0779ZM1.408 88.1419H2.544C5.216 88.1419 7.088 88.0459 9.248 87.6459L9.392 88.7659C7.168 89.1819 5.264 89.2619 2.544 89.2619H1.408V88.1419ZM1.408 79.7739H8.128V80.8619H2.72V88.6379H1.408V79.7739ZM15.8068 90.6539C15.8068 90.2379 15.9134 89.9446 16.1268 89.7739C16.3401 89.6032 16.5961 89.5179 16.8948 89.5179C17.2041 89.5179 17.4654 89.6032 17.6788 89.7739C17.8921 89.9446 17.9988 90.2379 17.9988 90.6539C17.9988 91.0699 17.8921 91.3686 17.6788 91.5499C17.4654 91.7312 17.2041 91.8219 16.8948 91.8219C16.5961 91.8219 16.3401 91.7312 16.1268 91.5499C15.9134 91.3686 15.8068 91.0699 15.8068 90.6539ZM34.866 80.5419H37.378V81.6459H34.866V80.5419ZM34.866 83.6139H37.378V84.7179H34.866V83.6139ZM28.082 79.2299C30.258 79.2299 31.858 80.6379 31.858 82.6539C31.858 84.6539 30.258 86.0459 28.082 86.0459C25.906 86.0459 24.306 84.6539 24.306 82.6539C24.306 80.6379 25.906 79.2299 28.082 79.2299ZM28.082 80.3499C26.642 80.3499 25.602 81.2939 25.602 82.6539C25.602 84.0139 26.642 84.9419 28.082 84.9419C29.522 84.9419 30.562 84.0139 30.562 82.6539C30.562 81.2939 29.522 80.3499 28.082 80.3499ZM33.938 78.3819H35.266V86.9419H33.938V78.3819ZM30.658 87.4059C33.602 87.4059 35.41 88.4139 35.41 90.1099C35.41 91.8219 33.602 92.8139 30.658 92.8139C27.714 92.8139 25.906 91.8219 25.906 90.1099C25.906 88.4139 27.714 87.4059 30.658 87.4059ZM30.658 88.4779C28.514 88.4779 27.202 89.0699 27.202 90.1099C27.202 91.1499 28.514 91.7579 30.658 91.7579C32.802 91.7579 34.114 91.1499 34.114 90.1099C34.114 89.0699 32.802 88.4779 30.658 88.4779ZM38.7688 89.8859H51.8728V90.9899H38.7688V89.8859ZM44.6568 86.3819H45.9688V90.2539H44.6568V86.3819ZM44.6248 80.2059H45.7448V81.1019C45.7448 84.0619 42.7848 86.3019 39.9368 86.8939L39.3928 85.8379C41.8888 85.4219 44.6248 83.3899 44.6248 81.1019V80.2059ZM44.8648 80.2059H45.9848V81.1019C45.9848 83.3899 48.7368 85.3739 51.2648 85.7899L50.7368 86.8459C47.8408 86.2699 44.8648 84.0619 44.8648 81.1019V80.2059ZM39.8408 79.6939H50.7688V80.7819H39.8408V79.6939ZM57.0395 79.9339H58.1275V81.1019C58.1275 83.7579 56.5275 85.9819 54.0955 86.8619L53.4235 85.8059C55.5995 85.0379 57.0395 83.1659 57.0395 81.1019V79.9339ZM57.2795 79.9339H58.3675V81.0859C58.3675 82.9739 59.7435 84.6699 61.8715 85.3739L61.2315 86.4139C58.8155 85.6139 57.2795 83.5499 57.2795 81.0859V79.9339ZM53.8235 79.4539H61.5515V80.5419H53.8235V79.4539ZM63.3755 78.3819H64.7035V87.1019H63.3755V78.3819ZM64.3355 82.0459H66.8475V83.1659H64.3355V82.0459ZM60.0955 87.4859C63.0395 87.4859 64.8475 88.4619 64.8475 90.1419C64.8475 91.8379 63.0395 92.8139 60.0955 92.8139C57.1515 92.8139 55.3435 91.8379 55.3435 90.1419C55.3435 88.4619 57.1515 87.4859 60.0955 87.4859ZM60.0955 88.5579C57.9515 88.5579 56.6395 89.1339 56.6395 90.1419C56.6395 91.1659 57.9515 91.7739 60.0955 91.7739C62.2395 91.7739 63.5515 91.1659 63.5515 90.1419C63.5515 89.1339 62.2395 88.5579 60.0955 88.5579ZM70.6223 89.9179C70.5263 90.2912 70.4036 90.6966 70.2543 91.1339C70.1049 91.5712 69.9449 92.0032 69.7743 92.4299C69.6036 92.8672 69.4276 93.2779 69.2463 93.6619H68.0143C68.1209 93.2459 68.2223 92.8032 68.3183 92.3339C68.4249 91.8752 68.5209 91.4219 68.6063 90.9739C68.6916 90.5259 68.7609 90.1152 68.8143 89.7419H70.5103L70.6223 89.9179ZM84.4015 82.3659H88.0495V83.4539H84.4015V82.3659ZM87.2975 78.3979H88.6255V88.9899H87.2975V78.3979ZM79.3935 91.4379H89.0255V92.5259H79.3935V91.4379ZM79.3935 88.0619H80.7215V91.9979H79.3935V88.0619ZM80.4175 80.1899H81.5055V81.3579C81.5055 83.9819 79.8735 86.2539 77.4575 87.1499L76.7695 86.0939C78.9295 85.3259 80.4175 83.4059 80.4175 81.3579V80.1899ZM80.6735 80.1899H81.7455V81.3419C81.7455 83.2139 83.1535 85.0379 85.2495 85.7739L84.5775 86.8139C82.2255 85.9659 80.6735 83.7899 80.6735 81.3419V80.1899ZM77.1855 79.5659H84.9135V80.6379H77.1855V79.5659ZM91.4403 86.0459H104.512V87.1179H91.4403V86.0459ZM97.3123 84.1739H98.6243V86.4939H97.3123V84.1739ZM93.1683 83.5819H102.976V84.6219H93.1683V83.5819ZM93.1683 78.7979H102.912V79.8379H94.4803V84.1419H93.1683V78.7979ZM94.0963 81.1659H102.528V82.1899H94.0963V81.1659ZM97.9683 88.1899C101.12 88.1899 102.928 88.9899 102.928 90.5099C102.928 92.0139 101.12 92.8139 97.9683 92.8139C94.8163 92.8139 93.0082 92.0139 93.0082 90.5099C93.0082 88.9899 94.8163 88.1899 97.9683 88.1899ZM97.9683 89.1979C95.6483 89.1979 94.3523 89.6619 94.3523 90.5099C94.3523 91.3739 95.6483 91.8219 97.9683 91.8219C100.288 91.8219 101.584 91.3739 101.584 90.5099C101.584 89.6619 100.288 89.1979 97.9683 89.1979ZM111.967 79.8059H113.119V80.4139C113.119 83.0059 110.367 84.9099 107.455 85.4059L106.943 84.3499C109.487 83.9819 111.967 82.3179 111.967 80.4139V79.8059ZM112.303 79.8059H113.439V80.4139C113.439 82.3179 115.935 83.9819 118.463 84.3499L117.967 85.4059C115.039 84.9099 112.303 83.0059 112.303 80.4139V79.8059ZM112.015 87.3259H113.327V92.8459H112.015V87.3259ZM106.175 86.6219H119.247V87.7099H106.175V86.6219ZM107.391 79.2779H117.983V80.3499H107.391V79.2779ZM132.714 82.3659H136.362V83.4539H132.714V82.3659ZM135.61 78.3979H136.938V88.9899H135.61V78.3979ZM127.706 91.4379H137.338V92.5259H127.706V91.4379ZM127.706 88.0619H129.034V91.9979H127.706V88.0619ZM128.73 80.1899H129.818V81.3579C129.818 83.9819 128.186 86.2539 125.77 87.1499L125.082 86.0939C127.242 85.3259 128.73 83.4059 128.73 81.3579V80.1899ZM128.986 80.1899H130.058V81.3419C130.058 83.2139 131.466 85.0379 133.562 85.7739L132.89 86.8139C130.538 85.9659 128.986 83.7899 128.986 81.3419V80.1899ZM125.498 79.5659H133.226V80.6379H125.498V79.5659ZM139.753 85.7739H152.857V86.8619H139.753V85.7739ZM145.737 86.4459H147.065V89.7739H145.737V86.4459ZM141.433 79.0539H151.161V84.1419H141.433V79.0539ZM149.849 80.1259H142.729V83.0699H149.849V80.1259ZM141.417 91.4379H151.401V92.5259H141.417V91.4379ZM141.417 88.3819H142.729V91.8219H141.417V88.3819ZM160.28 79.8059H161.432V80.4139C161.432 83.0059 158.68 84.9099 155.768 85.4059L155.256 84.3499C157.799 83.9819 160.28 82.3179 160.28 80.4139V79.8059ZM160.616 79.8059H161.752V80.4139C161.752 82.3179 164.248 83.9819 166.776 84.3499L166.28 85.4059C163.352 84.9099 160.616 83.0059 160.616 80.4139V79.8059ZM160.328 87.3259H161.64V92.8459H160.328V87.3259ZM154.488 86.6219H167.56V87.7099H154.488V86.6219ZM155.704 79.2779H166.296V80.3499H155.704V79.2779ZM176.918 81.9979H180.134V83.1019H176.918V81.9979ZM179.766 78.3819H181.094V86.8459H179.766V78.3819ZM171.718 87.5499H181.094V92.6539H171.718V87.5499ZM179.798 88.6059H173.014V91.5819H179.798V88.6059ZM172.886 79.7579H173.974V80.9259C173.974 83.5659 172.342 85.8219 169.926 86.7179L169.238 85.6619C171.398 84.8939 172.886 82.9739 172.886 80.9259V79.7579ZM173.142 79.7579H174.214V80.9099C174.214 82.7819 175.622 84.5899 177.718 85.3259L177.046 86.3819C174.694 85.5339 173.142 83.3419 173.142 80.9099V79.7579ZM169.654 79.3099H177.382V80.3819H169.654V79.3099ZM186.341 89.9179C186.245 90.2912 186.122 90.6966 185.973 91.1339C185.824 91.5712 185.664 92.0032 185.493 92.4299C185.322 92.8672 185.146 93.2779 184.965 93.6619H183.733C183.84 93.2459 183.941 92.8032 184.037 92.3339C184.144 91.8752 184.24 91.4219 184.325 90.9739C184.41 90.5259 184.48 90.1152 184.533 89.7419H186.229L186.341 89.9179ZM202.232 78.3819H203.576V92.8459H202.232V78.3819ZM203.256 84.0619H205.944V85.1979H203.256V84.0619ZM193.016 79.5979H194.328V83.4219H198.456V79.5979H199.768V89.3739H193.016V79.5979ZM194.328 84.4779V88.2859H198.456V84.4779H194.328ZM208.887 83.0219H218.695V83.9819H208.887V83.0219ZM208.887 78.7499H218.631V79.7099H210.199V83.4699H208.887V78.7499ZM209.815 80.8619H218.247V81.7899H209.815V80.8619ZM207.175 85.0539H220.231V86.0779H207.175V85.0539ZM208.743 87.1819H218.567V90.3499H210.087V92.1419H208.775V89.4059H217.255V88.1579H208.743V87.1819ZM208.775 91.7099H218.999V92.6859H208.775V91.7099ZM11.616 106.318H14.128V107.406H11.616V106.318ZM11.616 109.214H14.128V110.318H11.616V109.214ZM4.352 105.022H5.44V106.414C5.44 109.166 3.856 111.374 1.44 112.286L0.736 111.246C2.928 110.478 4.352 108.574 4.352 106.414V105.022ZM4.592 105.022H5.664V106.398C5.664 108.35 7.12 110.158 9.2 110.894L8.496 111.918C6.176 111.07 4.592 108.926 4.592 106.398V105.022ZM10.688 104.382H12.016V112.318H10.688V104.382ZM2.896 113.022H4.208V114.75H10.704V113.022H12.016V118.654H2.896V113.022ZM4.208 115.79V117.566H10.704V115.79H4.208ZM17.9348 115.918C17.8388 116.291 17.7161 116.697 17.5668 117.134C17.4174 117.571 17.2574 118.003 17.0868 118.43C16.9161 118.867 16.7401 119.278 16.5588 119.662H15.3268C15.4334 119.246 15.5348 118.803 15.6308 118.334C15.7374 117.875 15.8334 117.422 15.9188 116.974C16.0041 116.526 16.0734 116.115 16.1268 115.742H17.8228L17.9348 115.918ZM31.714 108.366H35.362V109.454H31.714V108.366ZM34.61 104.398H35.938V114.99H34.61V104.398ZM26.706 117.438H36.338V118.526H26.706V117.438ZM26.706 114.062H28.034V117.998H26.706V114.062ZM27.73 106.19H28.818V107.358C28.818 109.982 27.186 112.254 24.77 113.15L24.082 112.094C26.242 111.326 27.73 109.406 27.73 107.358V106.19ZM27.986 106.19H29.058V107.342C29.058 109.214 30.466 111.038 32.562 111.774L31.89 112.814C29.538 111.966 27.986 109.79 27.986 107.342V106.19ZM24.498 105.566H32.226V106.638H24.498V105.566ZM38.7528 112.046H51.8248V113.118H38.7528V112.046ZM44.6248 110.174H45.9368V112.494H44.6248V110.174ZM40.4808 109.582H50.2888V110.622H40.4808V109.582ZM40.4808 104.798H50.2248V105.838H41.7928V110.142H40.4808V104.798ZM41.4088 107.166H49.8408V108.19H41.4088V107.166ZM45.2808 114.19C48.4328 114.19 50.2408 114.99 50.2408 116.51C50.2408 118.014 48.4328 118.814 45.2808 118.814C42.1288 118.814 40.3207 118.014 40.3207 116.51C40.3207 114.99 42.1288 114.19 45.2808 114.19ZM45.2808 115.198C42.9608 115.198 41.6648 115.662 41.6648 116.51C41.6648 117.374 42.9608 117.822 45.2808 117.822C47.6008 117.822 48.8968 117.374 48.8968 116.51C48.8968 115.662 47.6008 115.198 45.2808 115.198ZM59.2795 105.806H60.4315V106.414C60.4315 109.006 57.6795 110.91 54.7675 111.406L54.2555 110.35C56.7995 109.982 59.2795 108.318 59.2795 106.414V105.806ZM59.6155 105.806H60.7515V106.414C60.7515 108.318 63.2475 109.982 65.7755 110.35L65.2795 111.406C62.3515 110.91 59.6155 109.006 59.6155 106.414V105.806ZM59.3275 113.326H60.6395V118.846H59.3275V113.326ZM53.4875 112.622H66.5595V113.71H53.4875V112.622ZM54.7035 105.278H65.2955V106.35H54.7035V105.278ZM73.1305 105.502H79.5305V106.59H73.1305V105.502ZM75.3065 108.734H76.6185V112.35H75.3065V108.734ZM79.0025 105.502H80.3145V106.27C80.3145 107.214 80.3145 108.654 79.9305 110.558L78.6345 110.414C79.0025 108.51 79.0025 107.198 79.0025 106.27V105.502ZM82.2825 104.382H83.6105V115.278H82.2825V104.382ZM83.0025 109.086H85.6745V110.19H83.0025V109.086ZM74.4745 117.438H84.0745V118.526H74.4745V117.438ZM74.4745 114.27H75.7865V117.774H74.4745V114.27ZM72.3945 112.974L72.2505 111.886C74.8265 111.886 78.3785 111.822 81.3065 111.422L81.4025 112.382C78.3945 112.91 74.9385 112.974 72.3945 112.974ZM87.6733 111.998H88.7133C91.4493 111.998 92.9213 111.95 94.7292 111.63L94.8573 112.718C93.0173 113.038 91.4973 113.102 88.7133 113.102H87.6733V111.998ZM87.6413 105.406H93.8653V109.646H88.9853V112.654H87.6733V108.59H92.5533V106.478H87.6413V105.406ZM97.6413 104.398H98.9693V115.038H97.6413V104.398ZM94.8413 106.814H97.9613V107.886H94.8413V106.814ZM89.6253 117.374H99.4173V118.462H89.6253V117.374ZM89.6253 114.254H90.9373V117.854H89.6253V114.254ZM94.8413 110.062H97.9613V111.15H94.8413V110.062ZM113.172 109.278H117.204V110.366H113.172V109.278ZM109.684 105.63H110.772V108.206C110.772 111.454 109.06 114.558 106.772 115.79L105.924 114.734C108.052 113.678 109.684 110.894 109.684 108.206V105.63ZM109.94 105.63H111.012V108.206C111.012 110.846 112.644 113.47 114.74 114.462L113.956 115.534C111.62 114.35 109.94 111.374 109.94 108.206V105.63ZM116.548 104.366H117.86V118.862H116.548V104.366ZM131.171 104.366H132.499V118.862H131.171V104.366ZM121.491 105.598H122.803V109.422H126.979V105.598H128.307V115.374H121.491V105.598ZM122.803 110.478V114.286H126.979V110.478H122.803ZM141.186 105.374H142.338V106.478C142.338 109.63 139.41 112.078 136.514 112.734L135.922 111.63C138.466 111.15 141.186 108.942 141.186 106.478V105.374ZM141.426 105.374H142.578V106.478C142.578 108.958 145.314 111.15 147.842 111.63L147.25 112.734C144.37 112.078 141.426 109.646 141.426 106.478V105.374ZM135.394 115.806H148.498V116.894H135.394V115.806ZM161.533 107.822H165.421V108.926H161.533V107.822ZM158.205 105.038C160.365 105.038 161.933 106.414 161.933 108.398C161.933 110.382 160.365 111.742 158.205 111.742C156.045 111.742 154.477 110.382 154.477 108.398C154.477 106.414 156.045 105.038 158.205 105.038ZM158.205 106.158C156.781 106.158 155.757 107.07 155.757 108.398C155.757 109.71 156.781 110.638 158.205 110.638C159.629 110.638 160.653 109.71 160.653 108.398C160.653 107.07 159.629 106.158 158.205 106.158ZM164.829 104.382H166.157V112.142H164.829V104.382ZM156.893 112.862H158.221V114.686H164.845V112.862H166.157V118.654H156.893V112.862ZM158.221 115.742V117.582H164.845V115.742H158.221ZM174.876 110.094H177.612V111.182H174.876V110.094ZM171.932 108.078H172.956V108.83C172.956 111.71 171.756 114.622 169.644 115.886L168.86 114.878C170.812 113.742 171.932 111.198 171.932 108.83V108.078ZM172.172 108.078H173.196V108.83C173.196 111.134 174.348 113.518 176.3 114.574L175.548 115.566C173.42 114.382 172.172 111.646 172.172 108.83V108.078ZM169.26 107.038H175.868V108.142H169.26V107.038ZM171.932 104.894H173.212V107.886H171.932V104.894ZM179.98 104.382H181.26V118.846H179.98V104.382ZM177.084 104.718H178.332V118.11H177.084V104.718ZM186.122 115.918C186.026 116.291 185.904 116.697 185.754 117.134C185.605 117.571 185.445 118.003 185.274 118.43C185.104 118.867 184.928 119.278 184.746 119.662H183.514C183.621 119.246 183.722 118.803 183.818 118.334C183.925 117.875 184.021 117.422 184.106 116.974C184.192 116.526 184.261 116.115 184.314 115.742H186.01L186.122 115.918ZM193.006 105.502H199.406V106.59H193.006V105.502ZM195.182 108.734H196.494V112.35H195.182V108.734ZM198.878 105.502H200.19V106.27C200.19 107.214 200.19 108.654 199.806 110.558L198.51 110.414C198.878 108.51 198.878 107.198 198.878 106.27V105.502ZM202.158 104.382H203.486V115.278H202.158V104.382ZM202.878 109.086H205.55V110.19H202.878V109.086ZM194.35 117.438H203.95V118.526H194.35V117.438ZM194.35 114.27H195.661V117.774H194.35V114.27ZM192.27 112.974L192.126 111.886C194.702 111.886 198.254 111.822 201.182 111.422L201.278 112.382C198.27 112.91 194.814 112.974 192.27 112.974ZM207.548 111.998H208.588C211.324 111.998 212.796 111.95 214.604 111.63L214.732 112.718C212.892 113.038 211.372 113.102 208.588 113.102H207.548V111.998ZM207.516 105.406H213.74V109.646H208.86V112.654H207.548V108.59H212.428V106.478H207.516V105.406ZM217.516 104.398H218.844V115.038H217.516V104.398ZM214.716 106.814H217.836V107.886H214.716V106.814ZM209.5 117.374H219.292V118.462H209.5V117.374ZM209.5 114.254H210.812V117.854H209.5V114.254ZM214.716 110.062H217.836V111.15H214.716V110.062ZM11.328 130.382H12.656V144.846H11.328V130.382ZM7.088 131.934H8.4C8.4 136.126 6.512 139.79 1.68 142.158L0.976 141.086C5.152 139.07 7.088 135.998 7.088 132.158V131.934ZM1.632 131.934H7.664V133.022H1.632V131.934ZM19.0868 132.446H20.1428V134.798C20.1428 137.806 18.3028 140.91 16.0468 142.062L15.2788 141.006C17.3428 139.998 19.0868 137.246 19.0868 134.798V132.446ZM19.3268 132.446H20.3828V134.798C20.3828 137.086 22.0148 139.662 24.1108 140.654L23.3588 141.71C21.0708 140.574 19.3268 137.662 19.3268 134.798V132.446ZM15.7908 131.854H23.5828V132.974H15.7908V131.854ZM25.2948 130.382H26.6388V144.846H25.2948V130.382ZM26.3188 136.222H29.0068V137.342H26.3188V136.222ZM41.2935 130.382H42.5575V144.846H41.2935V130.382ZM39.0055 136.206H41.7895V137.326H39.0055V136.206ZM38.1415 130.686H39.3895V144.126H38.1415V130.686ZM33.2135 132.622H34.2535V134.286C34.2535 137.758 33.1175 140.542 30.8935 141.87L30.0775 140.846C32.1575 139.694 33.2135 137.23 33.2135 134.286V132.622ZM33.4535 132.622H34.4935V134.286C34.4935 136.942 35.5655 139.294 37.5975 140.334L36.8135 141.358C34.6055 140.142 33.4535 137.47 33.4535 134.286V132.622ZM30.4135 132.078H37.1335V133.182H30.4135V132.078ZM56.3765 133.822H60.2645V134.926H56.3765V133.822ZM53.0485 131.038C55.2085 131.038 56.7765 132.414 56.7765 134.398C56.7765 136.382 55.2085 137.742 53.0485 137.742C50.8885 137.742 49.3205 136.382 49.3205 134.398C49.3205 132.414 50.8885 131.038 53.0485 131.038ZM53.0485 132.158C51.6245 132.158 50.6005 133.07 50.6005 134.398C50.6005 135.71 51.6245 136.638 53.0485 136.638C54.4725 136.638 55.4965 135.71 55.4965 134.398C55.4965 133.07 54.4725 132.158 53.0485 132.158ZM59.6725 130.382H61.0005V138.142H59.6725V130.382ZM51.7365 138.862H53.0645V140.686H59.6885V138.862H61.0005V144.654H51.7365V138.862ZM53.0645 141.742V143.582H59.6885V141.742H53.0645ZM69.7193 136.094H72.4553V137.182H69.7193V136.094ZM66.7753 134.078H67.7993V134.83C67.7993 137.71 66.5993 140.622 64.4873 141.886L63.7033 140.878C65.6553 139.742 66.7753 137.198 66.7753 134.83V134.078ZM67.0153 134.078H68.0393V134.83C68.0393 137.134 69.1913 139.518 71.1433 140.574L70.3913 141.566C68.2633 140.382 67.0153 137.646 67.0153 134.83V134.078ZM64.1033 133.038H70.7113V134.142H64.1033V133.038ZM66.7753 130.894H68.0553V133.886H66.7753V130.894ZM74.8233 130.382H76.1033V144.846H74.8233V130.382ZM71.9273 130.718H73.1753V144.11H71.9273V130.718ZM82.7063 137.262H95.7783V138.366H82.7063V137.262ZM84.3543 134.814H94.2583V135.886H84.3543V134.814ZM84.3543 130.958H94.1463V132.046H85.6663V135.326H84.3543V130.958ZM89.2183 139.614C92.3063 139.614 94.1783 140.558 94.1783 142.222C94.1783 143.886 92.3063 144.814 89.2183 144.814C86.1302 144.814 84.2582 143.886 84.2582 142.222C84.2582 140.558 86.1302 139.614 89.2183 139.614ZM89.2183 140.638C86.9623 140.638 85.6023 141.214 85.6023 142.222C85.6023 143.214 86.9623 143.774 89.2183 143.774C91.4903 143.774 92.8343 143.214 92.8343 142.222C92.8343 141.214 91.4903 140.638 89.2183 140.638Z" fill="black"/>
</svg>