<svg width="51" height="24" viewBox="0 0 51 24" fill="none" xmlns="http://www.w3.org/2000/svg">
<path d="M8.24 19.336C3.512 19.336 0.296 15.832 0.296 10.048C0.296 4.264 3.512 0.927999 8.24 0.927999C12.944 0.927999 16.16 4.288 16.16 10.048C16.16 15.832 12.944 19.336 8.24 19.336ZM8.24 16.432C10.88 16.432 12.56 14.056 12.56 10.048C12.56 6.256 10.88 3.976 8.24 3.976C5.576 3.976 3.92 6.256 3.92 10.048C3.92 14.056 5.576 16.432 8.24 16.432ZM13.976 23.824C10.208 23.824 7.616 21.736 6.488 18.904L10.088 18.544C10.76 20.272 12.584 20.992 14.36 20.992C15.152 20.992 15.8 20.872 16.328 20.68L16.976 23.296C16.328 23.608 15.272 23.824 13.976 23.824ZM23.9728 19.336C20.2768 19.336 18.1888 17.056 18.1888 14.296C18.1888 8.656 26.4448 8.368 26.4448 4.816C26.4448 3.928 26.0128 3.256 25.1008 3.256C24.0688 3.256 23.3248 4.12 23.3248 5.416C23.3248 8.368 27.1168 12.376 30.6927 14.656C32.1328 15.592 33.5488 16.24 34.7248 16.48L33.8608 19.336C32.1808 19 30.3568 18.136 28.5568 16.936C24.2608 13.936 20.3968 9.04 20.3968 5.416C20.3968 2.944 22.2208 0.927999 25.0288 0.927999C27.5728 0.927999 29.1568 2.464 29.1568 4.792C29.1568 9.472 21.5488 10.672 21.5488 14.08C21.5488 15.616 22.7248 16.624 24.4048 16.624C25.7248 16.624 27.0448 15.904 28.2208 14.752C29.6128 13.312 30.7408 11.416 31.3648 9.088H34.5808C33.7888 11.776 32.5168 14.2 30.6208 16.336C29.0128 18.136 26.8048 19.336 23.9728 19.336ZM35.1384 19L40.8264 1.24H45.0024L50.6904 19H46.9704L44.4264 9.76C43.8984 7.912 43.3944 5.848 42.8904 3.952H42.7944C42.3144 5.872 41.8104 7.912 41.2824 9.76L38.7384 19H35.1384ZM38.6664 14.44V11.704H47.1144V14.44H38.6664Z" fill="black"/>
</svg>