<svg width="168" height="42" viewBox="0 0 168 42" fill="none" xmlns="http://www.w3.org/2000/svg">
<path d="M9.054 15.3899H0.684V13.7159L3.726 10.4039C4.338 9.74389 4.83 9.17989 5.202 8.71189C5.574 8.23189 5.844 7.78789 6.012 7.37989C6.192 6.97189 6.282 6.52789 6.282 6.04789C6.282 5.45989 6.132 5.02189 5.832 4.73389C5.544 4.43389 5.16 4.28389 4.68 4.28389C4.2 4.28389 3.744 4.39789 3.312 4.62589C2.892 4.84189 2.448 5.15389 1.98 5.56189L0.666 4.06789C1.014 3.75589 1.38 3.47389 1.764 3.22189C2.148 2.95789 2.592 2.74789 3.096 2.59189C3.612 2.43589 4.206 2.35789 4.878 2.35789C5.658 2.35789 6.33 2.50789 6.894 2.80789C7.47 3.09589 7.914 3.49789 8.226 4.01389C8.538 4.52989 8.694 5.12989 8.694 5.81389C8.694 6.34189 8.616 6.82789 8.46 7.27189C8.316 7.71589 8.1 8.15389 7.812 8.58589C7.524 9.01789 7.182 9.46189 6.786 9.91789C6.39 10.3739 5.946 10.8719 5.454 11.4119L3.708 13.3199V13.4279H9.054V15.3899ZM18.7923 8.94589C18.7923 9.98989 18.7203 10.9199 18.5763 11.7359C18.4323 12.5519 18.1863 13.2479 17.8383 13.8239C17.5023 14.3879 17.0643 14.8199 16.5243 15.1199C15.9963 15.4199 15.3483 15.5699 14.5803 15.5699C13.6323 15.5699 12.8463 15.3059 12.2223 14.7779C11.6103 14.2499 11.1543 13.4939 10.8543 12.5099C10.5663 11.5139 10.4223 10.3259 10.4223 8.94589C10.4223 7.56589 10.5543 6.38389 10.8183 5.39989C11.0943 4.41589 11.5383 3.65989 12.1503 3.13189C12.7623 2.60389 13.5783 2.33989 14.5983 2.33989C15.5583 2.33989 16.3443 2.60389 16.9563 3.13189C17.5803 3.64789 18.0423 4.40389 18.3423 5.39989C18.6423 6.38389 18.7923 7.56589 18.7923 8.94589ZM12.8163 8.96389C12.8163 10.0079 12.8703 10.8839 12.9783 11.5919C13.0863 12.2879 13.2723 12.8159 13.5363 13.1759C13.8003 13.5239 14.1543 13.6979 14.5983 13.6979C15.0423 13.6979 15.3903 13.5239 15.6423 13.1759C15.9063 12.8279 16.0983 12.2999 16.2183 11.5919C16.3383 10.8839 16.3983 10.0079 16.3983 8.96389C16.3983 7.90789 16.3383 7.03189 16.2183 6.33589C16.0983 5.62789 15.9063 5.09989 15.6423 4.75189C15.3903 4.39189 15.0423 4.21189 14.5983 4.21189C14.1543 4.21189 13.8003 4.39189 13.5363 4.75189C13.2723 5.09989 13.0863 5.62189 12.9783 6.31789C12.8703 7.01389 12.8163 7.89589 12.8163 8.96389ZM28.5306 15.3899H20.1606V13.7159L23.2026 10.4039C23.8146 9.74389 24.3066 9.17989 24.6786 8.71189C25.0506 8.23189 25.3206 7.78789 25.4886 7.37989C25.6686 6.97189 25.7586 6.52789 25.7586 6.04789C25.7586 5.45989 25.6086 5.02189 25.3086 4.73389C25.0206 4.43389 24.6366 4.28389 24.1566 4.28389C23.6766 4.28389 23.2206 4.39789 22.7886 4.62589C22.3686 4.84189 21.9246 5.15389 21.4566 5.56189L20.1426 4.06789C20.4906 3.75589 20.8566 3.47389 21.2406 3.22189C21.6246 2.95789 22.0686 2.74789 22.5726 2.59189C23.0886 2.43589 23.6826 2.35789 24.3546 2.35789C25.1346 2.35789 25.8066 2.50789 26.3706 2.80789C26.9466 3.09589 27.3906 3.49789 27.7026 4.01389C28.0146 4.52989 28.1706 5.12989 28.1706 5.81389C28.1706 6.34189 28.0926 6.82789 27.9366 7.27189C27.7926 7.71589 27.5766 8.15389 27.2886 8.58589C27.0006 9.01789 26.6586 9.46189 26.2626 9.91789C25.8666 10.3739 25.4226 10.8719 24.9306 11.4119L23.1846 13.3199V13.4279H28.5306V15.3899ZM37.8368 5.47189C37.8368 6.04789 37.7228 6.55189 37.4948 6.98389C37.2668 7.41589 36.9548 7.76989 36.5588 8.04589C36.1748 8.30989 35.7308 8.50189 35.2268 8.62189V8.67589C36.1988 8.79589 36.9308 9.11389 37.4228 9.62989C37.9268 10.1459 38.1788 10.8299 38.1788 11.6819C38.1788 12.4259 38.0108 13.0919 37.6748 13.6799C37.3388 14.2679 36.8108 14.7299 36.0908 15.0659C35.3828 15.4019 34.4648 15.5699 33.3368 15.5699C32.6528 15.5699 32.0348 15.5099 31.4828 15.3899C30.9308 15.2819 30.3968 15.1079 29.8808 14.8679V12.8699C30.4088 13.1459 30.9548 13.3559 31.5188 13.4999C32.0828 13.6439 32.6108 13.7159 33.1028 13.7159C34.0388 13.7159 34.6988 13.5299 35.0828 13.1579C35.4668 12.7739 35.6588 12.2459 35.6588 11.5739C35.6588 11.1419 35.5568 10.7879 35.3528 10.5119C35.1608 10.2359 34.8488 10.0319 34.4168 9.89989C33.9968 9.75589 33.4208 9.68389 32.6888 9.68389H31.7528V7.86589H32.7068C33.3788 7.86589 33.9128 7.78189 34.3088 7.61389C34.7168 7.44589 35.0108 7.21189 35.1908 6.91189C35.3708 6.61189 35.4608 6.26389 35.4608 5.86789C35.4608 5.35189 35.3048 4.94989 34.9928 4.66189C34.6928 4.37389 34.2548 4.22989 33.6788 4.22989C33.2948 4.22989 32.9348 4.27789 32.5988 4.37389C32.2628 4.46989 31.9628 4.59589 31.6988 4.75189C31.4348 4.89589 31.2008 5.05189 30.9968 5.21989L29.9168 3.65389C30.2288 3.41389 30.5768 3.19789 30.9608 3.00589C31.3568 2.80189 31.7948 2.64589 32.2748 2.53789C32.7548 2.41789 33.2948 2.35789 33.8948 2.35789C35.1548 2.35789 36.1268 2.63989 36.8108 3.20389C37.4948 3.75589 37.8368 4.51189 37.8368 5.47189ZM56.1097 0.323892H58.3777V16.9919H56.1097V0.323892ZM53.8777 6.73189H56.6497V8.65789H53.8777V6.73189ZM52.3837 0.611892H54.5977V16.1999H52.3837V0.611892ZM44.5357 11.2679H45.7057C47.7577 11.2679 49.4677 11.1959 51.4477 10.8359L51.6277 12.7799C49.6117 13.1759 47.8477 13.2299 45.7057 13.2299H44.5357V11.2679ZM44.5357 2.24989H50.6917V4.17589H46.9117V12.2039H44.5357V2.24989ZM71.3543 0.341892H73.7483V12.7979H71.3543V0.341892ZM73.0643 5.41789H75.9623V7.37989H73.0643V5.41789ZM60.6263 2.06989H70.4363V3.94189H60.6263V2.06989ZM65.5403 4.53589C67.9343 4.53589 69.6263 5.84989 69.6263 7.75789C69.6263 9.66589 67.9343 10.9619 65.5403 10.9619C63.1283 10.9619 61.4363 9.66589 61.4363 7.75789C61.4363 5.84989 63.1283 4.53589 65.5403 4.53589ZM65.5403 6.35389C64.4783 6.35389 63.7403 6.85789 63.7403 7.75789C63.7403 8.65789 64.4783 9.14389 65.5403 9.14389C66.6023 9.14389 67.3403 8.65789 67.3403 7.75789C67.3403 6.85789 66.6023 6.35389 65.5403 6.35389ZM64.3343 0.305892H66.7283V2.98789H64.3343V0.305892ZM63.0023 14.7959H74.3423V16.7039H63.0023V14.7959ZM63.0023 11.8619H65.3963V15.6239H63.0023V11.8619ZM78.0308 1.63789H86.1128V9.70189H78.0308V1.63789ZM83.7728 3.52789H80.3708V7.81189H83.7728V3.52789ZM88.6328 0.341892H91.0448V12.1859H88.6328V0.341892ZM79.9388 14.7239H91.4588V16.6499H79.9388V14.7239ZM79.9388 11.1059H82.3328V15.5699H79.9388V11.1059ZM95.5974 1.02589H106.163V2.93389H95.5974V1.02589ZM93.7614 6.78589H108.845V8.69389H93.7614V6.78589ZM100.079 8.13589H102.473V11.6279H100.079V8.13589ZM104.723 1.02589H107.081V2.35789C107.081 3.79789 107.081 5.47189 106.559 7.66789L104.201 7.43389C104.723 5.29189 104.723 3.76189 104.723 2.35789V1.02589ZM95.2734 11.0339H107.099V16.9919H104.705V12.9239H95.2734V11.0339ZM114.697 9.64789H129.799V11.5739H114.697V9.64789ZM120.997 10.8899H123.373V17.0099H120.997V10.8899ZM122.203 0.881892C125.767 0.881892 128.233 2.35789 128.233 4.64389C128.233 6.91189 125.767 8.36989 122.203 8.36989C118.657 8.36989 116.191 6.91189 116.191 4.64389C116.191 2.35789 118.657 0.881892 122.203 0.881892ZM122.203 2.78989C120.025 2.78989 118.639 3.43789 118.639 4.64389C118.639 5.83189 120.025 6.47989 122.203 6.47989C124.399 6.47989 125.767 5.83189 125.767 4.64389C125.767 3.43789 124.399 2.78989 122.203 2.78989ZM142.739 0.305892H145.133V17.0279H142.739V0.305892ZM132.155 11.1959H133.631C136.583 11.1959 138.941 11.0879 141.587 10.6379L141.821 12.5639C139.121 13.0499 136.673 13.1399 133.631 13.1399H132.155V11.1959ZM132.137 1.72789H140.003V8.17189H134.585V11.9159H132.155V6.28189H137.555V3.63589H132.137V1.72789ZM158.526 0.413892H160.542V0.719892C160.542 3.50989 158.04 5.70589 153.738 6.17389L152.946 4.37389C156.708 3.99589 158.526 2.33989 158.526 0.719892V0.413892ZM158.94 0.413892H160.974V0.719892C160.974 2.33989 162.792 3.99589 166.536 4.37389L165.744 6.17389C161.442 5.70589 158.94 3.50989 158.94 0.719892V0.413892ZM158.526 8.31589H160.92V10.6379H158.526V8.31589ZM152.208 6.85789H167.274V8.72989H152.208V6.85789ZM153.936 9.80989H165.456V14.1299H156.312V15.5699H153.954V12.4739H163.098V11.5919H153.936V9.80989ZM153.954 15.0839H165.888V16.8839H153.954V15.0839ZM12.762 25.3239H15.03V41.9919H12.762V25.3239ZM10.53 31.7319H13.302V33.6579H10.53V31.7319ZM9.036 25.6119H11.25V41.1999H9.036V25.6119ZM1.188 36.2679H2.358C4.41 36.2679 6.12 36.1959 8.1 35.8359L8.28 37.7799C6.264 38.1759 4.5 38.2299 2.358 38.2299H1.188V36.2679ZM1.188 27.2499H7.344V29.1759H3.564V37.2039H1.188V27.2499ZM23.6146 34.8819H25.9906V37.3299H23.6146V34.8819ZM17.2786 33.5319H32.3446V35.4219H17.2786V33.5319ZM18.9526 36.8439H30.5266V41.9739H28.1326V38.7339H18.9526V36.8439ZM23.6146 25.3419H25.9906V27.7899H23.6146V25.3419ZM23.4706 27.9699H25.5766V28.3119C25.5766 30.8499 23.1646 32.6139 18.6286 32.9379L17.9086 31.1559C21.9226 30.9039 23.4706 29.5899 23.4706 28.3119V27.9699ZM24.0286 27.9699H26.1346V28.3119C26.1346 29.5899 27.6826 30.9039 31.6966 31.1559L30.9766 32.9379C26.4226 32.6139 24.0286 30.8499 24.0286 28.3119V27.9699ZM18.7186 26.8359H30.9046V28.6899H18.7186V26.8359ZM45.8792 25.3239H48.1472V41.9919H45.8792V25.3239ZM40.3892 31.0119H43.1432V32.9559H40.3892V31.0119ZM42.5132 25.5939H44.7452V41.2359H42.5132V25.5939ZM36.7892 28.0419H38.5892V29.7519C38.5892 33.4959 37.5632 37.2219 34.9172 38.8779L33.4952 37.1139C35.9432 35.5839 36.7892 32.5959 36.7892 29.7519V28.0419ZM37.3292 28.0419H39.1112V29.7519C39.1112 32.5239 39.9392 35.3319 42.3512 36.7359L40.9472 38.4819C38.3012 36.9159 37.3292 33.4239 37.3292 29.7519V28.0419ZM34.1252 26.9979H41.5592V28.9239H34.1252V26.9979ZM58.5343 28.1139H60.4603V28.7259C60.4603 31.5879 58.9663 34.1079 55.7803 34.9899L54.6643 33.1359C57.3643 32.3979 58.5343 30.5619 58.5343 28.7259V28.1139ZM58.9843 28.1139H60.9283V28.7259C60.9283 30.4179 62.0803 32.1459 64.7623 32.8479L63.6823 34.7199C60.4783 33.8739 58.9843 31.4439 58.9843 28.7259V28.1139ZM55.2583 26.9799H64.2043V28.8519H55.2583V26.9799ZM58.5343 25.2699H60.9283V27.7899H58.5343V25.2699ZM65.5183 25.3239H67.9123V35.0799H65.5183V25.3239ZM67.2463 29.2119H70.1263V31.1739H67.2463V29.2119ZM57.0763 35.7819H67.9123V41.8119H57.0763V35.7819ZM65.5723 37.6539H59.4343V39.9219H65.5723V37.6539ZM82.0049 25.3059H84.4169V41.9739H82.0049V25.3059ZM83.7869 31.6779H86.7209V33.6399H83.7869V31.6779ZM77.6309 27.0339H79.9709C79.9709 32.0379 78.0629 36.3219 72.5189 39.1119L71.1869 37.2939C75.5609 35.0259 77.6309 31.9659 77.6309 27.4479V27.0339ZM72.1049 27.0339H78.8549V28.9599H72.1049V27.0339ZM96.3315 28.9959H100.508V30.9219H96.3315V28.9959ZM92.5155 26.0079C95.0175 26.0079 96.9075 27.6819 96.9075 29.9859C96.9075 32.3079 95.0175 33.9639 92.5155 33.9639C89.9955 33.9639 88.1055 32.3079 88.1055 29.9859C88.1055 27.6819 89.9955 26.0079 92.5155 26.0079ZM92.5155 28.0059C91.2915 28.0059 90.3915 28.7439 90.3915 29.9859C90.3915 31.2279 91.2915 31.9839 92.5155 31.9839C93.7395 31.9839 94.6215 31.2279 94.6215 29.9859C94.6215 28.7439 93.7395 28.0059 92.5155 28.0059ZM99.4635 25.3239H101.858V34.2879H99.4635V25.3239ZM90.7875 35.0079H93.1635V36.5919H99.4815V35.0079H101.858V41.8119H90.7875V35.0079ZM93.1635 38.4279V39.9039H99.4815V38.4279H93.1635ZM111.252 31.6419H113.898V33.5679H111.252V31.6419ZM107.382 29.9499H109.182V30.3819C109.182 33.8559 108.174 37.3299 105.51 38.8599L104.16 37.0599C106.536 35.6739 107.382 32.9379 107.382 30.3819V29.9499ZM107.85 29.9499H109.65V30.3819C109.65 32.9019 110.514 35.4399 112.872 36.6999L111.576 38.4639C108.876 37.0599 107.85 33.8019 107.85 30.3819V29.9499ZM104.79 28.1139H112.224V30.0399H104.79V28.1139ZM107.382 25.8819H109.65V29.6799H107.382V25.8819ZM116.508 25.3239H118.776V41.9919H116.508V25.3239ZM113.142 25.5939H115.374V41.2359H113.142V25.5939ZM125.437 38.1219H140.521V40.0659H125.437V38.1219ZM131.755 34.4319H134.149V38.5719H131.755V34.4319ZM127.003 26.5479H138.865V34.7379H127.003V26.5479ZM136.525 28.4559H129.361V32.8479H136.525V28.4559ZM146.028 26.7639H147.99V27.7899C147.99 30.7779 146.442 33.4779 143.238 34.4499L142.032 32.5779C144.822 31.7679 146.028 29.7519 146.028 27.7899V26.7639ZM146.514 26.7639H148.476V27.7899C148.476 29.6439 149.682 31.5339 152.382 32.3079L151.212 34.1619C148.062 33.2439 146.514 30.6699 146.514 27.7899V26.7639ZM142.68 26.2239H151.752V28.1139H142.68V26.2239ZM153.426 25.3239H155.838V34.3599H153.426V25.3239ZM144.75 35.0799H147.108V36.5919H153.462V35.0799H155.838V41.8119H144.75V35.0799ZM147.108 38.4459V39.9039H153.462V38.4459H147.108Z" fill="black"/>
</svg>