<svg xmlns="http://www.w3.org/2000/svg" width="448" height="300" fill="none">
  <rect width="448" height="300" fill="#D9D9D9" rx="15"/>
  <path fill="#000" d="M22.08 187.16c0-.512.086-.923.256-1.232.17-.32.4-.549.688-.688.299-.139.624-.208.976-.208s.672.069.96.208c.288.139.517.368.688.688.181.309.272.72.272 1.232 0 .501-.09.912-.272 1.232-.17.309-.4.539-.688.688a2.18 2.18 0 0 1-.96.208c-.352 0-.677-.069-.976-.208a1.645 1.645 0 0 1-.688-.688c-.17-.32-.256-.731-.256-1.232Zm19.776 4.16h4.496v-.576c-.65 0-1.093-.059-1.328-.176-.235-.128-.352-.389-.352-.784v-6.56h-.816a7.962 7.962 0 0 1-1.84.768v.528h1.536v5.264c0 .267-.053.469-.16.608-.096.139-.267.235-.512.288a6.281 6.281 0 0 1-1.024.064v.576ZM44 193.88a6.46 6.46 0 0 1-2.56-.512 6.782 6.782 0 0 1-2.112-1.408 6.782 6.782 0 0 1-1.408-2.112 6.454 6.454 0 0 1-.512-2.56c0-.907.17-1.755.512-2.544.341-.8.81-1.504 1.408-2.112a6.641 6.641 0 0 1 2.112-1.424 6.46 6.46 0 0 1 2.56-.512c.917 0 1.77.171 2.56.512.8.341 1.499.816 2.096 1.424a6.646 6.646 0 0 1 1.424 2.112c.341.789.512 1.637.512 2.544s-.17 1.76-.512 2.56a6.646 6.646 0 0 1-1.424 2.112 6.59 6.59 0 0 1-2.096 1.408 6.386 6.386 0 0 1-2.56.512Zm14.592-12.672h1.152v.608c0 2.592-2.752 4.496-5.664 4.992l-.512-1.056c2.544-.368 5.024-2.032 5.024-3.936v-.608Zm.336 0h1.136v.608c0 1.904 2.496 3.568 5.024 3.936l-.496 1.056c-2.928-.496-5.664-2.4-5.664-4.992v-.608Zm-.288 7.52h1.312v5.52H58.64v-5.52Zm-5.84-.704h13.072v1.088H52.8v-1.088Zm1.216-7.344h10.592v1.072H54.016v-1.072Zm13.487 7.712h13.12v1.088h-13.12v-1.088Zm3.392.592h1.344v5.264h-1.344v-5.264Zm4.976 0h1.328v5.264H75.87v-5.264Zm-6.8-8.64h9.952v3.728h-8.576v2.48h-1.344v-3.504h8.592v-1.632H69.07v-1.072Zm.032 5.504h10.256v1.072H69.103v-1.072Zm13.119 2.496h13.12v1.088h-13.12v-1.088Zm5.856.512h1.311v5.392h-1.311v-5.392Zm-4.209-8.496h1.329v1.984h7.152v-1.984h1.312v6.256h-9.793v-6.256Zm1.329 3.056v2.128h7.152v-2.128h-7.152Zm11.742 3.76h13.104v1.088H96.94v-1.088Zm5.984.672h1.328v3.328h-1.328v-3.328Zm-4.304-7.392h9.728v5.088H98.62v-5.088Zm8.416 1.072h-7.12v2.944h7.12v-2.944Zm-8.432 11.312h9.984v1.088h-9.984v-1.088Zm0-3.056h1.312v3.44h-1.312v-3.44Zm17.759-8.96c2.256 0 3.872 1.392 3.872 3.408 0 2.032-1.616 3.424-3.872 3.424s-3.888-1.392-3.888-3.424c0-2.016 1.632-3.408 3.888-3.408Zm0 1.152c-1.504 0-2.592.912-2.592 2.256 0 1.344 1.088 2.272 2.592 2.272 1.488 0 2.576-.928 2.576-2.272 0-1.344-1.088-2.256-2.576-2.256Zm5.76-2.208h1.328v14.496h-1.328v-14.496Zm-10.192 11.328-.192-1.104c2.64 0 6.288-.016 9.44-.512l.112.976c-3.248.624-6.784.64-9.36.64Zm18.603-2.912h13.12v1.088h-13.12v-1.088Zm5.856.656h1.312v5.408h-1.312v-5.408Zm-4.192-8.256h9.76v5.648h-9.76v-5.648Zm8.464 1.072h-7.152v3.504h7.152v-3.504Zm12.735 1.6h2.944v1.088h-2.944v-1.088Zm-.016 2.816h2.944v1.088h-2.944v-1.088Zm-8.096-4.704h8.096v1.072h-8.096v-1.072Zm4.096 1.824c1.936 0 3.264 1.056 3.264 2.672s-1.328 2.688-3.264 2.688c-1.936 0-3.28-1.072-3.28-2.688s1.344-2.672 3.28-2.672Zm0 1.024c-1.216 0-2.032.64-2.032 1.648s.816 1.664 2.032 1.664c1.2 0 2.032-.656 2.032-1.664s-.832-1.648-2.032-1.648Zm-.656-4.56h1.328v2.464h-1.328v-2.464Zm7.104.128h1.328v9.344h-1.328v-9.344Zm-3.408 9.488c2.992 0 4.816.912 4.816 2.48s-1.824 2.464-4.816 2.464c-3.008 0-4.816-.896-4.816-2.464s1.808-2.48 4.816-2.48Zm0 1.056c-2.128 0-3.44.496-3.44 1.424 0 .912 1.312 1.44 3.44 1.44s3.44-.528 3.44-1.44c0-.928-1.312-1.424-3.44-1.424Zm7.551-3.152h13.104v1.088h-13.104v-1.088Zm5.984.672h1.328v3.328h-1.328v-3.328Zm-4.304-7.392h9.728v5.088h-9.728v-5.088Zm8.416 1.072h-7.12v2.944h7.12v-2.944Zm-8.432 11.312h9.984v1.088h-9.984v-1.088Zm0-3.056h1.312v3.44h-1.312v-3.44Zm16.814-1.376h1.328v2.352h-1.328v-2.352Zm6.08-8.624h1.328v14.464h-1.328v-14.464Zm.896 6.144h2.672v1.12h-2.672v-1.12Zm-10.704 5.568-.192-1.104c2.592 0 6.128-.032 9.12-.464l.112.992c-3.12.56-6.512.576-9.04.576Zm.048-9.968h8.656v1.072h-8.656v-1.072Zm4.336 1.92c2.016 0 3.408 1.056 3.408 2.672 0 1.632-1.392 2.672-3.408 2.672s-3.392-1.04-3.392-2.672c0-1.616 1.376-2.672 3.392-2.672Zm0 1.024c-1.296 0-2.144.656-2.144 1.648 0 .992.848 1.648 2.144 1.648 1.296 0 2.16-.656 2.16-1.648 0-.992-.864-1.648-2.16-1.648Zm-.656-4.672h1.328v2.448h-1.328V179.8Zm22.031-.016h1.264v14.464h-1.264v-14.464Zm-2.288 5.824h2.784v1.12h-2.784v-1.12Zm-.864-5.52h1.248v13.44h-1.248v-13.44Zm-4.928 1.936h1.04v1.664c0 3.472-1.136 6.256-3.36 7.584l-.816-1.024c2.08-1.152 3.136-3.616 3.136-6.56v-1.664Zm.24 0h1.04v1.664c0 2.656 1.072 5.008 3.104 6.048l-.784 1.024c-2.208-1.216-3.36-3.888-3.36-7.072v-1.664Zm-3.04-.544h6.72v1.104h-6.72v-1.104Zm18.699 9.824h13.104v1.104H208.3v-1.104Zm5.856-3.456h1.328v3.776h-1.328v-3.776Zm-4.32-7.04h1.312v2.576h7.376v-2.576h1.312v7.392h-10v-7.392Zm1.312 3.648v2.656h7.376v-2.656h-7.376Zm15.215 4.272h1.36v5.52h-1.36v-5.52Zm4.976 0h1.36v5.52h-1.36v-5.52Zm-8.336-.72h13.12v1.104h-13.12v-1.104Zm6.528-7.648c3.024 0 5.056 1.216 5.056 3.152 0 1.92-2.032 3.152-5.056 3.152-3.008 0-5.056-1.232-5.056-3.152 0-1.936 2.048-3.152 5.056-3.152Zm0 1.072c-2.208 0-3.712.816-3.712 2.08 0 1.264 1.504 2.08 3.712 2.08s3.696-.816 3.696-2.08c0-1.264-1.488-2.08-3.696-2.08Zm11.775.416h1.056v2.352c0 3.008-1.84 6.112-4.096 7.264l-.768-1.056c2.064-1.008 3.808-3.76 3.808-6.208v-2.352Zm.24 0h1.056v2.352c0 2.288 1.632 4.864 3.728 5.856l-.752 1.056c-2.288-1.136-4.032-4.048-4.032-6.912v-2.352Zm-3.536-.592h7.792v1.12h-7.792v-1.12Zm9.504-1.472h1.344v14.464h-1.344v-14.464Zm1.024 5.84h2.688v1.12h-2.688v-1.12Zm13.694-5.856h1.344v14.48h-1.344v-14.48Zm.976 5.872h2.672v1.104h-2.672v-1.104Zm-4.672-4.304h1.296c0 4.112-1.888 7.824-6.56 10.176l-.736-1.024c4-2.032 6-5.12 6-8.944v-.208Zm-5.328 0h6.016v1.088h-6.016v-1.088Zm29.115-1.552h1.28v14.464h-1.28v-14.464Zm-5.264 5.184h2.768v1.104h-2.768v-1.104Zm2.368-4.848h1.248v13.392h-1.248V180.12Zm-5.152 1.904h1.024v1.84c0 3.168-1.216 6.16-3.344 7.504l-.816-.992c2.016-1.216 3.136-3.856 3.136-6.512v-1.84Zm.272 0h1.024v1.84c0 2.512 1.088 5.024 3.072 6.176l-.816.976c-2.112-1.28-3.28-4.128-3.28-7.152v-1.84Zm-3.008-.56h6.608v1.104h-6.608v-1.104Zm14.511 9.824h13.104v1.104H286.05v-1.104Zm5.888-3.504h1.312v3.872h-1.312v-3.872Zm-.032-6.176h1.12v.896c0 2.96-2.96 5.2-5.808 5.792l-.544-1.056c2.496-.416 5.232-2.448 5.232-4.736v-.896Zm.24 0h1.12v.896c0 2.288 2.752 4.272 5.28 4.688l-.528 1.056c-2.896-.576-5.872-2.784-5.872-5.744v-.896Zm-5.024-.512h10.928v1.088h-10.928v-1.088Zm23.535-1.296h1.328v10.848h-1.328V179.8Zm.912 4.736h2.56v1.12h-2.56v-1.12Zm-10.768-2.992h8.544v1.072h-8.544v-1.072Zm4.272 1.872c2.048 0 3.456 1.072 3.456 2.704 0 1.616-1.408 2.688-3.456 2.688-2.064 0-3.472-1.072-3.472-2.688 0-1.632 1.408-2.704 3.472-2.704Zm0 1.04c-1.312 0-2.208.656-2.208 1.664 0 .992.896 1.648 2.208 1.648 1.296 0 2.192-.656 2.192-1.648 0-1.008-.896-1.664-2.192-1.664Zm-.672-4.672h1.328v2.32h-1.328v-2.32Zm-1.424 13.056h9.664v1.088h-9.664v-1.088Zm0-3.056h1.328v3.52h-1.328v-3.52Zm22.523-9.936h1.12v.528c0 2.464-2.816 4.112-5.824 4.496l-.448-1.024c2.624-.288 5.152-1.68 5.152-3.472v-.528Zm.224 0h1.12v.528c0 1.792 2.528 3.184 5.152 3.472l-.464 1.024c-2.992-.384-5.808-2.032-5.808-4.496v-.528Zm-.224 6.752h1.312v2.208H325.5V186.6Zm-5.872-.784H332.7v1.072h-13.072v-1.072Zm1.584 2.496h9.824v3.296h-8.48v1.744h-1.312v-2.704h8.48v-1.312h-8.512v-1.024Zm.032 4.736h10.224v1.04h-10.224v-1.04ZM22.08 213.16c0-.512.086-.923.256-1.232.17-.32.4-.549.688-.688.299-.139.624-.208.976-.208s.672.069.96.208c.288.139.517.368.688.688.181.309.272.72.272 1.232 0 .501-.09.912-.272 1.232-.17.309-.4.539-.688.688a2.18 2.18 0 0 1-.96.208c-.352 0-.677-.069-.976-.208a1.645 1.645 0 0 1-.688-.688c-.17-.32-.256-.731-.256-1.232Zm19.104 4.16h5.44c.021-.587.037-1.093.048-1.52.021-.427.048-.725.08-.896h-.608v.112c0 .341-.032.597-.096.768a.483.483 0 0 1-.336.336c-.16.053-.4.08-.72.08H42.32c.192-.213.459-.453.8-.72.352-.277.725-.571 1.12-.88a13.873 13.873 0 0 0 1.408-1.264c.352-.384.603-.747.752-1.088.16-.341.24-.688.24-1.04 0-.331-.064-.624-.192-.88a1.701 1.701 0 0 0-.528-.672 2.341 2.341 0 0 0-.848-.416 4.081 4.081 0 0 0-1.136-.144c-.533 0-1.003.08-1.408.24-.395.16-.704.384-.928.672a1.483 1.483 0 0 0-.336.96c0 .309.08.56.24.752.16.181.379.272.656.272s.496-.085.656-.256a.978.978 0 0 0 .24-.672c0-.309-.112-.581-.336-.816.085-.128.224-.251.416-.368.203-.128.459-.192.768-.192.437 0 .8.128 1.088.384.299.256.448.608.448 1.056 0 .299-.08.624-.24.976-.16.341-.421.72-.784 1.136a15.61 15.61 0 0 1-1.456 1.424c-.341.299-.672.597-.992.896-.31.288-.57.555-.784.8v.96ZM44 219.88a6.46 6.46 0 0 1-2.56-.512 6.782 6.782 0 0 1-2.112-1.408 6.782 6.782 0 0 1-1.408-2.112 6.454 6.454 0 0 1-.512-2.56c0-.907.17-1.755.512-2.544.341-.8.81-1.504 1.408-2.112a6.641 6.641 0 0 1 2.112-1.424 6.46 6.46 0 0 1 2.56-.512c.917 0 1.77.171 2.56.512.8.341 1.499.816 2.096 1.424a6.646 6.646 0 0 1 1.424 2.112c.341.789.512 1.637.512 2.544s-.17 1.76-.512 2.56a6.646 6.646 0 0 1-1.424 2.112 6.59 6.59 0 0 1-2.096 1.408 6.386 6.386 0 0 1-2.56.512Zm19.792-14.096h1.28v14.464h-1.28v-14.464Zm-2.448 5.792h2.784v1.104h-2.784v-1.104Zm-.832-5.472h1.248v13.408h-1.248v-13.408Zm-7.2 9.472h.944c2.112 0 3.552-.08 5.232-.432l.128 1.104c-1.728.368-3.184.432-5.36.432h-.944v-1.104Zm0-8.032h5.376v1.088h-4.064v7.44h-1.312v-8.528Zm24.095-1.744h1.328v10.848h-1.328V205.8Zm.912 4.736h2.56v1.12h-2.56v-1.12Zm-10.768-2.992h8.544v1.072H67.55v-1.072Zm4.272 1.872c2.048 0 3.456 1.072 3.456 2.704 0 1.616-1.408 2.688-3.456 2.688-2.064 0-3.472-1.072-3.472-2.688 0-1.632 1.408-2.704 3.472-2.704Zm0 1.04c-1.312 0-2.208.656-2.208 1.664 0 .992.896 1.648 2.208 1.648 1.296 0 2.192-.656 2.192-1.648 0-1.008-.896-1.664-2.192-1.664Zm-.672-4.672h1.328v2.32H71.15v-2.32Zm-1.424 13.056h9.664v1.088h-9.664v-1.088Zm0-3.056h1.328v3.52h-1.328v-3.52Zm13.263-8.752h6.736v6.736H82.99v-6.736Zm5.456 1.072h-4.177v4.592h4.176v-4.592Zm4.303-2.304h1.345v10.384H92.75V205.8Zm-7.951 12.88h9.727v1.104h-9.728v-1.104Zm0-3.488h1.311v3.936h-1.311v-3.936Zm13.822-8.736h9.312v1.088H98.62v-1.088Zm-1.664 5.184h13.104v1.088H96.956v-1.088Zm5.872.736h1.312v3.408h-1.312v-3.408Zm4.24-5.92h1.296v1.072c0 1.2 0 2.656-.48 4.64l-1.296-.16c.48-1.936.48-3.312.48-4.48v-1.072Zm-8.752 8.896h10.144v4.896h-1.328v-3.808h-8.816v-1.088Zm21.275-8.88h1.104v1.408c0 2.736-1.632 5.088-4.08 6.016l-.672-1.056c2.192-.8 3.648-2.8 3.648-4.96v-1.408Zm.24 0h1.088v1.408c0 2.08 1.488 3.952 3.632 4.704l-.672 1.04c-2.416-.88-4.048-3.088-4.048-5.744v-1.408Zm-1.808 8.752h9.664v5.024h-1.344v-3.936h-8.32v-1.088Zm8.32-9.44h1.344v8.704h-1.344v-8.704Zm10.079 7.68h1.312v2.496h-1.312v-2.496Zm-5.888-.704h13.072v1.088h-13.072v-1.088Zm1.216-6.528h10.624v1.088H131.75v-1.088Zm.064 4.112h10.496v1.088h-10.496v-1.088Zm2.128-3.632h1.328v4.336h-1.328v-4.336Zm4.928 0h1.312v4.336h-1.312v-4.336Zm-6.736 8.816h9.872v4.528h-9.872v-4.528Zm8.576 1.056h-7.264v2.4h7.264v-2.4Zm11.455-8.464h4.176v1.088h-4.176v-1.088Zm0 2.88h4.208v1.072h-4.208V211Zm3.664-5.216h1.328v8.56h-1.328v-8.56Zm-9.904 1.088h6.608v6.432h-6.608v-6.432Zm5.296 1.072h-4v4.304h4v-4.304Zm1.184 6.816c2.976 0 4.816 1.008 4.816 2.736 0 1.728-1.84 2.72-4.816 2.72-2.992 0-4.832-.992-4.832-2.72 0-1.728 1.84-2.736 4.832-2.736Zm0 1.056c-2.176 0-3.504.624-3.504 1.68s1.328 1.68 3.504 1.68 3.504-.624 3.504-1.68-1.328-1.68-3.504-1.68ZM170.5 205.8h1.344v10.56H170.5V205.8Zm-7.952 13.04h9.728v1.088h-9.728v-1.088Zm0-3.568h1.312v3.936h-1.312v-3.936Zm1.536-8.48c2.16 0 3.76 1.472 3.76 3.568 0 2.08-1.6 3.568-3.76 3.568-2.16 0-3.776-1.488-3.776-3.568 0-2.096 1.616-3.568 3.776-3.568Zm0 1.152c-1.408 0-2.48.992-2.48 2.416 0 1.408 1.072 2.4 2.48 2.4s2.48-.992 2.48-2.4c0-1.424-1.072-2.416-2.48-2.416Zm21.118-2.176h1.328v14.496h-1.328v-14.496Zm-6.304 1.12c2.144 0 3.68 1.968 3.68 5.04 0 3.088-1.536 5.056-3.68 5.056-2.128 0-3.664-1.968-3.664-5.056 0-3.072 1.536-5.04 3.664-5.04Zm0 1.2c-1.408 0-2.4 1.504-2.4 3.84 0 2.352.992 3.888 2.4 3.888 1.424 0 2.4-1.536 2.4-3.888 0-2.336-.976-3.84-2.4-3.84Zm25.675-2.304h1.28v14.464h-1.28v-14.464Zm-5.264 5.184h2.768v1.104h-2.768v-1.104Zm2.368-4.848h1.248v13.392h-1.248V206.12Zm-5.152 1.904h1.024v1.84c0 3.168-1.216 6.16-3.344 7.504l-.816-.992c2.016-1.216 3.136-3.856 3.136-6.512v-1.84Zm.272 0h1.024v1.84c0 2.512 1.088 5.024 3.072 6.176l-.816.976c-2.112-1.28-3.28-4.128-3.28-7.152v-1.84Zm-3.008-.56h6.608v1.104h-6.608v-1.104Zm14.511 9.824h13.104v1.104H208.3v-1.104Zm5.888-3.504h1.312v3.872h-1.312v-3.872Zm-.032-6.176h1.12v.896c0 2.96-2.96 5.2-5.808 5.792l-.544-1.056c2.496-.416 5.232-2.448 5.232-4.736v-.896Zm.24 0h1.12v.896c0 2.288 2.752 4.272 5.28 4.688l-.528 1.056c-2.896-.576-5.872-2.784-5.872-5.744v-.896Zm-5.024-.512H220.3v1.088h-10.928v-1.088Zm23.535-1.296h1.328v10.848h-1.328V205.8Zm.912 4.736h2.56v1.12h-2.56v-1.12Zm-10.768-2.992h8.544v1.072h-8.544v-1.072Zm4.272 1.872c2.048 0 3.456 1.072 3.456 2.704 0 1.616-1.408 2.688-3.456 2.688-2.064 0-3.472-1.072-3.472-2.688 0-1.632 1.408-2.704 3.472-2.704Zm0 1.04c-1.312 0-2.208.656-2.208 1.664 0 .992.896 1.648 2.208 1.648 1.296 0 2.192-.656 2.192-1.648 0-1.008-.896-1.664-2.192-1.664Zm-.672-4.672h1.328v2.32h-1.328v-2.32Zm-1.424 13.056h9.664v1.088h-9.664v-1.088Zm0-3.056h1.328v3.52h-1.328v-3.52Zm22.523-9.936h1.12v.528c0 2.464-2.816 4.112-5.824 4.496l-.448-1.024c2.624-.288 5.152-1.68 5.152-3.472v-.528Zm.224 0h1.12v.528c0 1.792 2.528 3.184 5.152 3.472l-.464 1.024c-2.992-.384-5.808-2.032-5.808-4.496v-.528Zm-.224 6.752h1.312v2.208h-1.312V212.6Zm-5.872-.784h13.072v1.072h-13.072v-1.072Zm1.584 2.496h9.824v3.296h-8.48v1.744h-1.312v-2.704h8.48v-1.312h-8.512v-1.024Zm.032 4.736h10.224v1.04h-10.224v-1.04ZM22.08 239.16c0-.512.086-.923.256-1.232.17-.32.4-.549.688-.688.299-.139.624-.208.976-.208s.672.069.96.208c.288.139.517.368.688.688.181.309.272.72.272 1.232 0 .501-.09.912-.272 1.232-.17.309-.4.539-.688.688a2.18 2.18 0 0 1-.96.208c-.352 0-.677-.069-.976-.208a1.645 1.645 0 0 1-.688-.688c-.17-.32-.256-.731-.256-1.232Zm21.744 4.32c.981 0 1.755-.229 2.32-.688.565-.459.848-1.056.848-1.792 0-.629-.208-1.125-.624-1.488-.405-.373-.987-.608-1.744-.704.661-.192 1.152-.443 1.472-.752.32-.309.48-.704.48-1.184 0-.576-.224-1.013-.672-1.312-.437-.309-1.077-.464-1.92-.464-.779 0-1.397.123-1.856.368-.448.245-.672.587-.672 1.024 0 .245.07.443.208.592.139.149.336.224.592.224.245 0 .437-.064.576-.192.15-.128.224-.32.224-.576a.94.94 0 0 0-.064-.352.576.576 0 0 0-.176-.288.982.982 0 0 1 .48-.16 3.7 3.7 0 0 1 .576-.048c.501 0 .875.107 1.12.32.256.203.384.501.384.896 0 .523-.208.928-.624 1.216-.416.288-.939.453-1.568.496v.528c.533.021.992.101 1.376.24.395.128.693.325.896.592.213.256.32.587.32.992 0 .587-.176 1.051-.528 1.392-.341.341-.81.512-1.408.512-.299 0-.56-.037-.784-.112-.224-.075-.379-.165-.464-.272.17-.203.256-.459.256-.768 0-.245-.07-.437-.208-.576-.139-.149-.336-.224-.592-.224-.277 0-.496.091-.656.272-.15.171-.224.395-.224.672 0 .501.235.896.704 1.184.48.288 1.13.432 1.952.432Zm.176 2.4a6.46 6.46 0 0 1-2.56-.512 6.782 6.782 0 0 1-2.112-1.408 6.782 6.782 0 0 1-1.408-2.112 6.454 6.454 0 0 1-.512-2.56c0-.907.17-1.755.512-2.544.341-.8.81-1.504 1.408-2.112a6.641 6.641 0 0 1 2.112-1.424 6.46 6.46 0 0 1 2.56-.512c.917 0 1.77.171 2.56.512.8.341 1.499.816 2.096 1.424a6.646 6.646 0 0 1 1.424 2.112c.341.789.512 1.637.512 2.544s-.17 1.76-.512 2.56a6.646 6.646 0 0 1-1.424 2.112 6.59 6.59 0 0 1-2.096 1.408 6.386 6.386 0 0 1-2.56.512Zm10.576-10.08h9.808v1.088h-9.808V235.8Zm0-3.728h1.312v4.208h-1.312v-4.208Zm-1.776 6.72h13.072v1.072H52.8v-1.072Zm5.872-2.416H60v2.896h-1.328v-2.896Zm.64 4.592c3.088 0 4.96.944 4.96 2.64 0 1.664-1.872 2.608-4.96 2.608s-4.96-.944-4.96-2.608c0-1.696 1.872-2.64 4.96-2.64Zm0 1.04c-2.256 0-3.616.576-3.616 1.6 0 .992 1.36 1.568 3.616 1.568 2.272 0 3.616-.576 3.616-1.568 0-1.024-1.344-1.6-3.616-1.6Zm12.063-9.12c2.096 0 3.6 1.968 3.6 5.04 0 3.088-1.504 5.056-3.6 5.056-2.112 0-3.6-1.968-3.6-5.056 0-3.072 1.488-5.04 3.6-5.04Zm0 1.2c-1.392 0-2.336 1.504-2.336 3.84 0 2.352.944 3.888 2.336 3.888s2.336-1.536 2.336-3.888c0-2.336-.944-3.84-2.336-3.84Zm6.736-2.32h1.312v14.496H78.11v-14.496Zm-3.568 5.52h4.144v1.088h-4.144v-1.088Zm14.958-2.064h3.888v1.104h-3.888v-1.104Zm-3.328-2.784c2.16 0 3.728 1.376 3.728 3.36s-1.567 3.344-3.727 3.344-3.729-1.36-3.729-3.344c0-1.984 1.569-3.36 3.729-3.36Zm0 1.12c-1.424 0-2.448.912-2.448 2.24 0 1.312 1.025 2.24 2.449 2.24 1.423 0 2.447-.928 2.447-2.24 0-1.328-1.023-2.24-2.447-2.24Zm6.624-1.776h1.329v7.76h-1.329v-7.76Zm-7.935 8.48h1.328v1.824h6.624v-1.824h1.312v5.792h-9.264v-5.792Zm1.328 2.88v1.84h6.624v-1.84H86.19Zm17.678-8.704h3.872v1.088h-3.872v-1.088Zm-.128 3.008h3.904v1.088h-3.904v-1.088Zm3.776-5.664h1.328v8.672h-1.328v-8.672Zm-4.528 1.088h1.424c0 3.728-2.576 6.336-6.736 7.584l-.544-1.072c3.696-1.072 5.856-3.2 5.856-5.936v-.576Zm-5.104 0h6.016v1.088h-6.016v-1.088Zm6.256 7.744c2.928 0 4.784 1.04 4.784 2.784 0 1.744-1.856 2.784-4.784 2.784s-4.784-1.04-4.784-2.784c0-1.744 1.856-2.784 4.784-2.784Zm0 1.04c-2.112 0-3.472.656-3.472 1.744s1.36 1.728 3.472 1.728c2.128 0 3.488-.64 3.488-1.728s-1.36-1.744-3.488-1.744Zm14.111-7.792h4.416v1.088h-4.416v-1.088Zm0 3.328h4.416v1.104h-4.416v-1.104Zm-2.64-4.56c2.128 0 3.728 1.44 3.728 3.44 0 2.016-1.6 3.44-3.728 3.44-2.144 0-3.728-1.424-3.728-3.44 0-2 1.584-3.44 3.728-3.44Zm0 1.136c-1.408 0-2.448.944-2.448 2.304 0 1.36 1.04 2.304 2.448 2.304s2.464-.944 2.464-2.304c0-1.36-1.056-2.304-2.464-2.304Zm6.624-1.984h1.328v8.56h-1.328v-8.56Zm-3.424 8.896c2.976 0 4.816 1.024 4.816 2.768 0 1.76-1.84 2.768-4.816 2.768-2.992 0-4.832-1.008-4.832-2.768 0-1.744 1.84-2.768 4.832-2.768Zm0 1.056c-2.192 0-3.52.64-3.52 1.712 0 1.088 1.328 1.728 3.52 1.728 2.176 0 3.504-.64 3.504-1.728 0-1.072-1.328-1.712-3.504-1.712Zm13.471-4.24h2.736v1.088h-2.736v-1.088Zm-2.944-2.016h1.024v.752c0 2.88-1.2 5.792-3.312 7.056l-.784-1.008c1.952-1.136 3.072-3.68 3.072-6.048v-.752Zm.24 0h1.024v.752c0 2.304 1.152 4.688 3.104 5.744l-.752.992c-2.128-1.184-3.376-3.92-3.376-6.736v-.752Zm-2.912-1.04h6.608v1.104h-6.608v-1.104Zm2.672-2.144h1.28v2.992h-1.28v-2.992Zm8.048-.512h1.28v14.464h-1.28v-14.464Zm-2.896.336h1.248v13.392h-1.248V232.12Zm17.659 6.352h5.2v1.088h-5.2v-1.088Zm-6.88 4.832h13.104v1.104h-13.104v-1.104Zm5.856-3.04h1.312v3.568h-1.312v-3.568Zm1.024-7.136h5.056v1.088h-3.728v4.832h-1.328v-5.92Zm-5.76.016h4.896v1.088h-3.568v4.752h-1.328v-5.84Zm0 5.296h.8c1.408 0 2.72-.048 4.224-.4l.128 1.12c-1.568.336-2.896.4-4.352.4h-.8v-1.12Zm15.359-2.32h9.824v1.088h-9.824v-1.088Zm-1.776 3.024h13.12v1.088h-13.12v-1.088Zm1.776-6.832h1.312v4.352h-1.312v-4.352Zm-.096 12.496h10v1.088h-10v-1.088Zm0-3.136h1.312v3.424h-1.312v-3.424Zm20.235-8.992h1.056v1.936c0 2.16-1.248 4.432-3.376 5.376l-.72-1.04c1.904-.832 3.04-2.704 3.04-4.336v-1.936Zm.208 0h1.056v1.936c0 1.6 1.088 3.232 2.944 3.952l-.72 1.008c-2.08-.832-3.28-2.832-3.28-4.96v-1.936Zm7.68-.88h1.264v8.912h-1.264V231.8Zm-2.305 3.856h2.737v1.088h-2.737v-1.088Zm-.799-3.584h1.264v8.176h-1.264v-8.176Zm-.385 8.96c2.977 0 4.833.96 4.833 2.608 0 1.632-1.856 2.576-4.833 2.576-2.991 0-4.815-.944-4.815-2.576 0-1.648 1.824-2.608 4.815-2.608Zm0 1.04c-2.175 0-3.52.576-3.52 1.568 0 .976 1.345 1.552 3.52 1.552 2.177 0 3.505-.576 3.505-1.552 0-.992-1.328-1.568-3.505-1.568Zm10.847-9.408h1.088v1.776c0 2.832-1.568 5.088-4 6.032l-.704-1.056c2.208-.784 3.616-2.736 3.616-4.976v-1.776Zm.224 0h1.088v1.824c0 1.968 1.44 3.824 3.552 4.576l-.656 1.04c-2.384-.864-3.984-3.072-3.984-5.616v-1.824Zm6.112-.896h1.328v10.688h-1.328v-10.688Zm.912 4.448h2.56v1.104h-2.56v-1.104Zm-8.56 8.624h9.616v1.088h-9.616v-1.088Zm0-3.392h1.328v3.92h-1.328v-3.92Zm16.047-7.6h1.056v2.352c0 3.008-1.84 6.112-4.096 7.264l-.768-1.056c2.064-1.008 3.808-3.76 3.808-6.208v-2.352Zm.24 0h1.056v2.352c0 2.288 1.632 4.864 3.728 5.856l-.752 1.056c-2.288-1.136-4.032-4.048-4.032-6.912v-2.352Zm-3.536-.592h7.792v1.12h-7.792v-1.12Zm9.504-1.472h1.344v14.464h-1.344v-14.464Zm1.024 5.84h2.688v1.12H219.1v-1.12Zm13.807-5.856h1.328v10.48h-1.328v-10.48Zm.928 4.304h2.544v1.104h-2.544v-1.104Zm-10.16 2.528h1.12c2.976 0 4.656-.08 6.592-.48l.144 1.072c-1.984.416-3.696.512-6.736.512h-1.12V238.6Zm0-5.584h6.384v1.104h-5.072v5.072h-1.312v-6.176Zm1.552 11.824h9.664v1.088h-9.664v-1.088Zm0-3.632h1.328v4.128h-1.328v-4.128Zm18.399-3.712h2.736v1.088h-2.736v-1.088Zm-2.944-2.016h1.024v.752c0 2.88-1.2 5.792-3.312 7.056l-.784-1.008c1.952-1.136 3.072-3.68 3.072-6.048v-.752Zm.24 0h1.024v.752c0 2.304 1.152 4.688 3.104 5.744l-.752.992c-2.128-1.184-3.376-3.92-3.376-6.736v-.752Zm-2.912-1.04h6.608v1.104h-6.608v-1.104Zm2.672-2.144h1.28v2.992h-1.28v-2.992Zm8.048-.512h1.28v14.464h-1.28v-14.464Zm-2.896.336h1.248v13.392h-1.248V232.12Zm16.398-.352h1.344v14.48h-1.344v-14.48Zm.976 5.872h2.672v1.104h-2.672v-1.104Zm-4.672-4.304h1.296c0 4.112-1.888 7.824-6.56 10.176l-.736-1.024c4-2.032 6-5.12 6-8.944v-.208Zm-5.328 0h6.016v1.088h-6.016v-1.088Zm21.947.512h1.072v2.352c0 3.056-1.84 6.128-4.144 7.264l-.768-1.056c2.096-.992 3.84-3.712 3.84-6.208v-2.352Zm.256 0h1.072v2.352c0 2.448 1.744 4.944 3.872 5.856l-.752 1.056c-2.336-1.088-4.192-3.904-4.192-6.912v-2.352Zm-3.616-.592h8.08v1.12h-8.08v-1.12Zm10.032-1.472h1.328v14.464h-1.328v-14.464Zm10.799 2.128h4.416V235h-4.416v-1.088Zm0 3.232h4.416v1.104h-4.416v-1.104Zm-4.336 3.968h9.648v5.136h-1.328v-4.064h-8.32v-1.072Zm8.32-9.328h1.328v8.528h-1.328v-8.528Zm-6.624.8c2.128 0 3.728 1.44 3.728 3.488s-1.6 3.472-3.728 3.472c-2.144 0-3.728-1.424-3.728-3.472s1.584-3.488 3.728-3.488Zm0 1.136c-1.408 0-2.448.976-2.448 2.352s1.04 2.336 2.448 2.336 2.464-.96 2.464-2.336-1.056-2.352-2.464-2.352Zm12.559 2.08h9.808v1.088h-9.808V235.8Zm0-3.728h1.312v4.208h-1.312v-4.208Zm-1.776 6.72h13.072v1.072h-13.072v-1.072Zm5.872-2.416h1.328v2.896h-1.328v-2.896Zm.64 4.592c3.088 0 4.96.944 4.96 2.64 0 1.664-1.872 2.608-4.96 2.608s-4.96-.944-4.96-2.608c0-1.696 1.872-2.64 4.96-2.64Zm0 1.04c-2.256 0-3.616.576-3.616 1.6 0 .992 1.36 1.568 3.616 1.568 2.272 0 3.616-.576 3.616-1.568 0-1.024-1.344-1.6-3.616-1.6Zm11.759-9.344h1.088v1.776c0 2.832-1.568 5.088-4 6.032l-.704-1.056c2.208-.784 3.616-2.736 3.616-4.976v-1.776Zm.224 0h1.088v1.824c0 1.968 1.44 3.824 3.552 4.576l-.656 1.04c-2.384-.864-3.984-3.072-3.984-5.616v-1.824Zm6.112-.896h1.328v10.688h-1.328v-10.688Zm.912 4.448h2.56v1.104h-2.56v-1.104Zm-8.56 8.624h9.616v1.088h-9.616v-1.088Zm0-3.392h1.328v3.92h-1.328v-3.92Zm18.334-2.832h1.312v2.224h-1.312v-2.224Zm-5.872-.736h13.072v1.072H330.19v-1.072Zm1.696-5.616h9.68v4.4h-9.68v-4.4Zm8.384 1.056h-7.072v2.288h7.072v-2.288Zm-8.496 7.04h9.824v3.248h-8.48v1.76h-1.312v-2.72h8.48v-1.264h-8.512v-1.024Zm.032 4.688h10.224v1.04h-10.224v-1.04Zm19.647-13.024c3.184 0 5.088.896 5.088 2.512s-1.904 2.512-5.088 2.512c-3.2 0-5.088-.896-5.088-2.512s1.888-2.512 5.088-2.512Zm0 1.008c-2.368 0-3.728.544-3.728 1.504s1.36 1.504 3.728 1.504c2.352 0 3.712-.544 3.712-1.504s-1.36-1.504-3.712-1.504Zm-6.544 4.976h13.072v1.072h-13.072v-1.072Zm1.584 2.304h9.824v3.264h-8.48v1.76h-1.312v-2.72h8.48v-1.28h-8.512v-1.024Zm.032 4.736h10.224v1.04h-10.224v-1.04Zm23.067-11.84h1.152v.608c0 2.592-2.752 4.496-5.664 4.992l-.512-1.056c2.544-.368 5.024-2.032 5.024-3.936v-.608Zm.336 0h1.136v.608c0 1.904 2.496 3.568 5.024 3.936l-.496 1.056c-2.928-.496-5.664-2.4-5.664-4.992v-.608Zm-.288 7.52h1.312v5.52h-1.312v-5.52Zm-5.84-.704h13.072v1.088H363.8v-1.088Zm1.216-7.344h10.592v1.072h-10.592v-1.072Zm17.599 6.384h1.328v3.216h-1.328v-3.216Zm6.416-7.28h1.328v11.008h-1.328v-11.008Zm-8.544 13.056h10.224v1.088h-10.224v-1.088Zm0-3.12h1.328v3.424h-1.328v-3.424Zm-1.872-2.16-.176-1.088c2.672 0 6.256-.032 9.328-.432l.096.976c-3.12.496-6.624.544-9.248.544Zm7.472.768h3.28v.976h-3.28v-.976Zm-2.944-7.952c2.112 0 3.552.992 3.552 2.512 0 1.536-1.44 2.528-3.552 2.528-2.128 0-3.568-.992-3.568-2.528 0-1.52 1.44-2.512 3.568-2.512Zm0 .992c-1.36 0-2.304.592-2.304 1.52s.944 1.52 2.304 1.52c1.344 0 2.288-.592 2.288-1.52s-.944-1.52-2.288-1.52Zm13.743 6.896h1.312v3.552h-1.312v-3.552Zm4.624-.032h1.296v3.568h-1.296v-3.568Zm-8.272 3.136h13.104v1.104h-13.104v-1.104Zm1.584-10.512h9.904v4.368h-8.544v2.912h-1.312v-3.968h8.544v-2.24h-8.592v-1.072Zm.048 6.688h10.192v1.088H394.87v-1.088Zm13.086 3.824h13.104v1.104h-13.104v-1.104Zm5.856-3.104h1.328v3.568h-1.328v-3.568Zm-4.272-7.408h9.904v4.384H410.9v2.896h-1.312v-3.968h8.544v-2.24h-8.592v-1.072Zm.048 6.72h10.192v1.088h-10.192v-1.088ZM65.354 257.784h1.28v14.464h-1.28v-14.464Zm-5.264 5.184h2.768v1.104h-2.767v-1.104Zm2.368-4.848h1.248v13.392h-1.248V258.12Zm-5.151 1.904h1.023v1.84c0 3.168-1.215 6.16-3.343 7.504l-.817-.992c2.017-1.216 3.136-3.856 3.136-6.512v-1.84Zm.271 0h1.024v1.84c0 2.512 1.089 5.024 3.073 6.176l-.816.976c-2.113-1.28-3.28-4.128-3.28-7.152v-1.84Zm-3.008-.56h6.608v1.104h-6.607v-1.104Zm14.511 9.824h13.104v1.104H69.081v-1.104Zm5.888-3.504h1.312v3.872H74.97v-3.872Zm-.032-6.176h1.12v.896c0 2.96-2.96 5.2-5.808 5.792l-.544-1.056c2.496-.416 5.232-2.448 5.232-4.736v-.896Zm.24 0h1.12v.896c0 2.288 2.752 4.272 5.28 4.688l-.528 1.056c-2.896-.576-5.872-2.784-5.872-5.744v-.896Zm-5.024-.512h10.928v1.088H70.153v-1.088Zm23.535-1.296h1.328v10.848h-1.328V257.8Zm.912 4.736h2.56v1.12H94.6v-1.12Zm-10.768-2.992h8.544v1.072h-8.544v-1.072Zm4.272 1.872c2.048 0 3.456 1.072 3.456 2.704 0 1.616-1.408 2.688-3.456 2.688-2.064 0-3.472-1.072-3.472-2.688 0-1.632 1.408-2.704 3.472-2.704Zm0 1.04c-1.312 0-2.208.656-2.208 1.664 0 .992.896 1.648 2.208 1.648 1.296 0 2.192-.656 2.192-1.648 0-1.008-.896-1.664-2.192-1.664Zm-.672-4.672h1.328v2.32h-1.328v-2.32Zm-1.424 13.056h9.664v1.088h-9.664v-1.088Zm0-3.056h1.328v3.52h-1.328v-3.52Zm22.523-9.936h1.12v.528c0 2.464-2.816 4.112-5.824 4.496l-.448-1.024c2.624-.288 5.152-1.68 5.152-3.472v-.528Zm.224 0h1.12v.528c0 1.792 2.528 3.184 5.152 3.472l-.464 1.024c-2.992-.384-5.808-2.032-5.808-4.496v-.528Zm-.224 6.752h1.312v2.208h-1.312V264.6Zm-5.872-.784h13.072v1.072h-13.072v-1.072Zm1.584 2.496h9.824v3.296h-8.48v1.744h-1.312v-2.704h8.48v-1.312h-8.512v-1.024Zm.032 4.736h10.224v1.04h-10.224v-1.04Zm17.115-4.432c0-.875.08-1.728.24-2.56.171-.832.432-1.627.784-2.384a9.563 9.563 0 0 1 1.328-2.096h1.52a11.216 11.216 0 0 0-1.248 2.144 12.391 12.391 0 0 0-1.008 4.88 11.834 11.834 0 0 0 1.008 4.784 11.29 11.29 0 0 0 1.232 2.144h-1.504a9.334 9.334 0 0 1-1.328-2.064 10.225 10.225 0 0 1-.784-2.336c-.16-.821-.24-1.659-.24-2.512Zm8.968-6.768h1.072v2.352c0 3.056-1.84 6.128-4.144 7.264l-.768-1.056c2.096-.992 3.84-3.712 3.84-6.208v-2.352Zm.256 0h1.072v2.352c0 2.448 1.744 4.944 3.872 5.856l-.752 1.056c-2.336-1.088-4.192-3.904-4.192-6.912v-2.352Zm-3.616-.592h8.08v1.12h-8.08v-1.12Zm10.032-1.472h1.328v14.464h-1.328v-14.464Zm10.799 2.128h4.416V261h-4.416v-1.088Zm0 3.232h4.416v1.104h-4.416v-1.104Zm-4.336 3.968h9.648v5.136h-1.328v-4.064h-8.32v-1.072Zm8.32-9.328h1.328v8.528h-1.328v-8.528Zm-6.624.8c2.128 0 3.728 1.44 3.728 3.488s-1.6 3.472-3.728 3.472c-2.144 0-3.728-1.424-3.728-3.472s1.584-3.488 3.728-3.488Zm0 1.136c-1.408 0-2.448.976-2.448 2.352s1.04 2.336 2.448 2.336 2.464-.96 2.464-2.336-1.056-2.352-2.464-2.352Zm10.767 5.696h13.072v1.088h-13.072v-1.088Zm1.456 2.464h9.936v4.368h-1.328v-3.28h-8.608v-1.088Zm.272-4.848h9.808v1.04h-9.808v-1.04Zm0-4.864h9.744v1.04h-8.432v4.304h-1.312v-5.344Zm.928 2.4h8.432v1.008h-8.432v-1.008Zm15.631-1.904h1.088v1.776c0 2.832-1.568 5.088-4 6.032l-.704-1.056c2.208-.784 3.616-2.736 3.616-4.976v-1.776Zm.224 0h1.088v1.824c0 1.968 1.44 3.824 3.552 4.576l-.656 1.04c-2.384-.864-3.984-3.072-3.984-5.616v-1.824Zm6.112-.896h1.328v10.688h-1.328v-10.688Zm.912 4.448h2.56v1.104h-2.56v-1.104Zm-8.56 8.624h9.616v1.088h-9.616v-1.088Zm0-3.392h1.328v3.92h-1.328v-3.92Zm18.27-8.24h1.152v.608c0 2.592-2.752 4.496-5.664 4.992l-.512-1.056c2.544-.368 5.024-2.032 5.024-3.936v-.608Zm.336 0h1.136v.608c0 1.904 2.496 3.568 5.024 3.936l-.496 1.056c-2.928-.496-5.664-2.4-5.664-4.992v-.608Zm-.288 7.52h1.312v5.52h-1.312v-5.52Zm-5.84-.704h13.072v1.088h-13.072v-1.088Zm1.216-7.344h10.592v1.072h-10.592v-1.072Zm17.055 7.936c0 .853-.085 1.691-.256 2.512-.16.821-.416 1.6-.768 2.336a8.604 8.604 0 0 1-1.328 2.064h-1.504a11.29 11.29 0 0 0 1.232-2.144 11 11 0 0 0 .736-2.336c.171-.811.256-1.627.256-2.448 0-.843-.085-1.675-.256-2.496a11.624 11.624 0 0 0-.736-2.384 10.256 10.256 0 0 0-1.248-2.144h1.52a8.81 8.81 0 0 1 1.328 2.096c.352.757.608 1.552.768 2.384.171.832.256 1.685.256 2.56ZM44.464 96.768h3.648v1.088h-3.648v-1.088ZM47.36 92.8h1.328v10.592H47.36V92.8Zm-7.904 13.04h9.632v1.088h-9.632v-1.088Zm0-3.376h1.328v3.936h-1.328v-3.936Zm1.024-7.872h1.088v1.168c0 2.624-1.632 4.896-4.048 5.792l-.688-1.056c2.16-.768 3.648-2.688 3.648-4.736v-1.168Zm.256 0h1.072v1.152c0 1.872 1.408 3.696 3.504 4.432l-.672 1.04c-2.352-.848-3.904-3.024-3.904-5.472v-1.152Zm-3.488-.624h7.728v1.072h-7.728v-1.072Zm14.255 6.48h13.072v1.072H51.503v-1.072Zm5.872-1.872h1.312v2.32h-1.312v-2.32Zm-4.144-.592h9.808v1.04H53.23v-1.04Zm0-4.784h9.744v1.04h-8.432v4.304H53.23V93.2Zm.928 2.368h8.432v1.024h-8.432v-1.024Zm3.872 7.024c3.152 0 4.96.8 4.96 2.32 0 1.504-1.808 2.304-4.96 2.304s-4.96-.8-4.96-2.304c0-1.52 1.808-2.32 4.96-2.32Zm0 1.008c-2.32 0-3.616.464-3.616 1.312 0 .864 1.296 1.312 3.616 1.312 2.32 0 3.616-.448 3.616-1.312 0-.848-1.296-1.312-3.616-1.312Zm13.998-9.392h1.153v.608c0 2.592-2.752 4.496-5.665 4.992l-.511-1.056c2.543-.368 5.023-2.032 5.023-3.936v-.608Zm.337 0H73.5v.608c0 1.904 2.496 3.568 5.024 3.936l-.496 1.056c-2.927-.496-5.663-2.4-5.663-4.992v-.608Zm-.288 7.52h1.311v5.52h-1.311v-5.52Zm-5.84-.704H79.31v1.088H66.237v-1.088Zm1.216-7.344h10.592v1.072H67.453V93.68Zm17.659 5.984h13.072v1.104H85.112v-1.104Zm1.647-2.448h9.904v1.072H86.76v-1.072Zm0-3.856h9.792v1.088h-8.48v3.28H86.76V93.36Zm4.864 8.656c3.089 0 4.96.944 4.96 2.608 0 1.664-1.871 2.592-4.96 2.592-3.087 0-4.96-.928-4.96-2.592 0-1.664 1.873-2.608 4.96-2.608Zm0 1.024c-2.255 0-3.615.576-3.615 1.584 0 .992 1.36 1.552 3.615 1.552 2.273 0 3.617-.56 3.617-1.552 0-1.008-1.344-1.584-3.617-1.584Zm12.895-9.216c2.256 0 3.872 1.392 3.872 3.408 0 2.032-1.616 3.424-3.872 3.424s-3.888-1.392-3.888-3.424c0-2.016 1.632-3.408 3.888-3.408Zm0 1.152c-1.504 0-2.592.912-2.592 2.256 0 1.344 1.088 2.272 2.592 2.272 1.488 0 2.576-.928 2.576-2.272 0-1.344-1.088-2.256-2.576-2.256Zm5.76-2.208h1.328v14.496h-1.328V92.768Zm-10.192 11.328-.192-1.104c2.64 0 6.288-.016 9.44-.512l.112.976c-3.248.624-6.784.64-9.36.64Zm22.171-10.432h1.088v1.776c0 2.832-1.568 5.088-4 6.032l-.704-1.056c2.208-.784 3.616-2.736 3.616-4.976v-1.776Zm.224 0h1.088v1.824c0 1.968 1.44 3.824 3.552 4.576l-.656 1.04c-2.384-.864-3.984-3.072-3.984-5.616v-1.824Zm6.112-.896h1.328v10.688h-1.328V92.768Zm.912 4.448h2.56v1.104h-2.56v-1.104Zm-8.56 8.624h9.616v1.088h-9.616v-1.088Zm0-3.392h1.328v3.92h-1.328v-3.92Zm19.743-6.224h3.888v1.104h-3.888v-1.104Zm-3.328-2.784c2.16 0 3.728 1.376 3.728 3.36s-1.568 3.344-3.728 3.344-3.728-1.36-3.728-3.344c0-1.984 1.568-3.36 3.728-3.36Zm0 1.12c-1.424 0-2.448.912-2.448 2.24 0 1.312 1.024 2.24 2.448 2.24s2.448-.928 2.448-2.24c0-1.328-1.024-2.24-2.448-2.24Zm6.624-1.776h1.328v7.76h-1.328v-7.76Zm-7.936 8.48h1.328v1.824h6.624v-1.824h1.312v5.792h-9.264v-5.792Zm1.328 2.88v1.84h6.624v-1.84h-6.624Zm14.607-9.776h1.104v1.472c0 2.656-1.632 4.88-4.064 5.76l-.688-1.056c2.176-.768 3.648-2.64 3.648-4.704v-1.472Zm.256 0h1.104v1.472c0 1.952 1.504 3.712 3.648 4.432l-.688 1.04c-2.4-.816-4.064-2.928-4.064-5.472v-1.472Zm-3.552-.384h7.92v1.072h-7.92v-1.072Zm9.968-1.184H160v10.576h-1.344V92.8Zm-7.952 13.04h9.728v1.088h-9.728v-1.088Zm0-3.456h1.312v3.936h-1.312v-3.936Zm18.671.384c3.168 0 4.96.784 4.96 2.24 0 1.456-1.792 2.224-4.96 2.224-3.152 0-4.961-.768-4.961-2.224 0-1.456 1.809-2.24 4.961-2.24Zm0 .992c-2.304 0-3.6.432-3.6 1.248 0 .816 1.296 1.232 3.6 1.232 2.32 0 3.6-.416 3.6-1.232 0-.816-1.28-1.248-3.6-1.248Zm-5.84-9.744h11.632v1.04h-11.632v-1.04Zm5.856 1.616c2.976 0 4.672.736 4.672 2.096s-1.696 2.096-4.672 2.096c-2.992 0-4.672-.736-4.672-2.096s1.68-2.096 4.672-2.096Zm0 .944c-2.096 0-3.264.416-3.264 1.152s1.168 1.152 3.264 1.152c2.079 0 3.248-.416 3.248-1.152s-1.169-1.152-3.248-1.152Zm-.656-4.016h1.312v2.08h-1.312v-2.08Zm-5.888 8.192h13.072v1.056h-13.072v-1.056Zm20.59-2.352h2.736v1.104h-2.736V98.4Zm5.152-5.616h1.28v14.464h-1.28V92.784Zm-2.864.304h1.264v13.44h-1.264v-13.44Zm-4.896.896c1.872 0 3.088 1.936 3.088 5.04s-1.216 5.04-3.088 5.04-3.072-1.936-3.072-5.04 1.2-5.04 3.072-5.04Zm0 1.232c-1.136 0-1.856 1.472-1.856 3.808s.72 3.808 1.856 3.808c1.152 0 1.872-1.472 1.872-3.808s-.72-3.808-1.872-3.808Zm16.395-1.312h6.4v1.088h-6.4v-1.088Zm2.176 3.232h1.312v3.616H199.4v-3.616Zm3.696-3.232h1.312v.768c0 .944 0 2.384-.384 4.288l-1.296-.144c.368-1.904.368-3.216.368-4.144v-.768Zm3.28-1.12h1.328v10.896h-1.328V92.784Zm.72 4.704h2.672v1.104h-2.672v-1.104Zm-8.528 8.352h9.6v1.088h-9.6v-1.088Zm0-3.168h1.312v3.504h-1.312v-3.504Zm-2.08-1.296-.144-1.088c2.576 0 6.128-.064 9.056-.464l.096.96c-3.008.528-6.464.592-9.008.592Zm24.575-8.576h1.328v10.848h-1.328V92.8Zm.912 4.736h2.56v1.12h-2.56v-1.12Zm-10.768-2.992h8.544v1.072h-8.544v-1.072Zm4.272 1.872c2.048 0 3.456 1.072 3.456 2.704 0 1.616-1.408 2.688-3.456 2.688-2.064 0-3.472-1.072-3.472-2.688 0-1.632 1.408-2.704 3.472-2.704Zm0 1.04c-1.312 0-2.208.656-2.208 1.664 0 .992.896 1.648 2.208 1.648 1.296 0 2.192-.656 2.192-1.648 0-1.008-.896-1.664-2.192-1.664Zm-.672-4.672h1.328v2.32h-1.328v-2.32Zm-1.424 13.056h9.664v1.088h-9.664v-1.088Zm0-3.056h1.328v3.52h-1.328v-3.52Zm17.371-9.264h1.312v2.224h3.92V93.52h1.296v6.624h-6.528V93.52Zm1.312 3.264v2.272h3.92v-2.272h-3.92Zm4.848-.448h4.096v1.088h-4.096v-1.088Zm3.696-3.552h1.328v7.904h-1.328v-7.904Zm-7.936 8.608h1.312v1.744h6.64v-1.744h1.312v5.664h-9.264v-5.664Zm1.312 2.8v1.776h6.64v-1.776h-6.64Zm10.767-4.816h13.12v1.024h-13.12v-1.024Zm1.552 2.32h9.92v3.088h-8.56v1.696h-1.312v-2.608h8.576v-1.232h-8.624v-.944Zm.048 4.432h10.336v.96h-10.336v-.96Zm.064-12.944h9.76v3.008h-8.416v1.568h-1.312v-2.464h8.432v-1.168h-8.464v-.944Zm.032 4.24h10v.96h-10v-.96Zm1.84 2.352h1.312v2.512h-1.312v-2.512Zm4.736 0h1.312v2.512h-1.312v-2.512Zm12.319-1.376h2.736v1.104h-2.736V98.4Zm5.152-5.616h1.28v14.464h-1.28V92.784Zm-2.864.304h1.264v13.44h-1.264v-13.44Zm-4.896.896c1.872 0 3.088 1.936 3.088 5.04s-1.216 5.04-3.088 5.04-3.072-1.936-3.072-5.04 1.2-5.04 3.072-5.04Zm0 1.232c-1.136 0-1.856 1.472-1.856 3.808s.72 3.808 1.856 3.808c1.152 0 1.872-1.472 1.872-3.808s-.72-3.808-1.872-3.808Zm25.643-2.448h1.328v14.496h-1.328V92.768Zm.736 5.696h2.672v1.104h-2.672v-1.104Zm-10.336 3.888h.64c.816 0 1.904-.016 3.152-.304l.128 1.104c-1.328.304-2.4.32-3.28.32h-.64v-1.12Zm0-8.048h3.648v1.072h-2.336v7.52h-1.312v-8.592Zm4.464 8.048h.704c1.408 0 2.416-.032 3.584-.336l.128 1.104c-1.232.304-2.224.352-3.712.352h-.704v-1.12Zm0-8.048h3.84v1.072h-2.528v7.536h-1.312v-8.608Zm19.63-1.536h1.328v14.496h-1.328V92.768Zm1.008 5.76h2.688v1.12h-2.688v-1.12Zm-10.224 4.144h1.152c2.72 0 4.608-.096 6.8-.512l.144 1.104c-2.256.4-4.176.512-6.944.512h-1.152v-1.104Zm-.032-8.544h6.544v5.184h-5.2v3.808h-1.312v-4.896h5.2v-3.008h-5.232v-1.088Zm-247.049 24.64h1.344v14.496h-1.344v-14.496Zm1.024 5.712h2.688v1.12H47.6v-1.12Zm-10.192 4.064h1.136c2.672 0 4.544-.096 6.704-.496l.144 1.12c-2.224.416-4.128.496-6.848.496h-1.136v-1.12Zm0-8.368h6.72v1.088H38.72v7.776h-1.312v-8.864Zm20.639-1.072c3.12 0 5.088 1.024 5.088 2.736 0 1.712-1.968 2.72-5.088 2.72-3.136 0-5.088-1.008-5.088-2.72 0-1.712 1.952-2.736 5.088-2.736Zm0 1.056c-2.304 0-3.728.608-3.728 1.68 0 1.056 1.424 1.68 3.728 1.68 2.288 0 3.728-.624 3.728-1.68 0-1.072-1.44-1.68-3.728-1.68Zm-4.944 8.128h9.872v4.768h-9.872v-4.768Zm8.576 1.072h-7.264v2.624h7.264v-2.624Zm-10.176-3.552h13.072v1.072H51.503v-1.072Zm20.59-1.408h2.736v1.104h-2.735V124.4Zm5.153-5.616h1.28v14.464h-1.28v-14.464Zm-2.864.304h1.263v13.44h-1.263v-13.44Zm-4.897.896c1.873 0 3.088 1.936 3.088 5.04s-1.215 5.04-3.087 5.04c-1.873 0-3.073-1.936-3.073-5.04s1.2-5.04 3.073-5.04Zm0 1.232c-1.135 0-1.856 1.472-1.856 3.808s.72 3.808 1.856 3.808c1.153 0 1.873-1.472 1.873-3.808s-.72-3.808-1.873-3.808Zm15.596.032h7.168v1.088H85.08v-1.088Zm3.584 2.048c1.807 0 3.12 1.36 3.12 3.312 0 1.936-1.313 3.296-3.12 3.296-1.793 0-3.105-1.36-3.105-3.296 0-1.952 1.313-3.312 3.105-3.312Zm0 1.136c-1.105 0-1.905.896-1.905 2.176 0 1.28.8 2.176 1.904 2.176 1.12 0 1.936-.896 1.936-2.176 0-1.28-.816-2.176-1.935-2.176Zm7.407-5.648h1.28v14.464h-1.28v-14.464Zm-2.303 6.08h2.735v1.104h-2.736v-1.104Zm-.785-5.76h1.249v13.44h-1.249v-13.44Zm-4.96.096h1.313v2.72h-1.313v-2.72Zm21.711-.416h1.328v8.592h-1.328v-8.592Zm.944 3.76h2.512v1.104h-2.512v-1.104Zm-4.24 5.136c2.928 0 4.752 1.04 4.752 2.784 0 1.744-1.824 2.768-4.752 2.768s-4.752-1.024-4.752-2.768c0-1.744 1.824-2.784 4.752-2.784Zm0 1.088c-2.144 0-3.456.608-3.456 1.696 0 1.056 1.312 1.68 3.456 1.68s3.456-.624 3.456-1.68c0-1.088-1.312-1.696-3.456-1.696Zm-5.968-3.616h1.12c2.992 0 4.672-.096 6.608-.496l.16 1.088c-2 .4-3.712.496-6.768.496h-1.12v-1.088Zm0-5.264h6.384v1.088h-5.072v4.88h-1.312v-5.968Zm23.871-1.104h1.328v14.464h-1.328v-14.464Zm1.008 5.936h2.688v1.12h-2.688v-1.12Zm-10.88-3.632h8.528v1.088h-8.528v-1.088Zm4.32 2.288c2.048 0 3.52 1.376 3.52 3.328s-1.472 3.328-3.52 3.328c-2.032 0-3.52-1.376-3.52-3.328s1.488-3.328 3.52-3.328Zm0 1.104c-1.312 0-2.256.912-2.256 2.224 0 1.296.944 2.224 2.256 2.224 1.312 0 2.256-.928 2.256-2.224 0-1.312-.944-2.224-2.256-2.224Zm-.688-5.52h1.328v2.624h-1.328v-2.624Zm12.927 4.16h9.824v1.088h-9.824v-1.088Zm-1.776 3.024h13.12v1.088h-13.12v-1.088Zm1.776-6.832h1.312v4.352h-1.312v-4.352Zm-.096 12.496h10v1.088h-10v-1.088Zm0-3.136h1.312v3.424h-1.312v-3.424ZM154 118.848h1.12v.528c0 2.464-2.816 4.112-5.824 4.496l-.448-1.024c2.624-.288 5.152-1.68 5.152-3.472v-.528Zm.224 0h1.12v.528c0 1.792 2.528 3.184 5.152 3.472l-.464 1.024c-2.992-.384-5.808-2.032-5.808-4.496v-.528ZM154 125.6h1.312v2.208H154V125.6Zm-5.872-.784H161.2v1.072h-13.072v-1.072Zm1.584 2.496h9.824v3.296h-8.48v1.744h-1.312v-2.704h8.48v-1.312h-8.512v-1.024Zm.032 4.736h10.224v1.04h-10.224v-1.04Zm19.647-13.024c3.184 0 5.088.896 5.088 2.512s-1.904 2.512-5.088 2.512c-3.2 0-5.088-.896-5.088-2.512s1.888-2.512 5.088-2.512Zm0 1.008c-2.368 0-3.728.544-3.728 1.504s1.36 1.504 3.728 1.504c2.352 0 3.712-.544 3.712-1.504s-1.36-1.504-3.712-1.504Zm-6.544 4.976h13.072v1.072h-13.072v-1.072Zm1.584 2.304h9.824v3.264h-8.48v1.76h-1.312v-2.72h8.48v-1.28h-8.512v-1.024Zm.032 4.736h10.224v1.04h-10.224v-1.04Zm27.163-13.264h1.328v7.36h-1.328v-7.36Zm.752 3.104h2.704v1.104h-2.704v-1.104ZM182.33 119.6h6.64v5.792h-6.64V119.6Zm5.344 1.056h-4.048v3.68h4.048v-3.68Zm-3.904 6.176h9.184v3.552h-7.84v2.16h-1.312v-3.168h7.856v-1.488h-7.888v-1.056Zm.032 5.152h9.68v1.072h-9.68v-1.072Zm22.542-13.184h1.328v10.848h-1.328V118.8Zm.912 4.736h2.56v1.12h-2.56v-1.12Zm-10.768-2.992h8.544v1.072h-8.544v-1.072Zm4.272 1.872c2.048 0 3.456 1.072 3.456 2.704 0 1.616-1.408 2.688-3.456 2.688-2.064 0-3.472-1.072-3.472-2.688 0-1.632 1.408-2.704 3.472-2.704Zm0 1.04c-1.312 0-2.208.656-2.208 1.664 0 .992.896 1.648 2.208 1.648 1.296 0 2.192-.656 2.192-1.648 0-1.008-.896-1.664-2.192-1.664Zm-.672-4.672h1.328v2.32h-1.328v-2.32Zm-1.424 13.056h9.664v1.088h-9.664v-1.088Zm0-3.056h1.328v3.52h-1.328v-3.52Zm22.287-10.016h1.344v14.496h-1.344v-14.496Zm1.024 5.712h2.688v1.12h-2.688v-1.12Zm-10.192 4.064h1.136c2.672 0 4.544-.096 6.704-.496l.144 1.12c-2.224.416-4.128.496-6.848.496h-1.136v-1.12Zm0-8.368h6.72v1.088h-5.408v7.776h-1.312v-8.864ZM37.896 44.04h3.168v2.808h4.224V44.04h3.12v10.392H37.896V44.04Zm3.168 5.232v2.616h4.224v-2.616h-4.224Zm6.624-1.296h5.4v2.568h-5.4v-2.568Zm4.68-5.064h3.192V55.08h-3.192V42.912ZM40.8 56.016h3.168v1.992h8.424v-1.992h3.168v8.856H40.8v-8.856Zm3.168 4.44v1.872h8.424v-1.872h-8.424ZM64.174 45.12h2.592v1.416c0 4.176-1.968 8.04-6.24 9.432l-1.608-2.52c3.672-1.2 5.256-4.128 5.256-6.912V45.12Zm.672 0h2.568v1.416c0 2.592 1.512 5.328 5.016 6.504l-1.56 2.496c-4.128-1.368-6.024-5.064-6.024-9V45.12Zm6.288 3.096h4.224v2.592h-4.224v-2.592Zm-11.352-4.08h11.952v2.52H59.782v-2.52Zm2.712 13.008h15.144v7.992h-3.192v-5.448H62.494v-2.544Zm11.952-14.232h3.192v13.224h-3.192V42.912Zm24.156 5.376h4.224v2.592h-4.224v-2.592Zm3.36-5.376h3.192v13.2h-3.192v-13.2Zm-4.344 13.68c4.704 0 7.608 1.608 7.608 4.296 0 2.712-2.904 4.272-7.608 4.272s-7.608-1.56-7.608-4.272c0-2.688 2.904-4.296 7.608-4.296Zm0 2.424c-2.88 0-4.416.6-4.416 1.872 0 1.248 1.536 1.848 4.416 1.848 2.904 0 4.44-.6 4.44-1.848 0-1.272-1.536-1.872-4.44-1.872ZM91.69 45.144h2.592v1.392c0 4.248-1.968 8.136-6.216 9.576l-1.632-2.52c3.672-1.248 5.256-4.2 5.256-7.056v-1.392Zm.672 0h2.568v1.392c0 2.616 1.512 5.328 5.016 6.504l-1.56 2.52c-4.128-1.368-6.024-5.064-6.024-9.024v-1.392Zm-5.064-.888H99.25V46.8H87.298v-2.544Zm28.486.12c3.504 0 6.12 2.28 6.12 5.472 0 3.216-2.616 5.496-6.12 5.496-3.48 0-6.144-2.28-6.144-5.496 0-3.192 2.664-5.472 6.144-5.472Zm0 2.736c-1.704 0-3 1.008-3 2.736 0 1.752 1.296 2.76 3 2.76s3-1.008 3-2.76c0-1.728-1.296-2.736-3-2.736Zm8.208-4.224h3.192v22.296h-3.192V42.888Zm-14.88 17.784-.384-2.568c3.912 0 9.36-.048 14.04-.744l.24 2.304c-4.824.96-10.056 1.008-13.896 1.008Z"/>
  <path stroke="#000" d="M36 157.5h380"/>
</svg>