 <svg width="395" height="59" viewBox="0 0 395 59" fill="none" xmlns="http://www.w3.org/2000/svg">
<path d="M3.84 11.112C2.304 11.112 1.488 9.936 1.488 7.848C1.488 5.4 2.688 3.552 5.112 2.304L5.928 3.888C4.344 4.704 3.576 5.736 3.576 7.344L3.744 9.552L2.448 7.824C2.856 7.512 3.312 7.272 3.84 7.272C4.872 7.272 5.736 7.968 5.736 9.096C5.736 10.344 4.944 11.112 3.84 11.112ZM17.1887 1.032H19.8767V1.44C19.8767 5.16 16.5407 8.088 10.8047 8.712L9.74869 6.312C14.7647 5.808 17.1887 3.6 17.1887 1.44V1.032ZM17.7407 1.032H20.4527V1.44C20.4527 3.6 22.8767 5.808 27.8687 6.312L26.8127 8.712C21.0767 8.088 17.7407 5.16 17.7407 1.44V1.032ZM17.1887 11.568H20.3807V14.664H17.1887V11.568ZM8.76469 9.624H28.8527V12.12H8.76469V9.624ZM11.0687 13.56H26.4287V19.32H14.2367V21.24H11.0927V17.112H23.2847V15.936H11.0687V13.56ZM11.0927 20.592H27.0047V22.992H11.0927V20.592ZM32.5468 10.848L31.7308 9.288C33.3148 8.448 34.0828 7.44 34.0828 5.808L33.9148 3.624L35.1868 5.328C34.8028 5.664 34.3468 5.88 33.8428 5.88C32.7868 5.88 31.9228 5.184 31.9228 4.032C31.9228 2.808 32.7148 2.04 33.8428 2.04C35.3548 2.04 36.1708 3.24 36.1708 5.28C36.1708 7.728 34.9708 9.6 32.5468 10.848ZM38.6475 12.24H58.7355V14.784H38.6475V12.24ZM41.0715 20.208H56.4795V22.752H41.0715V20.208ZM41.0715 16.272H44.2635V21.024H41.0715V16.272ZM48.7035 1.56C53.5275 1.56 56.7435 3.312 56.7435 6.144C56.7435 8.976 53.5275 10.728 48.7035 10.728C43.8555 10.728 40.6635 8.976 40.6635 6.144C40.6635 3.312 43.8555 1.56 48.7035 1.56ZM48.7035 4.104C45.7035 4.104 43.9515 4.8 43.9515 6.144C43.9515 7.512 45.7035 8.184 48.7035 8.184C51.7035 8.184 53.4555 7.512 53.4555 6.144C53.4555 4.8 51.7035 4.104 48.7035 4.104ZM80.4671 0.935999H83.6591V17.544H80.4671V0.935999ZM82.7471 7.704H86.6111V10.32H82.7471V7.704ZM66.1631 3.24H79.2431V5.736H66.1631V3.24ZM72.7151 6.528C75.9071 6.528 78.1631 8.28 78.1631 10.824C78.1631 13.368 75.9071 15.096 72.7151 15.096C69.4991 15.096 67.2431 13.368 67.2431 10.824C67.2431 8.28 69.4991 6.528 72.7151 6.528ZM72.7151 8.952C71.2991 8.952 70.3151 9.624 70.3151 10.824C70.3151 12.024 71.2991 12.672 72.7151 12.672C74.1311 12.672 75.1151 12.024 75.1151 10.824C75.1151 9.624 74.1311 8.952 72.7151 8.952ZM71.1071 0.887999H74.2991V4.464H71.1071V0.887999ZM69.3311 20.208H84.4511V22.752H69.3311V20.208ZM69.3311 16.296H72.5231V21.312H69.3311V16.296ZM90.7133 1.848H104.801V4.392H90.7133V1.848ZM88.2653 9.528H108.377V12.072H88.2653V9.528ZM96.6893 11.328H99.8813V15.984H96.6893V11.328ZM102.881 1.848H106.025V3.624C106.025 5.544 106.025 7.776 105.329 10.704L102.185 10.392C102.881 7.536 102.881 5.496 102.881 3.624V1.848ZM90.2812 15.192H106.049V23.136H102.857V17.712H90.2812V15.192ZM127.661 6.648H132.845V9.216H127.661V6.648ZM131.165 0.935999H134.357V17.136H131.165V0.935999ZM119.693 20.208H134.861V22.752H119.693V20.208ZM119.693 15.768H122.885V21.72H119.693V15.768ZM120.893 3.84H123.485V5.232C123.485 9.408 121.517 13.272 117.245 14.688L115.637 12.144C119.309 10.944 120.893 8.04 120.893 5.232V3.84ZM121.565 3.84H124.133V5.232C124.133 7.824 125.645 10.584 129.149 11.76L127.589 14.256C123.461 12.888 121.565 9.192 121.565 5.232V3.84ZM116.501 2.424H128.453V4.944H116.501V2.424ZM137.811 12.36H157.923V14.856H137.811V12.36ZM146.259 9.984H149.451V13.272H146.259V9.984ZM140.307 8.592H155.787V11.016H140.307V8.592ZM140.307 1.464H155.619V3.888H143.475V9.96H140.307V1.464ZM142.587 5.064H155.115V7.392H142.587V5.064ZM147.843 15.84C152.715 15.84 155.547 17.136 155.547 19.488C155.547 21.864 152.715 23.136 147.843 23.136C142.947 23.136 140.115 21.864 140.115 19.488C140.115 17.136 142.947 15.84 147.843 15.84ZM147.843 18.192C144.747 18.192 143.331 18.576 143.331 19.488C143.331 20.424 144.747 20.808 147.843 20.808C150.915 20.808 152.331 20.424 152.331 19.488C152.331 18.576 150.915 18.192 147.843 18.192ZM168.145 3.384H170.905V4.032C170.905 7.944 167.713 11.136 162.073 11.904L160.897 9.408C165.793 8.808 168.145 6.312 168.145 4.032V3.384ZM169.057 3.384H171.817V4.032C171.817 6.312 174.169 8.808 179.065 9.408L177.913 11.904C172.249 11.136 169.057 7.944 169.057 4.032V3.384ZM168.313 15H171.481V23.16H168.313V15ZM159.937 13.176H180.025V15.72H159.937V13.176ZM161.713 2.04H178.201V4.56H161.713V2.04ZM189.143 2.376C192.647 2.376 195.263 4.656 195.263 7.848C195.263 11.064 192.647 13.344 189.143 13.344C185.663 13.344 182.999 11.064 182.999 7.848C182.999 4.656 185.663 2.376 189.143 2.376ZM189.143 5.112C187.439 5.112 186.143 6.12 186.143 7.848C186.143 9.6 187.439 10.608 189.143 10.608C190.847 10.608 192.143 9.6 192.143 7.848C192.143 6.12 190.847 5.112 189.143 5.112ZM197.351 0.887999H200.543V23.184H197.351V0.887999ZM182.471 18.672L182.087 16.104C185.999 16.104 191.447 16.056 196.127 15.36L196.367 17.664C191.543 18.624 186.311 18.672 182.471 18.672ZM223.715 0.887999H226.931V23.112H223.715V0.887999ZM226.091 9.384H230.003V12H226.091V9.384ZM217.883 3.192H221.003C221.003 9.864 218.459 15.576 211.067 19.296L209.291 16.872C215.123 13.848 217.883 9.768 217.883 3.744V3.192ZM210.515 3.192H219.515V5.76H210.515V3.192ZM246.849 0.912H250.065V23.136H246.849V0.912ZM237.057 6.672H239.577V7.824C239.577 12.528 237.489 17.256 233.385 19.032L231.681 16.584C235.329 14.952 237.057 11.184 237.057 7.824V6.672ZM237.753 6.672H240.249V7.824C240.249 11.016 242.001 14.664 245.673 16.224L243.969 18.672C239.865 16.968 237.753 12.384 237.753 7.824V6.672ZM232.425 4.536H244.785V7.056H232.425V4.536ZM237.057 1.416H240.249V5.832H237.057V1.416ZM253.663 10.872H273.799V13.2H253.663V10.872ZM255.919 14.304H271.399V19.584H259.135V21.48H255.967V17.568H268.255V16.464H255.919V14.304ZM255.967 20.808H272.023V22.968H255.967V20.808ZM256.135 1.296H271.351V6.528H259.327V8.352H256.159V4.536H268.207V3.432H256.135V1.296ZM256.159 7.68H271.759V9.84H256.159V7.68ZM295.483 0.912H298.675V12H295.483V0.912ZM297.379 5.16H301.603V7.776H297.379V5.16ZM283.987 12.888H298.675V18.984H287.203V21.624H284.035V16.68H295.531V15.336H283.987V12.888ZM284.035 20.4H299.323V22.896H284.035V20.4ZM287.251 1.56C290.659 1.56 293.179 3.648 293.179 6.6C293.179 9.528 290.659 11.64 287.251 11.64C283.867 11.64 281.323 9.528 281.323 6.6C281.323 3.648 283.867 1.56 287.251 1.56ZM287.251 4.128C285.619 4.128 284.419 5.04 284.419 6.6C284.419 8.16 285.619 9.096 287.251 9.096C288.907 9.096 290.107 8.16 290.107 6.6C290.107 5.04 288.907 4.128 287.251 4.128ZM318.569 0.887999H321.761V23.184H318.569V0.887999ZM304.457 15.408H306.425C310.361 15.408 313.505 15.264 317.033 14.664L317.345 17.232C313.745 17.88 310.481 18 306.425 18H304.457V15.408ZM304.433 2.784H314.921V11.376H307.697V16.368H304.457V8.856H311.657V5.328H304.433V2.784ZM340.647 0.912H343.863V23.136H340.647V0.912ZM334.095 3.216H337.263C337.263 10.008 334.959 15.576 327.063 19.392L325.407 16.848C331.791 13.776 334.095 9.744 334.095 3.792V3.216ZM326.583 3.216H335.607V5.736H326.583V3.216ZM360.051 1.8C363.435 1.8 365.883 3.744 365.883 6.552C365.883 9.312 363.435 11.304 360.051 11.304C356.691 11.304 354.243 9.312 354.243 6.552C354.243 3.744 356.691 1.8 360.051 1.8ZM360.051 4.392C358.443 4.392 357.291 5.16 357.291 6.552C357.291 7.92 358.443 8.688 360.051 8.688C361.683 8.688 362.835 7.92 362.835 6.552C362.835 5.16 361.683 4.392 360.051 4.392ZM358.563 13.512H361.755V22.464H358.563V13.512ZM368.283 0.912H371.451V23.136H368.283V0.912ZM353.307 15.192L352.923 12.6C356.811 12.6 362.307 12.552 367.011 11.832L367.227 14.16C362.403 15.12 357.147 15.168 353.307 15.192ZM374.905 4.248H385.537V6.792H374.905V4.248ZM380.257 7.776C383.089 7.776 385.129 9.96 385.129 13.08C385.129 16.176 383.089 18.36 380.257 18.36C377.449 18.36 375.385 16.176 375.385 13.08C375.385 9.96 377.449 7.776 380.257 7.776ZM380.257 10.44C379.057 10.44 378.217 11.4 378.217 13.08C378.217 14.76 379.057 15.696 380.257 15.696C381.457 15.696 382.321 14.76 382.321 13.08C382.321 11.4 381.457 10.44 380.257 10.44ZM390.985 0.912H394.033V23.136H390.985V0.912ZM388.321 9.936H391.993V12.504H388.321V9.936ZM386.329 1.32H389.305V22.2H386.329V1.32ZM378.697 1.512H381.841V5.856H378.697V1.512ZM0.96 46.712H21.096V49.232H0.96V46.712ZM9.576 48.368H12.816V53.048H9.576V48.368ZM3.312 55.184H18.888V57.752H3.312V55.184ZM3.312 51.104H6.528V55.832H3.312V51.104ZM11.016 36.32C15.792 36.32 19.008 38.12 19.008 40.928C19.008 43.76 15.792 45.536 11.016 45.536C6.216 45.536 3.024 43.76 3.024 40.928C3.024 38.12 6.216 36.32 11.016 36.32ZM11.016 38.84C8.208 38.84 6.456 39.56 6.456 40.928C6.456 42.296 8.208 42.992 11.016 42.992C13.824 42.992 15.576 42.296 15.576 40.928C15.576 39.56 13.824 38.84 11.016 38.84ZM32.8781 38.816H39.4541V41.36H32.8781V38.816ZM32.8781 43.736H39.4541V46.304H32.8781V43.736ZM29.1821 37.088C32.4941 37.088 35.0381 39.392 35.0381 42.536C35.0381 45.68 32.4941 47.984 29.1821 47.984C25.8461 47.984 23.3021 45.68 23.3021 42.536C23.3021 39.392 25.8461 37.088 29.1821 37.088ZM29.1821 39.8C27.5501 39.8 26.3501 40.784 26.3501 42.536C26.3501 44.264 27.5501 45.296 29.1821 45.296C30.8141 45.296 32.0141 44.264 32.0141 42.536C32.0141 40.784 30.8141 39.8 29.1821 39.8ZM38.4461 35.912H41.6381V48.92H38.4461V35.912ZM34.1021 49.376C38.7821 49.376 41.7101 51.008 41.7101 53.768C41.7101 56.528 38.7821 58.136 34.1021 58.136C29.4221 58.136 26.4941 56.528 26.4941 53.768C26.4941 51.008 29.4221 49.376 34.1021 49.376ZM34.1021 51.848C31.1981 51.848 29.6381 52.472 29.6381 53.768C29.6381 55.064 31.1981 55.688 34.1021 55.688C37.0301 55.688 38.5661 55.064 38.5661 53.768C38.5661 52.472 37.0301 51.848 34.1021 51.848ZM59.3723 35.912H62.5403V58.136H59.3723V35.912ZM61.8203 44.576H65.7563V47.24H61.8203V44.576ZM45.0203 39.2H57.9563V41.744H45.0203V39.2ZM51.5243 42.992C54.7643 42.992 57.1643 45.2 57.1643 48.296C57.1643 51.392 54.7643 53.6 51.5243 53.6C48.2843 53.6 45.8843 51.392 45.8843 48.296C45.8843 45.2 48.2843 42.992 51.5243 42.992ZM51.5243 45.584C50.0123 45.584 48.9323 46.592 48.9323 48.296C48.9323 50 50.0123 51.008 51.5243 51.008C53.0363 51.008 54.1163 50 54.1163 48.296C54.1163 46.592 53.0363 45.584 51.5243 45.584ZM49.9163 36.272H53.1083V40.16H49.9163V36.272ZM69.6904 41.912H85.0984V44.432H69.6904V41.912ZM67.1944 46.736H87.3304V49.28H67.1944V46.736ZM69.6904 36.704H72.8584V43.16H69.6904V36.704ZM69.4744 55.112H85.2184V57.656H69.4744V55.112ZM69.4744 51.056H72.6664V55.784H69.4744V51.056ZM106.758 41.288H110.982V43.88H106.758V41.288ZM110.118 35.912H113.31V49.112H110.118V35.912ZM105.774 49.592C110.478 49.592 113.382 51.2 113.382 53.888C113.382 56.6 110.478 58.16 105.774 58.16C101.07 58.16 98.166 56.6 98.166 53.888C98.166 51.2 101.07 49.592 105.774 49.592ZM105.774 52.016C102.894 52.016 101.358 52.616 101.358 53.888C101.358 55.136 102.894 55.736 105.774 55.736C108.678 55.736 110.214 55.136 110.214 53.888C110.214 52.616 108.678 52.016 105.774 52.016ZM99.846 38.144H102.438V39.536C102.438 43.784 100.47 47.672 96.222 49.112L94.59 46.592C98.262 45.344 99.846 42.392 99.846 39.536V38.144ZM100.518 38.144H103.086V39.536C103.086 42.152 104.598 44.864 108.102 46.04L106.542 48.56C102.414 47.192 100.518 43.496 100.518 39.536V38.144ZM95.454 37.256H107.406V39.8H95.454V37.256ZM116.812 52.976H136.924V55.568H116.812V52.976ZM125.236 48.224H128.428V53.6H125.236V48.224ZM118.924 37.328H122.092V40.736H131.572V37.328H134.74V48.896H118.924V37.328ZM122.092 43.232V46.352H131.572V43.232H122.092ZM143.858 47.168H147.05V52.424H143.858V47.168ZM145.418 37.208C148.85 37.208 151.466 39.488 151.466 42.68C151.466 45.872 148.85 48.152 145.418 48.152C141.962 48.152 139.37 45.872 139.37 42.68C139.37 39.488 141.962 37.208 145.418 37.208ZM145.418 39.92C143.738 39.92 142.49 40.928 142.49 42.68C142.49 44.408 143.738 45.44 145.418 45.44C147.098 45.44 148.346 44.408 148.346 42.68C148.346 40.928 147.098 39.92 145.418 39.92ZM153.218 35.912H156.41V58.136H153.218V35.912ZM155.426 44.6H159.338V47.264H155.426V44.6ZM139.01 53.72L138.626 51.152C142.466 51.128 147.65 51.152 152.066 50.552L152.306 52.88C147.698 53.744 142.754 53.744 139.01 53.72ZM166.406 52.928H186.518V55.544H166.406V52.928ZM174.758 47.984H177.926V53.624H174.758V47.984ZM174.638 37.136H177.422V38.744C177.422 43.472 173.99 47.648 168.182 48.704L166.862 46.04C171.926 45.224 174.638 41.816 174.638 38.744V37.136ZM175.262 37.136H178.046V38.744C178.046 41.888 180.758 45.224 185.846 46.04L184.526 48.704C178.694 47.624 175.262 43.544 175.262 38.744V37.136ZM204.444 35.912H207.492V58.136H204.444V35.912ZM201.636 44.288H205.308V46.832H201.636V44.288ZM195.012 38.624H198.06C198.06 44.888 196.236 49.952 190.02 53.576L188.172 51.368C193.236 48.368 195.012 44.624 195.012 39.296V38.624ZM189.3 38.624H195.948V41.192H189.3V38.624ZM199.524 36.488H202.5V57.176H199.524V36.488ZM220.968 37.616H223.56V40.856C223.56 46.352 221.64 51.512 217.44 53.576L215.52 51.008C219.264 49.256 220.968 44.984 220.968 40.856V37.616ZM221.616 37.616H224.16V40.856C224.16 44.84 225.744 48.896 229.296 50.624L227.376 53.168C223.368 51.128 221.616 46.184 221.616 40.856V37.616ZM230.184 35.912H233.4V58.136H230.184V35.912ZM232.68 44.456H236.616V47.12H232.68V44.456ZM253.294 35.888H256.51V58.184H253.294V35.888ZM244.534 37.448C247.894 37.448 250.366 40.52 250.366 45.368C250.366 50.264 247.894 53.336 244.534 53.336C241.174 53.336 238.702 50.264 238.702 45.368C238.702 40.52 241.174 37.448 244.534 37.448ZM244.534 40.352C242.878 40.352 241.75 42.104 241.75 45.368C241.75 48.68 242.878 50.456 244.534 50.456C246.19 50.456 247.294 48.68 247.294 45.368C247.294 42.104 246.19 40.352 244.534 40.352ZM262.508 47.36H278.132V49.856H262.508V47.36ZM260.156 53H280.268V55.592H260.156V53ZM262.508 37.52H277.94V40.088H265.748V48.056H262.508V37.52ZM264.764 42.416H277.436V44.888H264.764V42.416ZM297.474 35.912H300.69V47.864H297.474V35.912ZM285.906 48.824H289.05V50.888H297.522V48.824H300.69V57.896H285.906V48.824ZM289.05 53.336V55.352H297.522V53.336H289.05ZM288.594 36.824C292.05 36.824 294.618 39.008 294.618 42.08C294.618 45.152 292.05 47.336 288.594 47.336C285.138 47.336 282.546 45.152 282.546 42.08C282.546 39.008 285.138 36.824 288.594 36.824ZM288.594 39.464C286.89 39.464 285.666 40.448 285.666 42.08C285.666 43.736 286.89 44.696 288.594 44.696C290.274 44.696 291.498 43.736 291.498 42.08C291.498 40.448 290.274 39.464 288.594 39.464ZM319.672 35.912H322.864V58.136H319.672V35.912ZM305.464 38.024H308.632V51.824H305.464V38.024ZM305.464 49.952H307.432C310.672 49.952 314.272 49.712 317.944 48.992L318.304 51.632C314.488 52.424 310.816 52.664 307.432 52.664H305.464V49.952ZM340.574 35.888H343.79V58.184H340.574V35.888ZM343.07 44.12H347.006V46.736H343.07V44.12ZM327.23 50.192H329.102C332.846 50.192 335.798 50.072 339.062 49.496L339.374 52.136C336.014 52.736 332.966 52.832 329.102 52.832H327.23V50.192ZM327.23 37.952H337.598V40.52H330.398V51.464H327.23V37.952ZM351.372 56.336C350.1 56.336 349.188 55.352 349.188 54.032C349.188 52.712 350.1 51.752 351.372 51.752C352.62 51.752 353.58 52.712 353.58 54.032C353.58 55.352 352.62 56.336 351.372 56.336Z" fill="black"/>
</svg>
