<svg width="448" height="300" viewBox="0 0 448 300" fill="none" xmlns="http://www.w3.org/2000/svg">
<rect width="448" height="300" rx="15" fill="#D9D9D9"/>
<path d="M21.944 44.52H31.448V47.088H21.944V44.52ZM24.68 49.704H27.848V55.272H24.68V49.704ZM30.2 44.52H33.344V45.912C33.344 47.472 33.344 49.68 32.816 52.44L29.72 52.104C30.2 49.368 30.2 47.448 30.2 45.912V44.52ZM35.504 42.912H38.72V59.544H35.504V42.912ZM37.448 49.68H41.36V52.296H37.448V49.68ZM23.888 62.208H39.416V64.752H23.888V62.208ZM23.888 58.056H27.08V63H23.888V58.056ZM20.936 56.568L20.648 54.048C24.488 54.048 29.84 53.976 34.304 53.352L34.496 55.608C29.912 56.472 24.752 56.568 20.936 56.568ZM45.3901 56.232H48.5341V58.104H57.4381V56.232H60.6061V64.896H45.3901V56.232ZM48.5341 60.48V62.4H57.4381V60.48H48.5341ZM43.0381 52.608H63.1261V55.128H43.0381V52.608ZM51.4621 43.152H54.1981V43.824C54.1981 47.688 50.8861 50.88 45.1501 51.624L44.0221 49.152C49.0381 48.552 51.4621 46.08 51.4621 43.824V43.152ZM51.9901 43.152H54.7261V43.824C54.7261 46.056 57.1501 48.552 62.1421 49.152L61.0141 51.624C55.2781 50.88 51.9901 47.664 51.9901 43.824V43.152ZM70.2523 45.12H72.8443V46.536C72.8443 50.712 70.8763 54.576 66.6043 55.968L64.9963 53.448C68.6683 52.248 70.2523 49.32 70.2523 46.536V45.12ZM70.9243 45.12H73.4923V46.536C73.4923 49.128 75.0043 51.864 78.5083 53.04L76.9483 55.536C72.8203 54.168 70.9243 50.472 70.9243 46.536V45.12ZM77.2123 48.216H81.4363V50.808H77.2123V48.216ZM65.8603 44.136H77.8123V46.656H65.8603V44.136ZM68.5723 57.144H83.7163V65.136H80.5243V59.688H68.5723V57.144ZM80.5243 42.912H83.7163V56.136H80.5243V42.912ZM99.7839 44.376C103.288 44.376 105.904 46.656 105.904 49.848C105.904 53.064 103.288 55.344 99.7839 55.344C96.3039 55.344 93.6399 53.064 93.6399 49.848C93.6399 46.656 96.3039 44.376 99.7839 44.376ZM99.7839 47.112C98.0799 47.112 96.7839 48.12 96.7839 49.848C96.7839 51.6 98.0799 52.608 99.7839 52.608C101.488 52.608 102.784 51.6 102.784 49.848C102.784 48.12 101.488 47.112 99.7839 47.112ZM107.992 42.888H111.184V65.184H107.992V42.888ZM93.1119 60.672L92.7279 58.104C96.6399 58.104 102.088 58.056 106.768 57.36L107.008 59.664C102.184 60.624 96.9519 60.672 93.1119 60.672ZM115.814 44.904H126.494V59.856H115.814V44.904ZM123.374 47.4H118.958V57.336H123.374V47.4ZM129.95 42.888H133.166V65.184H129.95V42.888Z" fill="black"/>
<path d="M30.688 92.8H32.016V103.648H30.688V92.8ZM31.6 97.536H34.16V98.656H31.6V97.536ZM20.832 94.544H29.376V95.616H20.832V94.544ZM25.104 96.416C27.152 96.416 28.56 97.488 28.56 99.12C28.56 100.736 27.152 101.808 25.104 101.808C23.04 101.808 21.632 100.736 21.632 99.12C21.632 97.488 23.04 96.416 25.104 96.416ZM25.104 97.456C23.792 97.456 22.896 98.112 22.896 99.12C22.896 100.112 23.792 100.768 25.104 100.768C26.4 100.768 27.296 100.112 27.296 99.12C27.296 98.112 26.4 97.456 25.104 97.456ZM24.432 92.784H25.76V95.104H24.432V92.784ZM23.008 105.84H32.672V106.928H23.008V105.84ZM23.008 102.784H24.336V106.304H23.008V102.784ZM50.427 98.544H53.099V99.664H50.427V98.544ZM49.451 92.768H50.795V107.248H49.451V92.768ZM40.235 94.192H41.563V103.152H40.235V94.192ZM40.235 102.464H41.387C43.531 102.464 45.723 102.32 48.107 101.824L48.267 102.928C45.803 103.44 43.579 103.584 41.387 103.584H40.235V102.464ZM64.1858 92.768H65.5138V107.264H64.1858V92.768ZM65.1938 98.528H67.8818V99.648H65.1938V98.528ZM54.9698 102.672H56.1218C58.8418 102.672 60.7298 102.576 62.9218 102.16L63.0658 103.264C60.8098 103.664 58.8898 103.776 56.1218 103.776H54.9698V102.672ZM54.9378 94.128H61.4818V99.312H56.2818V103.12H54.9698V98.224H60.1698V95.216H54.9378V94.128ZM79.8645 98.544H82.5365V99.664H79.8645V98.544ZM78.8885 92.768H80.2325V107.248H78.8885V92.768ZM69.6725 94.192H71.0005V103.152H69.6725V94.192ZM69.6725 102.464H70.8245C72.9685 102.464 75.1605 102.32 77.5445 101.824L77.7045 102.928C75.2405 103.44 73.0165 103.584 70.8245 103.584H69.6725V102.464ZM91.8115 94.848H92.8835V97.2C92.8835 100.256 91.0435 103.328 88.7395 104.464L87.9715 103.408C90.0675 102.416 91.8115 99.696 91.8115 97.2V94.848ZM92.0675 94.848H93.1395V97.2C93.1395 99.648 94.8835 102.144 97.0115 103.056L96.2595 104.112C93.9235 103.024 92.0675 100.208 92.0675 97.2V94.848ZM88.4515 94.256H96.5315V95.376H88.4515V94.256ZM98.4835 92.784H99.8115V107.248H98.4835V92.784ZM109.282 94.912H113.698V96H109.282V94.912ZM109.282 98.144H113.698V99.248H109.282V98.144ZM104.946 102.112H114.594V107.248H113.266V103.184H104.946V102.112ZM113.266 92.784H114.594V101.312H113.266V92.784ZM106.642 93.584C108.77 93.584 110.37 95.024 110.37 97.072C110.37 99.12 108.77 100.544 106.642 100.544C104.498 100.544 102.914 99.12 102.914 97.072C102.914 95.024 104.498 93.584 106.642 93.584ZM106.642 94.72C105.234 94.72 104.194 95.696 104.194 97.072C104.194 98.448 105.234 99.408 106.642 99.408C108.05 99.408 109.106 98.448 109.106 97.072C109.106 95.696 108.05 94.72 106.642 94.72ZM121.581 99.664H134.653V100.768H121.581V99.664ZM123.229 97.216H133.133V98.288H123.229V97.216ZM123.229 93.36H133.021V94.448H124.541V97.728H123.229V93.36ZM128.093 102.016C131.181 102.016 133.053 102.96 133.053 104.624C133.053 106.288 131.181 107.216 128.093 107.216C125.005 107.216 123.133 106.288 123.133 104.624C123.133 102.96 125.005 102.016 128.093 102.016ZM128.093 103.04C125.837 103.04 124.477 103.616 124.477 104.624C124.477 105.616 125.837 106.176 128.093 106.176C130.365 106.176 131.709 105.616 131.709 104.624C131.709 103.616 130.365 103.04 128.093 103.04ZM142.156 98.4H144.892V99.504H142.156V98.4ZM147.308 92.784H148.588V107.248H147.308V92.784ZM144.444 93.088H145.708V106.528H144.444V93.088ZM139.548 93.984C141.42 93.984 142.636 95.92 142.636 99.024C142.636 102.128 141.42 104.064 139.548 104.064C137.676 104.064 136.476 102.128 136.476 99.024C136.476 95.92 137.676 93.984 139.548 93.984ZM139.548 95.216C138.412 95.216 137.692 96.688 137.692 99.024C137.692 101.36 138.412 102.832 139.548 102.832C140.7 102.832 141.42 101.36 141.42 99.024C141.42 96.688 140.7 95.216 139.548 95.216ZM155.815 94.368H162.359V95.44H155.815V94.368ZM158.071 98.496H159.383V103.392H158.071V98.496ZM161.815 94.368H163.111V95.136C163.111 96.32 163.111 98.208 162.695 100.896L161.383 100.768C161.815 98.16 161.815 96.304 161.815 95.136V94.368ZM164.935 92.784H166.247V107.248H164.935V92.784ZM165.895 98.832H168.567V99.952H165.895V98.832ZM155.175 104.096L155.015 102.976C157.639 102.976 161.127 102.928 164.055 102.56L164.119 103.536C161.127 104.016 157.735 104.08 155.175 104.096ZM180.454 92.784H181.782V107.248H180.454V92.784ZM177.078 98.576H181.046V99.68H177.078V98.576ZM175.814 94.336H177.126C177.126 98.464 175.414 102.112 170.614 104.512L169.878 103.472C174.086 101.408 175.814 98.336 175.814 94.56V94.336ZM170.502 94.336H176.518V95.424H170.502V94.336ZM190.469 98.4H193.205V99.504H190.469V98.4ZM195.621 92.784H196.901V107.248H195.621V92.784ZM192.757 93.088H194.021V106.528H192.757V93.088ZM187.861 93.984C189.733 93.984 190.949 95.92 190.949 99.024C190.949 102.128 189.733 104.064 187.861 104.064C185.989 104.064 184.789 102.128 184.789 99.024C184.789 95.92 185.989 93.984 187.861 93.984ZM187.861 95.216C186.725 95.216 186.005 96.688 186.005 99.024C186.005 101.36 186.725 102.832 187.861 102.832C189.013 102.832 189.733 101.36 189.733 99.024C189.733 96.688 189.013 95.216 187.861 95.216ZM206.547 97.68H210.579V98.768H206.547V97.68ZM203.059 94.032H204.147V96.608C204.147 99.856 202.435 102.96 200.147 104.192L199.299 103.136C201.427 102.08 203.059 99.296 203.059 96.608V94.032ZM203.315 94.032H204.387V96.608C204.387 99.248 206.019 101.872 208.115 102.864L207.331 103.936C204.995 102.752 203.315 99.776 203.315 96.608V94.032ZM209.923 92.768H211.235V107.264H209.923V92.768ZM214.034 101.344H227.154V102.432H214.034V101.344ZM219.89 101.856H221.202V107.248H219.89V101.856ZM215.682 93.36H217.01V95.344H224.162V93.36H225.474V99.616H215.682V93.36ZM217.01 96.416V98.544H224.162V96.416H217.01ZM239.361 92.768H240.673V107.264H239.361V92.768ZM236.353 98.224H239.553V99.328H236.353V98.224ZM229.425 102.688H230.529C233.249 102.688 234.961 102.64 236.993 102.256L237.121 103.344C235.041 103.712 233.281 103.792 230.529 103.792H229.425V102.688ZM229.425 94.096H236.113V95.2H230.737V103.072H229.425V94.096ZM230.401 98.16H235.489V99.232H230.401V98.16ZM258.14 92.768H259.468V107.264H258.14V92.768ZM251.836 93.888C253.98 93.888 255.516 95.856 255.516 98.928C255.516 102.016 253.98 103.984 251.836 103.984C249.708 103.984 248.172 102.016 248.172 98.928C248.172 95.856 249.708 93.888 251.836 93.888ZM251.836 95.088C250.428 95.088 249.436 96.592 249.436 98.928C249.436 101.28 250.428 102.816 251.836 102.816C253.26 102.816 254.236 101.28 254.236 98.928C254.236 96.592 253.26 95.088 251.836 95.088ZM266.219 93.888C268.315 93.888 269.819 95.856 269.819 98.928C269.819 102.016 268.315 103.984 266.219 103.984C264.107 103.984 262.618 102.016 262.618 98.928C262.618 95.856 264.107 93.888 266.219 93.888ZM266.219 95.088C264.827 95.088 263.883 96.592 263.883 98.928C263.883 101.28 264.827 102.816 266.219 102.816C267.611 102.816 268.555 101.28 268.555 98.928C268.555 96.592 267.611 95.088 266.219 95.088ZM272.955 92.768H274.267V107.264H272.955V92.768ZM269.387 98.288H273.531V99.376H269.387V98.288ZM287.657 92.784H288.969V107.248H287.657V92.784ZM280.745 94.848H281.801V97.008C281.801 100.16 280.025 103.248 277.849 104.448L276.969 103.44C279.033 102.4 280.745 99.6 280.745 97.008V94.848ZM281.017 94.848H282.073V97.008C282.073 99.296 283.753 102.016 285.801 103.072L285.033 104.112C282.809 102.944 281.017 99.856 281.017 97.008V94.848ZM277.497 94.256H285.305V95.36H277.497V94.256ZM284.761 96.848H288.505V97.952H284.761V96.848ZM284.761 99.936H288.505V101.056H284.761V99.936ZM297.656 100.96H298.984V104.56H297.656V100.96ZM298.328 93.728C301.384 93.728 303.576 95.216 303.576 97.52C303.576 99.824 301.384 101.312 298.328 101.312C295.272 101.312 293.064 99.824 293.064 97.52C293.064 95.216 295.272 93.728 298.328 93.728ZM298.328 94.784C296.024 94.784 294.344 95.872 294.344 97.52C294.344 99.168 296.024 100.256 298.328 100.256C300.616 100.256 302.296 99.168 302.296 97.52C302.296 95.872 300.616 94.784 298.328 94.784ZM291.8 104.304H304.904V105.408H291.8V104.304ZM308.279 97.12H318.103V98.208H308.279V97.12ZM306.503 100.144H319.623V101.232H306.503V100.144ZM308.279 93.312H309.591V97.664H308.279V93.312ZM308.183 105.808H318.183V106.896H308.183V105.808ZM308.183 102.672H309.495V106.096H308.183V102.672ZM336.21 94.944H338.722V96.048H336.21V94.944ZM336.21 98.016H338.722V99.12H336.21V98.016ZM329.426 93.632C331.602 93.632 333.202 95.04 333.202 97.056C333.202 99.056 331.602 100.448 329.426 100.448C327.25 100.448 325.65 99.056 325.65 97.056C325.65 95.04 327.25 93.632 329.426 93.632ZM329.426 94.752C327.986 94.752 326.946 95.696 326.946 97.056C326.946 98.416 327.986 99.344 329.426 99.344C330.866 99.344 331.906 98.416 331.906 97.056C331.906 95.696 330.866 94.752 329.426 94.752ZM335.282 92.784H336.61V101.344H335.282V92.784ZM332.002 101.808C334.946 101.808 336.754 102.816 336.754 104.512C336.754 106.224 334.946 107.216 332.002 107.216C329.058 107.216 327.25 106.224 327.25 104.512C327.25 102.816 329.058 101.808 332.002 101.808ZM332.002 102.88C329.858 102.88 328.546 103.472 328.546 104.512C328.546 105.552 329.858 106.16 332.002 106.16C334.146 106.16 335.458 105.552 335.458 104.512C335.458 103.472 334.146 102.88 332.002 102.88ZM340.113 104.288H353.217V105.392H340.113V104.288ZM346.001 100.784H347.312V104.656H346.001V100.784ZM345.969 94.608H347.089V95.504C347.089 98.464 344.129 100.704 341.281 101.296L340.737 100.24C343.233 99.824 345.969 97.792 345.969 95.504V94.608ZM346.209 94.608H347.329V95.504C347.329 97.792 350.081 99.776 352.609 100.192L352.081 101.248C349.185 100.672 346.209 98.464 346.209 95.504V94.608ZM341.185 94.096H352.113V95.184H341.185V94.096ZM355.535 93.52H356.847V95.744H360.767V93.52H362.063V100.144H355.535V93.52ZM356.847 96.784V99.056H360.767V96.784H356.847ZM361.695 96.336H365.791V97.424H361.695V96.336ZM365.391 92.784H366.719V100.688H365.391V92.784ZM357.455 101.392H358.767V103.136H365.407V101.392H366.719V107.056H357.455V101.392ZM358.767 104.192V105.968H365.407V104.192H358.767ZM376.078 93.696C379.086 93.696 381.326 95.296 381.326 97.696C381.326 100.112 379.086 101.696 376.078 101.696C373.07 101.696 370.814 100.112 370.814 97.696C370.814 95.296 373.07 93.696 376.078 93.696ZM376.078 94.784C373.79 94.784 372.094 95.952 372.094 97.696C372.094 99.424 373.79 100.608 376.078 100.608C378.366 100.608 380.062 99.424 380.062 97.696C380.062 95.952 378.366 94.784 376.078 94.784ZM369.55 104.224H382.654V105.344H369.55V104.224ZM384.269 104.368H397.373V105.472H384.269V104.368ZM390.125 101.264H391.453V104.832H390.125V101.264ZM385.853 93.856H395.757V98.24H387.213V101.136H385.901V97.168H394.445V94.928H385.853V93.856ZM385.901 100.576H396.093V101.664H385.901V100.576ZM21.392 120.08H28.032V126.784H21.392V120.08ZM26.736 121.152H22.688V125.712H26.736V121.152ZM30.688 118.768H32.016V129.376H30.688V118.768ZM31.6 123.184H34.16V124.288H31.6V123.184ZM23.008 131.84H32.672V132.928H23.008V131.84ZM23.008 128.368H24.336V132.304H23.008V128.368ZM35.5188 126.08H48.5908V127.168H35.5188V126.08ZM37.1668 123.408H47.0868V124.512H37.1668V123.408ZM37.1668 119.408H46.9588V120.48H38.4948V123.776H37.1668V119.408ZM37.1828 131.824H47.2148V132.928H37.1828V131.824ZM37.1828 128.688H38.5108V132.112H37.1828V128.688ZM60.2498 118.848H61.3698V119.376C61.3698 121.84 58.5538 123.488 55.5458 123.872L55.0978 122.848C57.7218 122.56 60.2498 121.168 60.2498 119.376V118.848ZM60.4738 118.848H61.5938V119.376C61.5938 121.168 64.1218 122.56 66.7458 122.848L66.2818 123.872C63.2898 123.488 60.4738 121.84 60.4738 119.376V118.848ZM60.2498 125.6H61.5618V127.808H60.2498V125.6ZM54.3778 124.816H67.4498V125.888H54.3778V124.816ZM55.9618 127.312H65.7858V130.608H57.3058V132.352H55.9938V129.648H64.4738V128.336H55.9618V127.312ZM55.9938 132.048H66.2178V133.088H55.9938V132.048ZM69.1125 130.368H82.2165V131.472H69.1125V130.368ZM74.9685 127.264H76.2965V130.832H74.9685V127.264ZM70.6965 119.856H80.6005V124.24H72.0565V127.136H70.7445V123.168H79.2885V120.928H70.6965V119.856ZM70.7445 126.576H80.9365V127.664H70.7445V126.576ZM86.2473 130.32C86.1513 130.693 86.0286 131.099 85.8793 131.536C85.7299 131.973 85.5699 132.405 85.3993 132.832C85.2286 133.269 85.0526 133.68 84.8713 134.064H83.6393C83.7459 133.648 83.8473 133.205 83.9433 132.736C84.0499 132.277 84.1459 131.824 84.2313 131.376C84.3166 130.928 84.3859 130.517 84.4393 130.144H86.1353L86.2473 130.32ZM100.027 122.768H103.675V123.856H100.027V122.768ZM102.923 118.8H104.251V129.392H102.923V118.8ZM95.0185 131.84H104.651V132.928H95.0185V131.84ZM95.0185 128.464H96.3465V132.4H95.0185V128.464ZM96.0425 120.592H97.1305V121.76C97.1305 124.384 95.4985 126.656 93.0825 127.552L92.3945 126.496C94.5545 125.728 96.0425 123.808 96.0425 121.76V120.592ZM96.2985 120.592H97.3705V121.744C97.3705 123.616 98.7785 125.44 100.875 126.176L100.203 127.216C97.8505 126.368 96.2985 124.192 96.2985 121.744V120.592ZM92.8105 119.968H100.539V121.04H92.8105V119.968ZM107.065 126.448H120.137V127.52H107.065V126.448ZM112.937 124.576H114.249V126.896H112.937V124.576ZM108.793 123.984H118.601V125.024H108.793V123.984ZM108.793 119.2H118.537V120.24H110.105V124.544H108.793V119.2ZM109.721 121.568H118.153V122.592H109.721V121.568ZM113.593 128.592C116.745 128.592 118.553 129.392 118.553 130.912C118.553 132.416 116.745 133.216 113.593 133.216C110.441 133.216 108.633 132.416 108.633 130.912C108.633 129.392 110.441 128.592 113.593 128.592ZM113.593 129.6C111.273 129.6 109.977 130.064 109.977 130.912C109.977 131.776 111.273 132.224 113.593 132.224C115.913 132.224 117.209 131.776 117.209 130.912C117.209 130.064 115.913 129.6 113.593 129.6ZM125.48 120.256H126.568V121.424C126.568 124.064 124.936 126.32 122.52 127.216L121.832 126.16C123.992 125.392 125.48 123.472 125.48 121.424V120.256ZM125.736 120.256H126.808V121.424C126.808 123.28 128.216 125.088 130.312 125.824L129.64 126.88C127.288 126.016 125.736 123.84 125.736 121.424V120.256ZM129.528 122.544H132.744V123.648H129.528V122.544ZM122.248 119.776H129.976V120.848H122.248V119.776ZM124.04 128.224H133.688V133.248H132.36V129.312H124.04V128.224ZM132.36 118.784H133.688V127.44H132.36V118.784ZM147.031 118.8H148.375V129.36H147.031V118.8ZM139.079 131.84H148.807V132.928H139.079V131.84ZM139.079 128.272H140.391V132.208H139.079V128.272ZM140.615 119.792C142.775 119.792 144.375 121.264 144.375 123.36C144.375 125.44 142.775 126.928 140.615 126.928C138.455 126.928 136.839 125.44 136.839 123.36C136.839 121.264 138.455 119.792 140.615 119.792ZM140.615 120.944C139.207 120.944 138.135 121.936 138.135 123.36C138.135 124.768 139.207 125.76 140.615 125.76C142.023 125.76 143.095 124.768 143.095 123.36C143.095 121.936 142.023 120.944 140.615 120.944ZM166.21 120.944H168.722V122.048H166.21V120.944ZM166.21 124.016H168.722V125.12H166.21V124.016ZM159.426 119.632C161.602 119.632 163.202 121.04 163.202 123.056C163.202 125.056 161.602 126.448 159.426 126.448C157.25 126.448 155.65 125.056 155.65 123.056C155.65 121.04 157.25 119.632 159.426 119.632ZM159.426 120.752C157.986 120.752 156.946 121.696 156.946 123.056C156.946 124.416 157.986 125.344 159.426 125.344C160.866 125.344 161.906 124.416 161.906 123.056C161.906 121.696 160.866 120.752 159.426 120.752ZM165.282 118.784H166.61V127.344H165.282V118.784ZM162.002 127.808C164.946 127.808 166.754 128.816 166.754 130.512C166.754 132.224 164.946 133.216 162.002 133.216C159.058 133.216 157.25 132.224 157.25 130.512C157.25 128.816 159.058 127.808 162.002 127.808ZM162.002 128.88C159.858 128.88 158.546 129.472 158.546 130.512C158.546 131.552 159.858 132.16 162.002 132.16C164.146 132.16 165.458 131.552 165.458 130.512C165.458 129.472 164.146 128.88 162.002 128.88ZM170.113 130.288H183.217V131.392H170.113V130.288ZM176.001 126.784H177.312V130.656H176.001V126.784ZM175.969 120.608H177.089V121.504C177.089 124.464 174.129 126.704 171.281 127.296L170.737 126.24C173.233 125.824 175.969 123.792 175.969 121.504V120.608ZM176.209 120.608H177.329V121.504C177.329 123.792 180.081 125.776 182.609 126.192L182.081 127.248C179.185 126.672 176.209 124.464 176.209 121.504V120.608ZM171.185 120.096H182.113V121.184H171.185V120.096ZM185.535 119.52H186.847V121.744H190.767V119.52H192.063V126.144H185.535V119.52ZM186.847 122.784V125.056H190.767V122.784H186.847ZM191.695 122.336H195.791V123.424H191.695V122.336ZM195.391 118.784H196.719V126.688H195.391V118.784ZM187.455 127.392H188.767V129.136H195.407V127.392H196.719V133.056H187.455V127.392ZM188.767 130.192V131.968H195.407V130.192H188.767ZM206.078 119.024C209.262 119.024 211.166 119.92 211.166 121.536C211.166 123.152 209.262 124.048 206.078 124.048C202.878 124.048 200.99 123.152 200.99 121.536C200.99 119.92 202.878 119.024 206.078 119.024ZM206.078 120.032C203.71 120.032 202.35 120.576 202.35 121.536C202.35 122.496 203.71 123.04 206.078 123.04C208.43 123.04 209.79 122.496 209.79 121.536C209.79 120.576 208.43 120.032 206.078 120.032ZM199.534 125.008H212.606V126.08H199.534V125.008ZM201.118 127.312H210.942V130.576H202.462V132.336H201.15V129.616H209.63V128.336H201.118V127.312ZM201.15 132.048H211.374V133.088H201.15V132.048ZM224.025 122.8H227.241V123.872H224.025V122.8ZM223.913 126.432H227.209V127.504H223.913V126.432ZM229.433 118.784H230.713V133.248H229.433V118.784ZM226.537 119.152H227.785V132.512H226.537V119.152ZM223.305 120.608H224.585C224.585 124.4 223.065 127.808 219.177 130.128L218.409 129.184C221.785 127.136 223.305 124.256 223.305 120.848V120.608ZM219.049 120.608H223.833V121.696H219.049V120.608ZM239 119.024H240.136V119.664C240.136 122.224 237.352 124.064 234.392 124.544L233.896 123.488C236.488 123.136 239 121.536 239 119.664V119.024ZM239.208 119.024H240.344V119.664C240.344 121.504 242.888 123.136 245.448 123.488L244.952 124.544C242.008 124.064 239.208 122.176 239.208 119.664V119.024ZM233.128 125.68H246.2V126.768H233.128V125.68ZM239.656 128.096C242.76 128.096 244.616 129.024 244.616 130.656C244.616 132.32 242.76 133.232 239.656 133.232C236.552 133.232 234.696 132.32 234.696 130.656C234.696 129.024 236.552 128.096 239.656 128.096ZM239.656 129.12C237.4 129.12 236.04 129.696 236.04 130.656C236.04 131.648 237.4 132.208 239.656 132.208C241.928 132.208 243.272 131.648 243.272 130.656C243.272 129.696 241.928 129.12 239.656 129.12ZM252.771 119.712H259.507V125.632H252.771V119.712ZM258.227 120.784H254.051V124.576H258.227V120.784ZM262.531 118.784H263.859V127.088H262.531V118.784ZM258.611 128.8H259.747V129.072C259.747 131.152 257.171 132.816 254.243 133.2L253.795 132.176C256.307 131.888 258.611 130.512 258.611 129.072V128.8ZM258.803 128.8H259.955V129.072C259.955 130.464 262.195 131.872 264.707 132.176L264.259 133.2C261.315 132.8 258.803 131.104 258.803 129.072V128.8ZM254.371 128.064H264.195V129.104H254.371V128.064ZM258.611 126.672H259.955V128.528H258.611V126.672ZM270.894 130.304H283.998V131.408H270.894V130.304ZM276.75 126.848H278.078V130.624H276.75V126.848ZM272.43 119.808H273.742V122.384H281.118V119.808H282.43V127.2H272.43V119.808ZM273.742 123.456V126.112H281.118V123.456H273.742ZM291.277 120.144H292.461V120.576C292.461 123.024 289.853 124.752 286.893 125.2L286.397 124.128C288.957 123.792 291.277 122.352 291.277 120.576V120.144ZM291.837 120.144H293.005V120.576C293.005 122.336 295.341 123.792 297.901 124.128L297.389 125.2C294.445 124.752 291.837 123.024 291.837 120.576V120.144ZM286.797 119.488H297.501V120.56H286.797V119.488ZM287.293 131.84H297.229V132.928H287.293V131.84ZM287.293 128.848H288.621V132.272H287.293V128.848ZM285.597 126.592H298.717V127.664H285.597V126.592ZM291.469 124.192H292.781V127.024H291.469V124.192ZM310.123 118.784H311.451V133.248H310.123V118.784ZM311.131 124.72H313.819V125.84H311.131V124.72ZM300.251 121.088H308.779V122.176H300.251V121.088ZM304.571 123.376C306.619 123.376 308.091 124.752 308.091 126.704C308.091 128.656 306.619 130.032 304.571 130.032C302.539 130.032 301.051 128.656 301.051 126.704C301.051 124.752 302.539 123.376 304.571 123.376ZM304.571 124.48C303.259 124.48 302.315 125.392 302.315 126.704C302.315 128 303.259 128.928 304.571 128.928C305.883 128.928 306.827 128 306.827 126.704C306.827 125.392 305.883 124.48 304.571 124.48ZM303.883 118.96H305.211V121.584H303.883V118.96ZM321.562 122H325.93V123.104H321.562V122ZM321.562 126.576H325.93V127.68H321.562V126.576ZM318.906 119.888C321.002 119.888 322.506 121.856 322.506 124.928C322.506 128.016 321.002 129.984 318.906 129.984C316.794 129.984 315.306 128.016 315.306 124.928C315.306 121.856 316.794 119.888 318.906 119.888ZM318.906 121.088C317.514 121.088 316.554 122.592 316.554 124.928C316.554 127.28 317.514 128.816 318.906 128.816C320.298 128.816 321.258 127.28 321.258 124.928C321.258 122.592 320.298 121.088 318.906 121.088ZM325.642 118.768H326.954V133.264H325.642V118.768ZM340.485 128.368H341.621V128.752C341.621 131.056 339.205 132.72 336.357 133.2L335.877 132.192C338.373 131.808 340.485 130.4 340.485 128.752V128.368ZM340.725 128.368H341.861V128.752C341.861 130.4 344.005 131.808 346.517 132.192L346.021 133.2C343.173 132.736 340.725 131.056 340.725 128.752V128.368ZM336.453 127.904H345.925V128.976H336.453V127.904ZM344.437 118.784H345.781V127.184H344.437V118.784ZM334.677 119.584H335.973V121.776H340.133V119.584H341.445V126.256H334.677V119.584ZM335.973 122.832V125.184H340.133V122.832H335.973ZM350.404 123.12H360.228V124.208H350.404V123.12ZM348.628 126.144H361.748V127.232H348.628V126.144ZM350.404 119.312H351.716V123.664H350.404V119.312ZM350.308 131.808H360.308V132.896H350.308V131.808ZM350.308 128.672H351.62V132.096H350.308V128.672ZM373.375 118.848H374.495V119.376C374.495 121.84 371.679 123.488 368.671 123.872L368.223 122.848C370.847 122.56 373.375 121.168 373.375 119.376V118.848ZM373.599 118.848H374.719V119.376C374.719 121.168 377.247 122.56 379.871 122.848L379.407 123.872C376.415 123.488 373.599 121.84 373.599 119.376V118.848ZM373.375 125.6H374.687V127.808H373.375V125.6ZM367.503 124.816H380.575V125.888H367.503V124.816ZM369.087 127.312H378.911V130.608H370.431V132.352H369.119V129.648H377.599V128.336H369.087V127.312ZM369.119 132.048H379.343V133.088H369.119V132.048ZM388.766 119.024C391.95 119.024 393.854 119.92 393.854 121.536C393.854 123.152 391.95 124.048 388.766 124.048C385.566 124.048 383.678 123.152 383.678 121.536C383.678 119.92 385.566 119.024 388.766 119.024ZM388.766 120.032C386.398 120.032 385.038 120.576 385.038 121.536C385.038 122.496 386.398 123.04 388.766 123.04C391.118 123.04 392.478 122.496 392.478 121.536C392.478 120.576 391.118 120.032 388.766 120.032ZM382.222 125.008H395.294V126.08H382.222V125.008ZM383.806 127.312H393.63V130.576H385.15V132.336H383.838V129.616H392.318V128.336H383.806V127.312ZM383.838 132.048H394.062V133.088H383.838V132.048ZM24.72 147.168H25.808V147.792C25.808 150.336 24.16 152.448 21.712 153.248L21.072 152.224C23.232 151.52 24.72 149.76 24.72 147.792V147.168ZM24.944 147.168H26.032V147.792C26.032 149.616 27.568 151.248 29.712 151.856L29.104 152.912C26.64 152.176 24.944 150.208 24.944 147.792V147.168ZM21.424 146.56H29.296V147.632H21.424V146.56ZM24.72 144.784H26.032V147.024H24.72V144.784ZM31.312 144.8H32.656V153.648H31.312V144.8ZM27.84 153.952C30.864 153.952 32.704 154.912 32.704 156.576C32.704 158.256 30.864 159.216 27.84 159.216C24.816 159.216 22.992 158.256 22.992 156.576C22.992 154.912 24.816 153.952 27.84 153.952ZM27.84 155.008C25.648 155.008 24.32 155.584 24.32 156.576C24.32 157.6 25.648 158.176 27.84 158.176C30.048 158.176 31.376 157.6 31.376 156.576C31.376 155.584 30.048 155.008 27.84 155.008ZM45.4068 144.8H46.7348V155.648H45.4068V144.8ZM46.3188 149.536H48.8788V150.656H46.3188V149.536ZM35.5508 146.544H44.0948V147.616H35.5508V146.544ZM39.8228 148.416C41.8708 148.416 43.2788 149.488 43.2788 151.12C43.2788 152.736 41.8708 153.808 39.8228 153.808C37.7588 153.808 36.3508 152.736 36.3508 151.12C36.3508 149.488 37.7588 148.416 39.8228 148.416ZM39.8228 149.456C38.5108 149.456 37.6148 150.112 37.6148 151.12C37.6148 152.112 38.5108 152.768 39.8228 152.768C41.1188 152.768 42.0148 152.112 42.0148 151.12C42.0148 150.112 41.1188 149.456 39.8228 149.456ZM39.1508 144.784H40.4788V147.104H39.1508V144.784ZM37.7268 157.84H47.3908V158.928H37.7268V157.84ZM37.7268 154.784H39.0548V158.304H37.7268V154.784ZM60.0135 144.768H61.3575V159.264H60.0135V144.768ZM61.0375 150.48H63.7255V151.6H61.0375V150.48ZM50.8455 154.544H51.9815C54.6535 154.544 56.5255 154.448 58.6855 154.048L58.8295 155.168C56.6055 155.584 54.7015 155.664 51.9815 155.664H50.8455V154.544ZM50.8455 146.176H57.5655V147.264H52.1575V155.04H50.8455V146.176ZM65.2443 157.056C65.2443 156.64 65.3509 156.347 65.5643 156.176C65.7776 156.005 66.0336 155.92 66.3323 155.92C66.6416 155.92 66.9029 156.005 67.1163 156.176C67.3296 156.347 67.4363 156.64 67.4363 157.056C67.4363 157.472 67.3296 157.771 67.1163 157.952C66.9029 158.133 66.6416 158.224 66.3323 158.224C66.0336 158.224 65.7776 158.133 65.5643 157.952C65.3509 157.771 65.2443 157.472 65.2443 157.056ZM30.688 196.8H32.016V207.648H30.688V196.8ZM31.6 201.536H34.16V202.656H31.6V201.536ZM20.832 198.544H29.376V199.616H20.832V198.544ZM25.104 200.416C27.152 200.416 28.56 201.488 28.56 203.12C28.56 204.736 27.152 205.808 25.104 205.808C23.04 205.808 21.632 204.736 21.632 203.12C21.632 201.488 23.04 200.416 25.104 200.416ZM25.104 201.456C23.792 201.456 22.896 202.112 22.896 203.12C22.896 204.112 23.792 204.768 25.104 204.768C26.4 204.768 27.296 204.112 27.296 203.12C27.296 202.112 26.4 201.456 25.104 201.456ZM24.432 196.784H25.76V199.104H24.432V196.784ZM23.008 209.84H32.672V210.928H23.008V209.84ZM23.008 206.784H24.336V210.304H23.008V206.784ZM37.1828 197.456H46.4948V198.544H37.1828V197.456ZM35.5188 202.64H48.6228V203.728H35.5188V202.64ZM41.3908 203.376H42.7028V206.784H41.3908V203.376ZM45.6308 197.456H46.9268V198.528C46.9268 199.728 46.9268 201.184 46.4468 203.168L45.1508 203.008C45.6308 201.072 45.6308 199.696 45.6308 198.528V197.456ZM36.8788 206.352H47.0228V211.248H45.6948V207.44H36.8788V206.352ZM54.9255 197.824C57.1815 197.824 58.7975 199.216 58.7975 201.232C58.7975 203.264 57.1815 204.656 54.9255 204.656C52.6695 204.656 51.0375 203.264 51.0375 201.232C51.0375 199.216 52.6695 197.824 54.9255 197.824ZM54.9255 198.976C53.4215 198.976 52.3335 199.888 52.3335 201.232C52.3335 202.576 53.4215 203.504 54.9255 203.504C56.4135 203.504 57.5015 202.576 57.5015 201.232C57.5015 199.888 56.4135 198.976 54.9255 198.976ZM60.6855 196.768H62.0135V211.264H60.6855V196.768ZM50.4935 208.096L50.3015 206.992C52.9415 206.992 56.5895 206.976 59.7415 206.48L59.8535 207.456C56.6055 208.08 53.0695 208.096 50.4935 208.096ZM76.8245 200.528H80.0885V201.632H76.8245V200.528ZM79.6725 196.784H81.0005V205.408H79.6725V196.784ZM76.2485 205.84C79.2245 205.84 81.0645 206.848 81.0645 208.544C81.0645 210.256 79.2245 211.232 76.2485 211.232C73.2565 211.232 71.4165 210.256 71.4165 208.544C71.4165 206.848 73.2565 205.84 76.2485 205.84ZM76.2485 206.88C74.0725 206.88 72.7445 207.488 72.7445 208.544C72.7445 209.584 74.0725 210.192 76.2485 210.192C78.4245 210.192 79.7525 209.584 79.7525 208.544C79.7525 207.488 78.4245 206.88 76.2485 206.88ZM72.7925 198.24H73.8805V199.408C73.8805 202.08 72.2485 204.368 69.8485 205.264L69.1605 204.208C71.3045 203.424 72.7925 201.488 72.7925 199.408V198.24ZM73.0485 198.24H74.1205V199.408C74.1205 201.28 75.5285 203.072 77.6245 203.808L76.9525 204.864C74.6005 204.016 73.0485 201.84 73.0485 199.408V198.24ZM69.5605 197.84H77.2885V198.928H69.5605V197.84ZM91.0473 201.68H95.0793V202.768H91.0473V201.68ZM87.5593 198.032H88.6473V200.608C88.6473 203.856 86.9353 206.96 84.6473 208.192L83.7993 207.136C85.9273 206.08 87.5593 203.296 87.5593 200.608V198.032ZM87.8153 198.032H88.8873V200.608C88.8873 203.248 90.5193 205.872 92.6153 206.864L91.8313 207.936C89.4953 206.752 87.8153 203.776 87.8153 200.608V198.032ZM94.4233 196.768H95.7353V211.264H94.4233V196.768ZM103.458 197.712H110.194V203.632H103.458V197.712ZM108.914 198.784H104.738V202.576H108.914V198.784ZM113.218 196.784H114.546V205.088H113.218V196.784ZM109.298 206.8H110.434V207.072C110.434 209.152 107.858 210.816 104.93 211.2L104.482 210.176C106.994 209.888 109.298 208.512 109.298 207.072V206.8ZM109.49 206.8H110.642V207.072C110.642 208.464 112.882 209.872 115.394 210.176L114.946 211.2C112.002 210.8 109.49 209.104 109.49 207.072V206.8ZM105.058 206.064H114.882V207.104H105.058V206.064ZM109.298 204.672H110.642V206.528H109.298V204.672ZM125.389 198.032H126.477V200.624C126.477 203.952 124.685 207.04 122.317 208.24L121.501 207.152C123.645 206.128 125.389 203.36 125.389 200.624V198.032ZM125.613 198.032H126.701V200.624C126.701 203.264 128.429 205.92 130.573 206.912L129.773 207.968C127.421 206.816 125.613 203.84 125.613 200.624V198.032ZM132.077 196.768H133.405V211.264H132.077V196.768ZM147.292 196.784H148.572V211.248H147.292V196.784ZM144.844 202.576H147.628V203.68H144.844V202.576ZM144.012 197.104H145.26V210.512H144.012V197.104ZM136.812 206.576H137.756C139.868 206.576 141.308 206.496 142.988 206.144L143.116 207.248C141.388 207.616 139.932 207.68 137.756 207.68H136.812V206.576ZM136.812 198.544H142.188V199.632H138.124V207.072H136.812V198.544ZM154.523 197.536H155.627V199.008C155.627 201.792 154.059 204.096 151.643 205.04L150.939 203.968C153.115 203.168 154.523 201.216 154.523 199.008V197.536ZM154.763 197.536H155.851V199.104C155.851 201.056 157.291 202.864 159.371 203.584L158.667 204.624C156.347 203.76 154.763 201.616 154.763 199.104V197.536ZM160.907 196.784H162.235V205.552H160.907V196.784ZM161.867 200.512H164.379V201.632H161.867V200.512ZM157.627 205.952C160.587 205.952 162.379 206.928 162.379 208.592C162.379 210.256 160.587 211.216 157.627 211.216C154.667 211.216 152.875 210.256 152.875 208.592C152.875 206.928 154.667 205.952 157.627 205.952ZM157.627 207.008C155.483 207.008 154.171 207.584 154.171 208.592C154.171 209.6 155.483 210.176 157.627 210.176C159.771 210.176 161.083 209.6 161.083 208.592C161.083 207.584 159.771 207.008 157.627 207.008ZM172.266 197.024C175.45 197.024 177.354 197.92 177.354 199.536C177.354 201.152 175.45 202.048 172.266 202.048C169.066 202.048 167.178 201.152 167.178 199.536C167.178 197.92 169.066 197.024 172.266 197.024ZM172.266 198.032C169.898 198.032 168.538 198.576 168.538 199.536C168.538 200.496 169.898 201.04 172.266 201.04C174.618 201.04 175.978 200.496 175.978 199.536C175.978 198.576 174.618 198.032 172.266 198.032ZM165.722 203.008H178.794V204.08H165.722V203.008ZM167.306 205.312H177.13V208.576H168.65V210.336H167.338V207.616H175.818V206.336H167.306V205.312ZM167.338 210.048H177.562V211.088H167.338V210.048ZM194.501 196.8H195.829V207.408H194.501V196.8ZM195.413 201.168H197.973V202.272H195.413V201.168ZM186.821 209.84H196.485V210.928H186.821V209.84ZM186.821 206.384H188.149V210.096H186.821V206.384ZM185.205 197.824H186.517V200.24H190.597V197.824H191.892V204.992H185.205V197.824ZM186.517 201.28V203.92H190.597V201.28H186.517ZM205.907 198.864H210.323V199.952H205.907V198.864ZM205.907 202.192H210.323V203.296H205.907V202.192ZM203.267 197.632C205.395 197.632 206.995 199.072 206.995 201.072C206.995 203.088 205.395 204.512 203.267 204.512C201.123 204.512 199.539 203.088 199.539 201.072C199.539 199.072 201.123 197.632 203.267 197.632ZM203.267 198.768C201.859 198.768 200.819 199.712 200.819 201.072C200.819 202.432 201.859 203.376 203.267 203.376C204.675 203.376 205.731 202.432 205.731 201.072C205.731 199.712 204.675 198.768 203.267 198.768ZM209.891 196.784H211.219V205.344H209.891V196.784ZM206.467 205.68C209.443 205.68 211.283 206.704 211.283 208.448C211.283 210.208 209.443 211.216 206.467 211.216C203.475 211.216 201.635 210.208 201.635 208.448C201.635 206.704 203.475 205.68 206.467 205.68ZM206.467 206.736C204.275 206.736 202.947 207.376 202.947 208.448C202.947 209.536 204.275 210.176 206.467 210.176C208.643 210.176 209.971 209.536 209.971 208.448C209.971 207.376 208.643 206.736 206.467 206.736ZM223.842 196.784H225.17V211.248H223.842V196.784ZM224.85 202.72H227.538V203.84H224.85V202.72ZM213.97 199.088H222.498V200.176H213.97V199.088ZM218.29 201.376C220.338 201.376 221.81 202.752 221.81 204.704C221.81 206.656 220.338 208.032 218.29 208.032C216.258 208.032 214.77 206.656 214.77 204.704C214.77 202.752 216.258 201.376 218.29 201.376ZM218.29 202.48C216.978 202.48 216.034 203.392 216.034 204.704C216.034 206 216.978 206.928 218.29 206.928C219.602 206.928 220.546 206 220.546 204.704C220.546 203.392 219.602 202.48 218.29 202.48ZM217.602 196.96H218.93V199.584H217.602V196.96ZM230.529 201.12H240.353V202.208H230.529V201.12ZM228.753 204.144H241.873V205.232H228.753V204.144ZM230.529 197.312H231.841V201.664H230.529V197.312ZM230.433 209.808H240.433V210.896H230.433V209.808ZM230.433 206.672H231.745V210.096H230.433V206.672ZM253.5 196.848H254.62V197.376C254.62 199.84 251.804 201.488 248.796 201.872L248.348 200.848C250.972 200.56 253.5 199.168 253.5 197.376V196.848ZM253.724 196.848H254.844V197.376C254.844 199.168 257.372 200.56 259.996 200.848L259.532 201.872C256.54 201.488 253.724 199.84 253.724 197.376V196.848ZM253.5 203.6H254.812V205.808H253.5V203.6ZM247.628 202.816H260.7V203.888H247.628V202.816ZM249.212 205.312H259.036V208.608H250.556V210.352H249.244V207.648H257.724V206.336H249.212V205.312ZM249.244 210.048H259.468V211.088H249.244V210.048ZM262.363 208.368H275.467V209.472H262.363V208.368ZM268.219 205.264H269.547V208.832H268.219V205.264ZM263.947 197.856H273.851V202.24H265.307V205.136H263.995V201.168H272.539V198.928H263.947V197.856ZM263.995 204.576H274.187V205.664H263.995V204.576ZM284.297 201.68H288.329V202.768H284.297V201.68ZM280.809 198.032H281.897V200.608C281.897 203.856 280.185 206.96 277.897 208.192L277.049 207.136C279.177 206.08 280.809 203.296 280.809 200.608V198.032ZM281.065 198.032H282.137V200.608C282.137 203.248 283.769 205.872 285.865 206.864L285.081 207.936C282.745 206.752 281.065 203.776 281.065 200.608V198.032ZM287.673 196.768H288.985V211.264H287.673V196.768ZM296.596 198.368H303.14V199.44H296.596V198.368ZM298.852 202.496H300.164V207.392H298.852V202.496ZM302.596 198.368H303.892V199.136C303.892 200.32 303.892 202.208 303.476 204.896L302.164 204.768C302.596 202.16 302.596 200.304 302.596 199.136V198.368ZM305.716 196.784H307.028V211.248H305.716V196.784ZM306.676 202.832H309.348V203.952H306.676V202.832ZM295.956 208.096L295.796 206.976C298.42 206.976 301.908 206.928 304.836 206.56L304.9 207.536C301.908 208.016 298.516 208.08 295.956 208.096ZM321.235 196.784H322.563V211.248H321.235V196.784ZM317.859 202.576H321.827V203.68H317.859V202.576ZM316.595 198.336H317.907C317.907 202.464 316.195 206.112 311.395 208.512L310.659 207.472C314.867 205.408 316.595 202.336 316.595 198.56V198.336ZM311.283 198.336H317.299V199.424H311.283V198.336ZM330.082 197.824C332.338 197.824 333.954 199.216 333.954 201.232C333.954 203.264 332.338 204.656 330.082 204.656C327.826 204.656 326.194 203.264 326.194 201.232C326.194 199.216 327.826 197.824 330.082 197.824ZM330.082 198.976C328.578 198.976 327.49 199.888 327.49 201.232C327.49 202.576 328.578 203.504 330.082 203.504C331.57 203.504 332.658 202.576 332.658 201.232C332.658 199.888 331.57 198.976 330.082 198.976ZM335.842 196.768H337.17V211.264H335.842V196.768ZM325.65 208.096L325.458 206.992C328.098 206.992 331.746 206.976 334.898 206.48L335.01 207.456C331.762 208.08 328.226 208.096 325.65 208.096ZM347.293 197.68H348.349V199.616C348.349 201.776 347.101 204.048 344.973 204.992L344.253 203.952C346.157 203.12 347.293 201.248 347.293 199.616V197.68ZM347.501 197.68H348.557V199.616C348.557 201.216 349.645 202.848 351.501 203.568L350.781 204.576C348.701 203.744 347.501 201.744 347.501 199.616V197.68ZM355.181 196.8H356.445V205.712H355.181V196.8ZM352.877 200.656H355.613V201.744H352.877V200.656ZM352.077 197.072H353.341V205.248H352.077V197.072ZM351.693 206.032C354.669 206.032 356.525 206.992 356.525 208.64C356.525 210.272 354.669 211.216 351.693 211.216C348.701 211.216 346.877 210.272 346.877 208.64C346.877 206.992 348.701 206.032 351.693 206.032ZM351.693 207.072C349.517 207.072 348.173 207.648 348.173 208.64C348.173 209.616 349.517 210.192 351.693 210.192C353.869 210.192 355.197 209.616 355.197 208.64C355.197 207.648 353.869 207.072 351.693 207.072ZM368.86 196.784H370.188V205.312H368.86V196.784ZM369.628 200.48H372.3V201.584H369.628V200.48ZM360.828 205.968H370.188V208.896H362.156V210.432H360.86V208.016H368.892V206.912H360.828V205.968ZM360.86 210.144H370.748V211.088H360.86V210.144ZM362.764 202.72H364.092V204.56H362.764V202.72ZM359.052 204.992L358.892 204.016C361.468 204.016 365.02 204 367.996 203.584L368.108 204.432C365.02 204.976 361.58 204.992 359.052 204.992ZM359.26 197.888H367.564V198.832H359.26V197.888ZM363.42 199.28C365.468 199.28 366.78 199.984 366.78 201.184C366.78 202.384 365.468 203.088 363.42 203.088C361.356 203.088 360.044 202.384 360.044 201.184C360.044 199.984 361.356 199.28 363.42 199.28ZM363.42 200.16C362.124 200.16 361.292 200.544 361.292 201.184C361.292 201.824 362.124 202.224 363.42 202.224C364.716 202.224 365.532 201.824 365.532 201.184C365.532 200.544 364.716 200.16 363.42 200.16ZM362.764 196.64H364.092V198.384H362.764V196.64ZM380.314 205.856C383.258 205.856 385.066 206.848 385.066 208.544C385.066 210.24 383.258 211.232 380.314 211.232C377.37 211.232 375.562 210.24 375.562 208.544C375.562 206.848 377.37 205.856 380.314 205.856ZM380.314 206.928C378.17 206.928 376.858 207.52 376.858 208.544C376.858 209.584 378.17 210.176 380.314 210.176C382.458 210.176 383.77 209.584 383.77 208.544C383.77 207.52 382.458 206.928 380.314 206.928ZM383.594 196.784H384.922V205.472H383.594V196.784ZM384.554 200.416H387.066V201.536H384.554V200.416ZM374.298 197.696H375.61V199.856H379.69V197.696H380.986V204.368H374.298V197.696ZM375.61 200.912V203.296H379.69V200.912H375.61ZM392.185 197.472H393.289V198.88C393.289 201.616 391.657 203.968 389.209 204.896L388.537 203.84C390.729 203.04 392.185 201.04 392.185 198.88V197.472ZM392.425 197.472H393.513V198.88C393.513 200.96 395.001 202.832 397.145 203.584L396.473 204.624C394.057 203.744 392.425 201.536 392.425 198.88V197.472ZM390.617 206.224H400.281V211.248H398.937V207.312H390.617V206.224ZM398.937 196.784H400.281V205.488H398.937V196.784ZM405.56 208.32C405.464 208.693 405.341 209.099 405.192 209.536C405.042 209.973 404.882 210.405 404.712 210.832C404.541 211.269 404.365 211.68 404.184 212.064H402.952C403.058 211.648 403.16 211.205 403.256 210.736C403.362 210.277 403.458 209.824 403.544 209.376C403.629 208.928 403.698 208.517 403.752 208.144H405.448L405.56 208.32ZM27.376 224.912H31.792V226H27.376V224.912ZM27.376 228.144H31.792V229.248H27.376V228.144ZM23.04 232.112H32.688V237.248H31.36V233.184H23.04V232.112ZM31.36 222.784H32.688V231.312H31.36V222.784ZM24.736 223.584C26.864 223.584 28.464 225.024 28.464 227.072C28.464 229.12 26.864 230.544 24.736 230.544C22.592 230.544 21.008 229.12 21.008 227.072C21.008 225.024 22.592 223.584 24.736 223.584ZM24.736 224.72C23.328 224.72 22.288 225.696 22.288 227.072C22.288 228.448 23.328 229.408 24.736 229.408C26.144 229.408 27.2 228.448 27.2 227.072C27.2 225.696 26.144 224.72 24.736 224.72ZM39.0548 224.032H40.1428V226.624C40.1428 229.824 38.4148 232.944 36.1268 234.16L35.3108 233.104C37.4068 232.048 39.0548 229.264 39.0548 226.624V224.032ZM39.2948 224.032H40.3668V226.624C40.3668 229.168 41.9828 231.808 44.0308 232.832L43.2148 233.888C40.9748 232.688 39.2948 229.728 39.2948 226.624V224.032ZM45.2948 222.784H46.6388V237.248H45.2948V222.784ZM46.3188 228.64H49.0068V229.76H46.3188V228.64ZM53.8855 230.08H55.2135V233.536H53.8855V230.08ZM54.5415 223.712C56.7655 223.712 58.3655 225.104 58.3655 227.12C58.3655 229.136 56.7655 230.528 54.5415 230.528C52.3175 230.528 50.7175 229.136 50.7175 227.12C50.7175 225.104 52.3175 223.712 54.5415 223.712ZM54.5415 224.848C53.0695 224.848 52.0135 225.776 52.0135 227.12C52.0135 228.464 53.0695 229.392 54.5415 229.392C56.0135 229.392 57.0695 228.464 57.0695 227.12C57.0695 225.776 56.0135 224.848 54.5415 224.848ZM60.0135 222.784H61.3415V237.248H60.0135V222.784ZM60.9575 228.736H63.6295V229.856H60.9575V228.736ZM50.2535 234.128L50.0615 233.024C52.6695 233.008 56.1575 232.992 59.1015 232.592L59.2135 233.584C56.1575 234.096 52.7815 234.128 50.2535 234.128ZM69.0965 230.176H82.2005V231.264H69.0965V230.176ZM75.0805 230.848H76.4085V234.176H75.0805V230.848ZM70.7765 223.456H80.5045V228.544H70.7765V223.456ZM79.1925 224.528H72.0725V227.472H79.1925V224.528ZM70.7605 235.84H80.7445V236.928H70.7605V235.84ZM70.7605 232.784H72.0725V236.224H70.7605V232.784ZM87.5753 231.408H88.9033V233.76H87.5753V231.408ZM93.6553 222.784H94.9833V237.248H93.6553V222.784ZM94.5513 228.928H97.2233V230.048H94.5513V228.928ZM83.8473 234.496L83.6553 233.392C86.2473 233.392 89.7833 233.36 92.7753 232.928L92.8873 233.92C89.7673 234.48 86.3753 234.496 83.8473 234.496ZM83.8953 224.528H92.5513V225.6H83.8953V224.528ZM88.2313 226.448C90.2473 226.448 91.6393 227.504 91.6393 229.12C91.6393 230.752 90.2473 231.792 88.2313 231.792C86.2153 231.792 84.8393 230.752 84.8393 229.12C84.8393 227.504 86.2153 226.448 88.2313 226.448ZM88.2313 227.472C86.9353 227.472 86.0873 228.128 86.0873 229.12C86.0873 230.112 86.9353 230.768 88.2313 230.768C89.5273 230.768 90.3913 230.112 90.3913 229.12C90.3913 228.128 89.5273 227.472 88.2313 227.472ZM87.5753 222.8H88.9033V225.248H87.5753V222.8ZM108.326 222.768H109.67V237.248H108.326V222.768ZM109.302 228.64H111.974V229.744H109.302V228.64ZM104.63 224.336H105.926C105.926 228.448 104.038 232.16 99.366 234.512L98.63 233.488C102.63 231.456 104.63 228.368 104.63 224.544V224.336ZM99.302 224.336H105.318V225.424H99.302V224.336ZM127.313 222.784H128.641V230.976H127.313V222.784ZM128.273 226.32H130.785V227.408H128.273V226.32ZM118.081 229.056H119.201C122.177 229.056 123.857 228.976 125.793 228.576L125.937 229.664C123.953 230.064 122.241 230.16 119.201 230.16H118.081V229.056ZM118.081 223.744H124.449V224.832H119.393V229.68H118.081V223.744ZM119.553 231.744H128.641V237.056H119.553V231.744ZM127.345 232.816H120.849V235.968H127.345V232.816ZM138.112 224.336H139.408C139.408 228.464 137.616 232.16 132.848 234.512L132.144 233.472C136.24 231.44 138.112 228.368 138.112 224.56V224.336ZM132.768 224.336H138.768V225.424H132.768V224.336ZM142.704 222.768H144.032V237.232H142.704V222.768ZM138.88 226.736H142.976V227.808H138.88V226.736ZM138.72 230.624H142.816V231.712H138.72V230.624ZM150.463 231.68H151.487V232.464C151.487 234.352 150.303 236.256 148.223 237.056L147.551 236.064C149.375 235.408 150.463 233.856 150.463 232.464V231.68ZM150.751 231.68H151.743V232.464C151.743 233.92 152.607 235.472 154.335 236.176L153.775 237.184C151.695 236.368 150.751 234.384 150.751 232.464V231.68ZM155.807 231.68H156.799V232.464C156.799 234.16 155.839 236.304 153.775 237.184L153.215 236.176C154.927 235.392 155.807 233.712 155.807 232.464V231.68ZM156.079 231.68H157.103V232.464C157.103 233.952 158.175 235.44 160.015 236.064L159.343 237.056C157.231 236.288 156.079 234.464 156.079 232.464V231.68ZM157.375 222.8H158.719V231.056H157.375V222.8ZM150.959 223.632C153.151 223.632 154.719 225.008 154.719 227.008C154.719 229.008 153.151 230.368 150.959 230.368C148.767 230.368 147.183 229.008 147.183 227.008C147.183 225.008 148.767 223.632 150.959 223.632ZM150.959 224.736C149.519 224.736 148.479 225.664 148.479 227.008C148.479 228.352 149.519 229.264 150.959 229.264C152.399 229.264 153.439 228.352 153.439 227.008C153.439 225.664 152.399 224.736 150.959 224.736ZM163.341 227.12H173.165V228.208H163.341V227.12ZM161.565 230.144H174.685V231.232H161.565V230.144ZM163.341 223.312H164.653V227.664H163.341V223.312ZM163.245 235.808H173.245V236.896H163.245V235.808ZM163.245 232.672H164.557V236.096H163.245V232.672ZM186.312 222.848H187.432V223.376C187.432 225.84 184.616 227.488 181.608 227.872L181.16 226.848C183.784 226.56 186.312 225.168 186.312 223.376V222.848ZM186.536 222.848H187.656V223.376C187.656 225.168 190.184 226.56 192.808 226.848L192.344 227.872C189.352 227.488 186.536 225.84 186.536 223.376V222.848ZM186.312 229.6H187.624V231.808H186.312V229.6ZM180.44 228.816H193.512V229.888H180.44V228.816ZM182.024 231.312H191.848V234.608H183.368V236.352H182.056V233.648H190.536V232.336H182.024V231.312ZM182.056 236.048H192.28V237.088H182.056V236.048ZM195.175 234.368H208.279V235.472H195.175V234.368ZM201.031 231.264H202.359V234.832H201.031V231.264ZM196.759 223.856H206.663V228.24H198.119V231.136H196.807V227.168H205.351V224.928H196.759V223.856ZM196.807 230.576H206.999V231.664H196.807V230.576ZM221.762 226.528H225.026V227.632H221.762V226.528ZM224.61 222.784H225.938V231.408H224.61V222.784ZM221.186 231.84C224.162 231.84 226.002 232.848 226.002 234.544C226.002 236.256 224.162 237.232 221.186 237.232C218.194 237.232 216.354 236.256 216.354 234.544C216.354 232.848 218.194 231.84 221.186 231.84ZM221.186 232.88C219.01 232.88 217.682 233.488 217.682 234.544C217.682 235.584 219.01 236.192 221.186 236.192C223.362 236.192 224.69 235.584 224.69 234.544C224.69 233.488 223.362 232.88 221.186 232.88ZM217.73 224.24H218.818V225.408C218.818 228.08 217.186 230.368 214.786 231.264L214.098 230.208C216.242 229.424 217.73 227.488 217.73 225.408V224.24ZM217.986 224.24H219.058V225.408C219.058 227.28 220.466 229.072 222.562 229.808L221.89 230.864C219.538 230.016 217.986 227.84 217.986 225.408V224.24ZM214.498 223.84H222.226V224.928H214.498V223.84ZM233.457 223.824C235.713 223.824 237.329 225.216 237.329 227.232C237.329 229.264 235.713 230.656 233.457 230.656C231.201 230.656 229.569 229.264 229.569 227.232C229.569 225.216 231.201 223.824 233.457 223.824ZM233.457 224.976C231.953 224.976 230.865 225.888 230.865 227.232C230.865 228.576 231.953 229.504 233.457 229.504C234.945 229.504 236.033 228.576 236.033 227.232C236.033 225.888 234.945 224.976 233.457 224.976ZM239.217 222.768H240.545V237.264H239.217V222.768ZM229.025 234.096L228.833 232.992C231.473 232.992 235.121 232.976 238.273 232.48L238.385 233.456C235.137 234.08 231.601 234.096 229.025 234.096ZM253.376 222.736H254.704V230.72H253.376V222.736ZM254.144 226.208H256.848V227.328H254.144V226.208ZM245.52 231.456H254.704V234.688H246.864V236.448H245.552V233.728H253.408V232.464H245.52V231.456ZM245.552 236.064H255.232V237.088H245.552V236.064ZM243.52 224.08H252.064V225.12H243.52V224.08ZM247.792 225.76C249.872 225.76 251.248 226.672 251.248 228.144C251.248 229.6 249.872 230.496 247.792 230.496C245.68 230.496 244.32 229.6 244.32 228.144C244.32 226.672 245.68 225.76 247.792 225.76ZM247.792 226.736C246.448 226.736 245.584 227.28 245.584 228.144C245.584 228.992 246.448 229.536 247.792 229.536C249.12 229.536 249.984 228.992 249.984 228.144C249.984 227.28 249.12 226.736 247.792 226.736ZM247.12 222.624H248.448V224.8H247.12V222.624ZM268.203 223.296H269.371V224.096C269.371 226.864 266.555 228.848 263.547 229.36L263.019 228.288C265.659 227.888 268.203 226.16 268.203 224.096V223.296ZM268.443 223.296H269.595V224.096C269.595 226.112 272.171 227.888 274.779 228.288L274.251 229.36C271.275 228.848 268.443 226.832 268.443 224.096V223.296ZM268.203 231.744H269.515V237.248H268.203V231.744ZM262.363 230.928H275.435V232.032H262.363V230.928ZM284.838 231.68H285.862V232.464C285.862 234.352 284.678 236.256 282.598 237.056L281.926 236.064C283.75 235.408 284.838 233.856 284.838 232.464V231.68ZM285.126 231.68H286.118V232.464C286.118 233.92 286.982 235.472 288.71 236.176L288.15 237.184C286.07 236.368 285.126 234.384 285.126 232.464V231.68ZM290.182 231.68H291.174V232.464C291.174 234.16 290.214 236.304 288.15 237.184L287.59 236.176C289.302 235.392 290.182 233.712 290.182 232.464V231.68ZM290.454 231.68H291.478V232.464C291.478 233.952 292.55 235.44 294.39 236.064L293.718 237.056C291.606 236.288 290.454 234.464 290.454 232.464V231.68ZM291.75 222.8H293.094V231.056H291.75V222.8ZM285.334 223.632C287.526 223.632 289.094 225.008 289.094 227.008C289.094 229.008 287.526 230.368 285.334 230.368C283.142 230.368 281.558 229.008 281.558 227.008C281.558 225.008 283.142 223.632 285.334 223.632ZM285.334 224.736C283.894 224.736 282.854 225.664 282.854 227.008C282.854 228.352 283.894 229.264 285.334 229.264C286.774 229.264 287.814 228.352 287.814 227.008C287.814 225.664 286.774 224.736 285.334 224.736ZM305.732 222.768H307.076V237.264H305.732V222.768ZM306.756 228.48H309.444V229.6H306.756V228.48ZM296.564 232.544H297.7C300.372 232.544 302.244 232.448 304.404 232.048L304.548 233.168C302.324 233.584 300.42 233.664 297.7 233.664H296.564V232.544ZM296.564 224.176H303.284V225.264H297.876V233.04H296.564V224.176ZM310.963 235.056C310.963 234.64 311.07 234.347 311.283 234.176C311.496 234.005 311.752 233.92 312.051 233.92C312.36 233.92 312.622 234.005 312.835 234.176C313.048 234.347 313.155 234.64 313.155 235.056C313.155 235.472 313.048 235.771 312.835 235.952C312.622 236.133 312.36 236.224 312.051 236.224C311.752 236.224 311.496 236.133 311.283 235.952C311.07 235.771 310.963 235.472 310.963 235.056Z" fill="black"/>
</svg>
