  <svg width="1920" height="100" viewBox="0 0 1920 100" fill="none" xmlns="http://www.w3.org/2000/svg">
<path d="M0 0H1920V100H0V0Z" fill="#FFF1C1"/>
<path d="M512.184 71V53.24H515.736V60.248H522.456V53.24H525.984V71H522.456V63.32H515.736V71H512.184ZM535.676 71.336C532.292 71.336 529.22 68.744 529.22 64.304C529.22 59.84 532.292 57.248 535.676 57.248C539.036 57.248 542.108 59.84 542.108 64.304C542.108 68.744 539.036 71.336 535.676 71.336ZM535.676 68.48C537.5 68.48 538.508 66.824 538.508 64.304C538.508 61.76 537.5 60.128 535.676 60.128C533.828 60.128 532.82 61.76 532.82 64.304C532.82 66.824 533.828 68.48 535.676 68.48ZM545.084 71V57.584H547.94L548.228 59.36H548.3C549.428 58.208 550.676 57.248 552.404 57.248C554.348 57.248 555.476 58.088 556.1 59.576C557.348 58.304 558.644 57.248 560.396 57.248C563.252 57.248 564.548 59.264 564.548 62.624V71H561.02V63.08C561.02 60.968 560.444 60.272 559.148 60.272C558.38 60.272 557.54 60.752 556.58 61.76V71H553.052V63.08C553.052 60.968 552.452 60.272 551.156 60.272C550.412 60.272 549.523 60.752 548.612 61.76V71H545.084ZM574.072 71.336C570.304 71.336 567.376 68.744 567.376 64.304C567.376 59.936 570.448 57.248 573.616 57.248C577.336 57.248 579.232 59.936 579.232 63.656C579.232 64.328 579.16 64.952 579.088 65.288H570.784C571.096 67.496 572.536 68.624 574.528 68.624C575.608 68.624 576.568 68.288 577.552 67.688L578.728 69.872C577.408 70.784 575.728 71.336 574.072 71.336ZM570.736 62.936H576.232C576.232 61.112 575.416 59.96 573.688 59.96C572.272 59.96 571.024 60.968 570.736 62.936Z" fill="black"/>
<path d="M637.184 72V54.24H640.736V61.944H640.784L646.688 54.24H650.6L645.152 61.224L651.536 72H647.672L643.064 64.032L640.736 67.008V72H637.184ZM651.269 66.408V63.888H657.845V66.408H651.269ZM663.118 72V57.192H658.102V54.24H671.686V57.192H666.67V72H663.118ZM673.013 72V58.584H675.869L676.157 60.96H676.229C677.189 59.184 678.653 58.248 680.045 58.248C680.765 58.248 681.197 58.344 681.605 58.536L681.005 61.56C680.525 61.44 680.165 61.344 679.589 61.344C678.557 61.344 677.285 62.064 676.541 64.008V72H673.013ZM685.911 72.336C683.511 72.336 681.951 70.656 681.951 68.352C681.951 65.496 684.279 63.984 689.679 63.384C689.607 62.064 689.055 61.08 687.399 61.08C686.151 61.08 684.927 61.608 683.703 62.352L682.431 60C684.015 59.04 685.911 58.248 688.047 58.248C691.455 58.248 693.207 60.264 693.207 64.176V72H690.327L690.063 70.584H689.967C688.791 71.592 687.447 72.336 685.911 72.336ZM687.063 69.576C688.071 69.576 688.815 69.12 689.679 68.28V65.568C686.391 65.976 685.311 66.864 685.311 68.088C685.311 69.12 686.031 69.576 687.063 69.576ZM701.53 72.336C698.17 72.336 696.01 69.72 696.01 65.304C696.01 60.912 698.77 58.248 701.65 58.248C703.162 58.248 704.098 58.8 705.082 59.688L704.938 57.576V52.872H708.466V72H705.586L705.322 70.608H705.25C704.266 71.592 702.922 72.336 701.53 72.336ZM702.418 69.432C703.378 69.432 704.17 69.048 704.938 68.064V62.16C704.146 61.416 703.282 61.128 702.442 61.128C700.93 61.128 699.634 62.568 699.634 65.256C699.634 68.064 700.666 69.432 702.418 69.432ZM712.248 72V58.584H715.776V72H712.248ZM714 56.4C712.776 56.4 711.96 55.632 711.96 54.456C711.96 53.304 712.776 52.56 714 52.56C715.224 52.56 716.064 53.304 716.064 54.456C716.064 55.632 715.224 56.4 714 56.4ZM724.433 72.336C721.241 72.336 720.017 70.32 720.017 67.32V61.344H718.145V58.728L720.233 58.584L720.617 54.936H723.545V58.584H726.881V61.344H723.545V67.32C723.545 68.856 724.193 69.576 725.369 69.576C725.825 69.576 726.329 69.408 726.713 69.264L727.289 71.832C726.569 72.072 725.633 72.336 724.433 72.336ZM729.638 72V58.584H733.166V72H729.638ZM731.39 56.4C730.166 56.4 729.35 55.632 729.35 54.456C729.35 53.304 730.166 52.56 731.39 52.56C732.614 52.56 733.454 53.304 733.454 54.456C733.454 55.632 732.614 56.4 731.39 56.4ZM742.543 72.336C739.159 72.336 736.087 69.744 736.087 65.304C736.087 60.84 739.159 58.248 742.543 58.248C745.903 58.248 748.975 60.84 748.975 65.304C748.975 69.744 745.903 72.336 742.543 72.336ZM742.543 69.48C744.367 69.48 745.375 67.824 745.375 65.304C745.375 62.76 744.367 61.128 742.543 61.128C740.695 61.128 739.687 62.76 739.687 65.304C739.687 67.824 740.695 69.48 742.543 69.48ZM751.951 72V58.584H754.807L755.095 60.36H755.167C756.319 59.208 757.711 58.248 759.535 58.248C762.415 58.248 763.687 60.264 763.687 63.624V72H760.159V64.08C760.159 61.968 759.559 61.272 758.263 61.272C757.159 61.272 756.463 61.8 755.479 62.76V72H751.951ZM770.614 72.336C768.214 72.336 766.654 70.656 766.654 68.352C766.654 65.496 768.982 63.984 774.382 63.384C774.31 62.064 773.758 61.08 772.102 61.08C770.854 61.08 769.63 61.608 768.406 62.352L767.134 60C768.718 59.04 770.614 58.248 772.75 58.248C776.158 58.248 777.91 60.264 777.91 64.176V72H775.03L774.766 70.584H774.67C773.494 71.592 772.15 72.336 770.614 72.336ZM771.766 69.576C772.774 69.576 773.518 69.12 774.382 68.28V65.568C771.094 65.976 770.014 66.864 770.014 68.088C770.014 69.12 770.734 69.576 771.766 69.576ZM784.817 72.336C782.345 72.336 781.505 70.728 781.505 68.232V52.872H785.033V68.376C785.033 69.216 785.393 69.48 785.729 69.48C785.849 69.48 785.945 69.48 786.185 69.432L786.617 72.048C786.209 72.192 785.657 72.336 784.817 72.336ZM794.801 72V54.24H799.673C805.097 54.24 808.433 57.048 808.433 63.048C808.433 69.024 805.097 72 799.865 72H794.801ZM798.353 69.144H799.433C802.769 69.144 804.809 67.368 804.809 63.048C804.809 58.728 802.769 57.072 799.433 57.072H798.353V69.144ZM811.646 72V58.584H814.502L814.79 60.96H814.862C815.822 59.184 817.286 58.248 818.678 58.248C819.398 58.248 819.83 58.344 820.238 58.536L819.638 61.56C819.158 61.44 818.798 61.344 818.222 61.344C817.19 61.344 815.918 62.064 815.174 64.008V72H811.646ZM822.123 72V58.584H825.651V72H822.123ZM823.875 56.4C822.651 56.4 821.835 55.632 821.835 54.456C821.835 53.304 822.651 52.56 823.875 52.56C825.099 52.56 825.939 53.304 825.939 54.456C825.939 55.632 825.099 56.4 823.875 56.4ZM829.412 72V58.584H832.268L832.556 60.36H832.628C833.78 59.208 835.172 58.248 836.996 58.248C839.876 58.248 841.148 60.264 841.148 63.624V72H837.62V64.08C837.62 61.968 837.02 61.272 835.724 61.272C834.62 61.272 833.924 61.8 832.94 62.76V72H829.412ZM844.787 72V52.872H848.243V64.344H848.363L852.923 58.584H856.811L852.203 64.104L857.219 72H853.403L850.139 66.432L848.243 68.616V72H844.787ZM872.629 72.336C867.805 72.336 864.109 69.12 864.109 63.192C864.109 57.336 867.901 53.928 872.629 53.928C875.173 53.928 876.949 55.032 878.101 56.184L876.229 58.464C875.341 57.624 874.333 56.976 872.749 56.976C869.773 56.976 867.733 59.28 867.733 63.072C867.733 66.96 869.509 69.264 872.989 69.264C873.853 69.264 874.717 69.024 875.221 68.616V65.112H872.053V62.208H878.389V70.2C877.189 71.4 875.077 72.336 872.629 72.336ZM885.2 72.336C882.8 72.336 881.24 70.656 881.24 68.352C881.24 65.496 883.568 63.984 888.968 63.384C888.896 62.064 888.344 61.08 886.688 61.08C885.44 61.08 884.216 61.608 882.992 62.352L881.72 60C883.304 59.04 885.2 58.248 887.336 58.248C890.744 58.248 892.496 60.264 892.496 64.176V72H889.616L889.352 70.584H889.256C888.08 71.592 886.736 72.336 885.2 72.336ZM886.352 69.576C887.36 69.576 888.104 69.12 888.968 68.28V65.568C885.68 65.976 884.6 66.864 884.6 68.088C884.6 69.12 885.32 69.576 886.352 69.576ZM899.403 72.336C896.931 72.336 896.091 70.728 896.091 68.232V52.872H899.619V68.376C899.619 69.216 899.979 69.48 900.315 69.48C900.435 69.48 900.531 69.48 900.771 69.432L901.203 72.048C900.795 72.192 900.243 72.336 899.403 72.336ZM906.974 72.336C904.502 72.336 903.662 70.728 903.662 68.232V52.872H907.19V68.376C907.19 69.216 907.55 69.48 907.886 69.48C908.006 69.48 908.102 69.48 908.342 69.432L908.774 72.048C908.366 72.192 907.814 72.336 906.974 72.336ZM917.088 72.336C913.32 72.336 910.392 69.744 910.392 65.304C910.392 60.936 913.464 58.248 916.632 58.248C920.352 58.248 922.248 60.936 922.248 64.656C922.248 65.328 922.176 65.952 922.104 66.288H913.8C914.112 68.496 915.552 69.624 917.544 69.624C918.624 69.624 919.584 69.288 920.568 68.688L921.744 70.872C920.424 71.784 918.744 72.336 917.088 72.336ZM913.752 63.936H919.248C919.248 62.112 918.432 60.96 916.704 60.96C915.288 60.96 914.04 61.968 913.752 63.936ZM925.177 72V58.584H928.033L928.321 60.96H928.393C929.353 59.184 930.817 58.248 932.209 58.248C932.929 58.248 933.361 58.344 933.769 58.536L933.169 61.56C932.689 61.44 932.329 61.344 931.753 61.344C930.721 61.344 929.449 62.064 928.705 64.008V72H925.177ZM937.017 77.4C936.249 77.4 935.697 77.304 935.193 77.136L935.841 74.424C936.081 74.496 936.441 74.616 936.777 74.616C938.121 74.616 938.889 73.752 939.297 72.552L939.513 71.76L934.281 58.584H937.857L939.969 64.8C940.377 66.024 940.713 67.32 941.121 68.616H941.241C941.529 67.344 941.865 66.072 942.177 64.8L944.049 58.584H947.433L942.657 72.432C941.481 75.576 940.041 77.4 937.017 77.4Z" fill="black"/>
<path d="M1303.18 69V51.24H1306.74V58.944H1306.78L1312.69 51.24H1316.6L1311.15 58.224L1317.54 69H1313.67L1309.06 61.032L1306.74 64.008V69H1303.18ZM1317.27 63.408V60.888H1323.85V63.408H1317.27ZM1329.12 69V54.192H1324.1V51.24H1337.69V54.192H1332.67V69H1329.12ZM1339.01 69V55.584H1341.87L1342.16 57.96H1342.23C1343.19 56.184 1344.65 55.248 1346.05 55.248C1346.77 55.248 1347.2 55.344 1347.61 55.536L1347.01 58.56C1346.53 58.44 1346.17 58.344 1345.59 58.344C1344.56 58.344 1343.29 59.064 1342.54 61.008V69H1339.01ZM1351.91 69.336C1349.51 69.336 1347.95 67.656 1347.95 65.352C1347.95 62.496 1350.28 60.984 1355.68 60.384C1355.61 59.064 1355.05 58.08 1353.4 58.08C1352.15 58.08 1350.93 58.608 1349.7 59.352L1348.43 57C1350.01 56.04 1351.91 55.248 1354.05 55.248C1357.45 55.248 1359.21 57.264 1359.21 61.176V69H1356.33L1356.06 67.584H1355.97C1354.79 68.592 1353.45 69.336 1351.91 69.336ZM1353.06 66.576C1354.07 66.576 1354.81 66.12 1355.68 65.28V62.568C1352.39 62.976 1351.31 63.864 1351.31 65.088C1351.31 66.12 1352.03 66.576 1353.06 66.576ZM1367.53 69.336C1364.17 69.336 1362.01 66.72 1362.01 62.304C1362.01 57.912 1364.77 55.248 1367.65 55.248C1369.16 55.248 1370.1 55.8 1371.08 56.688L1370.94 54.576V49.872H1374.47V69H1371.59L1371.32 67.608H1371.25C1370.27 68.592 1368.92 69.336 1367.53 69.336ZM1368.42 66.432C1369.38 66.432 1370.17 66.048 1370.94 65.064V59.16C1370.15 58.416 1369.28 58.128 1368.44 58.128C1366.93 58.128 1365.63 59.568 1365.63 62.256C1365.63 65.064 1366.67 66.432 1368.42 66.432ZM1378.25 69V55.584H1381.78V69H1378.25ZM1380 53.4C1378.78 53.4 1377.96 52.632 1377.96 51.456C1377.96 50.304 1378.78 49.56 1380 49.56C1381.22 49.56 1382.06 50.304 1382.06 51.456C1382.06 52.632 1381.22 53.4 1380 53.4ZM1390.43 69.336C1387.24 69.336 1386.02 67.32 1386.02 64.32V58.344H1384.14V55.728L1386.23 55.584L1386.62 51.936H1389.54V55.584H1392.88V58.344H1389.54V64.32C1389.54 65.856 1390.19 66.576 1391.37 66.576C1391.82 66.576 1392.33 66.408 1392.71 66.264L1393.29 68.832C1392.57 69.072 1391.63 69.336 1390.43 69.336ZM1395.64 69V55.584H1399.17V69H1395.64ZM1397.39 53.4C1396.17 53.4 1395.35 52.632 1395.35 51.456C1395.35 50.304 1396.17 49.56 1397.39 49.56C1398.61 49.56 1399.45 50.304 1399.45 51.456C1399.45 52.632 1398.61 53.4 1397.39 53.4ZM1408.54 69.336C1405.16 69.336 1402.09 66.744 1402.09 62.304C1402.09 57.84 1405.16 55.248 1408.54 55.248C1411.9 55.248 1414.98 57.84 1414.98 62.304C1414.98 66.744 1411.9 69.336 1408.54 69.336ZM1408.54 66.48C1410.37 66.48 1411.38 64.824 1411.38 62.304C1411.38 59.76 1410.37 58.128 1408.54 58.128C1406.7 58.128 1405.69 59.76 1405.69 62.304C1405.69 64.824 1406.7 66.48 1408.54 66.48ZM1417.95 69V55.584H1420.81L1421.09 57.36H1421.17C1422.32 56.208 1423.71 55.248 1425.53 55.248C1428.41 55.248 1429.69 57.264 1429.69 60.624V69H1426.16V61.08C1426.16 58.968 1425.56 58.272 1424.26 58.272C1423.16 58.272 1422.46 58.8 1421.48 59.76V69H1417.95ZM1436.61 69.336C1434.21 69.336 1432.65 67.656 1432.65 65.352C1432.65 62.496 1434.98 60.984 1440.38 60.384C1440.31 59.064 1439.76 58.08 1438.1 58.08C1436.85 58.08 1435.63 58.608 1434.41 59.352L1433.13 57C1434.72 56.04 1436.61 55.248 1438.75 55.248C1442.16 55.248 1443.91 57.264 1443.91 61.176V69H1441.03L1440.77 67.584H1440.67C1439.49 68.592 1438.15 69.336 1436.61 69.336ZM1437.77 66.576C1438.77 66.576 1439.52 66.12 1440.38 65.28V62.568C1437.09 62.976 1436.01 63.864 1436.01 65.088C1436.01 66.12 1436.73 66.576 1437.77 66.576ZM1450.82 69.336C1448.35 69.336 1447.51 67.728 1447.51 65.232V49.872H1451.03V65.376C1451.03 66.216 1451.39 66.48 1451.73 66.48C1451.85 66.48 1451.95 66.48 1452.19 66.432L1452.62 69.048C1452.21 69.192 1451.66 69.336 1450.82 69.336ZM1460.8 69V51.24H1465.67C1471.1 51.24 1474.43 54.048 1474.43 60.048C1474.43 66.024 1471.1 69 1465.87 69H1460.8ZM1464.35 66.144H1465.43C1468.77 66.144 1470.81 64.368 1470.81 60.048C1470.81 55.728 1468.77 54.072 1465.43 54.072H1464.35V66.144ZM1477.65 69V55.584H1480.5L1480.79 57.96H1480.86C1481.82 56.184 1483.29 55.248 1484.68 55.248C1485.4 55.248 1485.83 55.344 1486.24 55.536L1485.64 58.56C1485.16 58.44 1484.8 58.344 1484.22 58.344C1483.19 58.344 1481.92 59.064 1481.17 61.008V69H1477.65ZM1488.12 69V55.584H1491.65V69H1488.12ZM1489.87 53.4C1488.65 53.4 1487.83 52.632 1487.83 51.456C1487.83 50.304 1488.65 49.56 1489.87 49.56C1491.1 49.56 1491.94 50.304 1491.94 51.456C1491.94 52.632 1491.1 53.4 1489.87 53.4ZM1495.41 69V55.584H1498.27L1498.56 57.36H1498.63C1499.78 56.208 1501.17 55.248 1503 55.248C1505.88 55.248 1507.15 57.264 1507.15 60.624V69H1503.62V61.08C1503.62 58.968 1503.02 58.272 1501.72 58.272C1500.62 58.272 1499.92 58.8 1498.94 59.76V69H1495.41ZM1510.79 69V49.872H1514.24V61.344H1514.36L1518.92 55.584H1522.81L1518.2 61.104L1523.22 69H1519.4L1516.14 63.432L1514.24 65.616V69H1510.79ZM1536.43 69V51.24H1547.33V54.192H1539.99V58.296H1546.2V61.296H1539.99V66.024H1547.59V69H1536.43ZM1548.11 69L1552.33 62.016L1548.4 55.584H1552.17L1553.53 57.936C1553.89 58.728 1554.3 59.472 1554.71 60.24H1554.83C1555.14 59.472 1555.48 58.728 1555.81 57.936L1556.92 55.584H1560.57L1556.63 62.4L1560.85 69H1557.06L1555.57 66.528C1555.14 65.76 1554.71 64.944 1554.25 64.2H1554.13C1553.75 64.944 1553.39 65.736 1553.01 66.528L1551.78 69H1548.11ZM1563.12 74.16V55.584H1565.98L1566.27 56.976H1566.34C1567.44 55.992 1568.83 55.248 1570.27 55.248C1573.59 55.248 1575.55 57.936 1575.55 62.088C1575.55 66.696 1572.79 69.336 1569.84 69.336C1568.69 69.336 1567.54 68.832 1566.53 67.896L1566.65 70.08V74.16H1563.12ZM1569.07 66.432C1570.68 66.432 1571.93 65.04 1571.93 62.136C1571.93 59.544 1571.14 58.128 1569.27 58.128C1568.38 58.128 1567.56 58.584 1566.65 59.52V65.448C1567.49 66.192 1568.35 66.432 1569.07 66.432Z" fill="black"/>
<path d="M1022.18 71V53.24H1025.74V60.944H1025.78L1031.69 53.24H1035.6L1030.15 60.224L1036.54 71H1032.67L1028.06 63.032L1025.74 66.008V71H1022.18ZM1036.27 65.408V62.888H1042.85V65.408H1036.27ZM1048.12 71V56.192H1043.1V53.24H1056.69V56.192H1051.67V71H1048.12ZM1058.01 71V57.584H1060.87L1061.16 59.96H1061.23C1062.19 58.184 1063.65 57.248 1065.05 57.248C1065.77 57.248 1066.2 57.344 1066.61 57.536L1066.01 60.56C1065.53 60.44 1065.17 60.344 1064.59 60.344C1063.56 60.344 1062.29 61.064 1061.54 63.008V71H1058.01ZM1070.91 71.336C1068.51 71.336 1066.95 69.656 1066.95 67.352C1066.95 64.496 1069.28 62.984 1074.68 62.384C1074.61 61.064 1074.05 60.08 1072.4 60.08C1071.15 60.08 1069.93 60.608 1068.7 61.352L1067.43 59C1069.01 58.04 1070.91 57.248 1073.05 57.248C1076.45 57.248 1078.21 59.264 1078.21 63.176V71H1075.33L1075.06 69.584H1074.97C1073.79 70.592 1072.45 71.336 1070.91 71.336ZM1072.06 68.576C1073.07 68.576 1073.81 68.12 1074.68 67.28V64.568C1071.39 64.976 1070.31 65.864 1070.31 67.088C1070.31 68.12 1071.03 68.576 1072.06 68.576ZM1086.53 71.336C1083.17 71.336 1081.01 68.72 1081.01 64.304C1081.01 59.912 1083.77 57.248 1086.65 57.248C1088.16 57.248 1089.1 57.8 1090.08 58.688L1089.94 56.576V51.872H1093.47V71H1090.59L1090.32 69.608H1090.25C1089.27 70.592 1087.92 71.336 1086.53 71.336ZM1087.42 68.432C1088.38 68.432 1089.17 68.048 1089.94 67.064V61.16C1089.15 60.416 1088.28 60.128 1087.44 60.128C1085.93 60.128 1084.63 61.568 1084.63 64.256C1084.63 67.064 1085.67 68.432 1087.42 68.432ZM1097.25 71V57.584H1100.78V71H1097.25ZM1099 55.4C1097.78 55.4 1096.96 54.632 1096.96 53.456C1096.96 52.304 1097.78 51.56 1099 51.56C1100.22 51.56 1101.06 52.304 1101.06 53.456C1101.06 54.632 1100.22 55.4 1099 55.4ZM1109.43 71.336C1106.24 71.336 1105.02 69.32 1105.02 66.32V60.344H1103.14V57.728L1105.23 57.584L1105.62 53.936H1108.54V57.584H1111.88V60.344H1108.54V66.32C1108.54 67.856 1109.19 68.576 1110.37 68.576C1110.82 68.576 1111.33 68.408 1111.71 68.264L1112.29 70.832C1111.57 71.072 1110.63 71.336 1109.43 71.336ZM1114.64 71V57.584H1118.17V71H1114.64ZM1116.39 55.4C1115.17 55.4 1114.35 54.632 1114.35 53.456C1114.35 52.304 1115.17 51.56 1116.39 51.56C1117.61 51.56 1118.45 52.304 1118.45 53.456C1118.45 54.632 1117.61 55.4 1116.39 55.4ZM1127.54 71.336C1124.16 71.336 1121.09 68.744 1121.09 64.304C1121.09 59.84 1124.16 57.248 1127.54 57.248C1130.9 57.248 1133.98 59.84 1133.98 64.304C1133.98 68.744 1130.9 71.336 1127.54 71.336ZM1127.54 68.48C1129.37 68.48 1130.38 66.824 1130.38 64.304C1130.38 61.76 1129.37 60.128 1127.54 60.128C1125.7 60.128 1124.69 61.76 1124.69 64.304C1124.69 66.824 1125.7 68.48 1127.54 68.48ZM1136.95 71V57.584H1139.81L1140.09 59.36H1140.17C1141.32 58.208 1142.71 57.248 1144.53 57.248C1147.41 57.248 1148.69 59.264 1148.69 62.624V71H1145.16V63.08C1145.16 60.968 1144.56 60.272 1143.26 60.272C1142.16 60.272 1141.46 60.8 1140.48 61.76V71H1136.95ZM1155.61 71.336C1153.21 71.336 1151.65 69.656 1151.65 67.352C1151.65 64.496 1153.98 62.984 1159.38 62.384C1159.31 61.064 1158.76 60.08 1157.1 60.08C1155.85 60.08 1154.63 60.608 1153.41 61.352L1152.13 59C1153.72 58.04 1155.61 57.248 1157.75 57.248C1161.16 57.248 1162.91 59.264 1162.91 63.176V71H1160.03L1159.77 69.584H1159.67C1158.49 70.592 1157.15 71.336 1155.61 71.336ZM1156.77 68.576C1157.77 68.576 1158.52 68.12 1159.38 67.28V64.568C1156.09 64.976 1155.01 65.864 1155.01 67.088C1155.01 68.12 1155.73 68.576 1156.77 68.576ZM1169.82 71.336C1167.35 71.336 1166.51 69.728 1166.51 67.232V51.872H1170.03V67.376C1170.03 68.216 1170.39 68.48 1170.73 68.48C1170.85 68.48 1170.95 68.48 1171.19 68.432L1171.62 71.048C1171.21 71.192 1170.66 71.336 1169.82 71.336ZM1179.8 71V53.24H1183.35V71H1179.8ZM1187.44 71V57.584H1190.29L1190.58 59.36H1190.65C1191.8 58.208 1193.2 57.248 1195.02 57.248C1197.9 57.248 1199.17 59.264 1199.17 62.624V71H1195.64V63.08C1195.64 60.968 1195.04 60.272 1193.75 60.272C1192.64 60.272 1191.95 60.8 1190.96 61.76V71H1187.44ZM1203.39 71V56.48C1203.39 53.696 1204.71 51.536 1208.07 51.536C1209.12 51.536 1210.03 51.752 1210.63 51.968L1209.96 54.608C1209.51 54.416 1209 54.296 1208.55 54.296C1207.49 54.296 1206.91 54.944 1206.91 56.432V71H1203.39ZM1201.59 60.344V57.728L1203.6 57.584H1209.46V60.344H1201.59ZM1216.96 71.336C1213.57 71.336 1210.5 68.744 1210.5 64.304C1210.5 59.84 1213.57 57.248 1216.96 57.248C1220.32 57.248 1223.39 59.84 1223.39 64.304C1223.39 68.744 1220.32 71.336 1216.96 71.336ZM1216.96 68.48C1218.78 68.48 1219.79 66.824 1219.79 64.304C1219.79 61.76 1218.78 60.128 1216.96 60.128C1215.11 60.128 1214.1 61.76 1214.1 64.304C1214.1 66.824 1215.11 68.48 1216.96 68.48Z" fill="black"/>
</svg>