<svg width="130" height="24" viewBox="0 0 130 24" fill="none" xmlns="http://www.w3.org/2000/svg">
<path d="M13.008 6.15275H17.232V8.74475H13.008V6.15275ZM16.368 0.776746H19.56V13.9767H16.368V0.776746ZM12.024 14.4567C16.728 14.4567 19.632 16.0647 19.632 18.7527C19.632 21.4647 16.728 23.0247 12.024 23.0247C7.32 23.0247 4.416 21.4647 4.416 18.7527C4.416 16.0647 7.32 14.4567 12.024 14.4567ZM12.024 16.8807C9.144 16.8807 7.608 17.4807 7.608 18.7527C7.608 20.0007 9.144 20.6007 12.024 20.6007C14.928 20.6007 16.464 20.0007 16.464 18.7527C16.464 17.4807 14.928 16.8807 12.024 16.8807ZM6.096 3.00875H8.688V4.40074C8.688 8.64875 6.72 12.5367 2.472 13.9767L0.84 11.4567C4.512 10.2087 6.096 7.25675 6.096 4.40074V3.00875ZM6.768 3.00875H9.336V4.40074C9.336 7.01675 10.848 9.72875 14.352 10.9047L12.792 13.4247C8.664 12.0567 6.768 8.36075 6.768 4.40074V3.00875ZM1.704 2.12075H13.656V4.66475H1.704V2.12075ZM27.0221 5.14475H29.3981V5.84074C29.3981 9.39275 27.9581 12.5847 24.4781 13.8807L23.0141 11.5287C25.8221 10.4967 27.0221 8.21675 27.0221 5.84074V5.14475ZM27.6701 5.14475H30.0221V5.84074C30.0221 8.07274 31.2461 10.2087 34.0301 11.1687L32.6141 13.5207C29.1101 12.3207 27.6701 9.24875 27.6701 5.84074V5.14475ZM23.6381 3.27275H33.3821V5.76875H23.6381V3.27275ZM27.0221 0.992744H30.0221V4.42474H27.0221V0.992744ZM38.9501 0.800745H41.9741V14.4087H38.9501V0.800745ZM36.2861 6.34475H39.8141V8.88875H36.2861V6.34475ZM34.3181 1.13675H37.2941V14.3127H34.3181V1.13675ZM26.7101 15.3447H41.9741V23.0007H38.8061V17.8887H26.7101V15.3447ZM50.4683 4.28075H53.0123V6.77675C53.0123 11.9127 50.9243 16.9287 46.7483 18.8247L44.9482 16.3047C48.6683 14.6487 50.4683 10.5447 50.4683 6.77675V4.28075ZM51.1883 4.28075H53.7083V6.77675C53.7083 10.3767 55.4843 14.2167 59.2043 15.7527L57.4763 18.2727C53.2523 16.4487 51.1883 11.7207 51.1883 6.77675V4.28075ZM45.8363 2.91275H58.2923V5.52874H45.8363V2.91275ZM60.3563 0.776746H63.5723V23.0007H60.3563V0.776746ZM72.9784 12.1767H76.1704V17.0487H72.9784V12.1767ZM82.7224 0.776746H85.9144V17.6007H82.7224V0.776746ZM69.9064 20.0727H86.3944V22.6167H69.9064V20.0727ZM69.9064 16.0167H73.0984V20.7447H69.9064V16.0167ZM67.5064 13.1367L67.1224 10.5927C71.1784 10.5927 76.6024 10.5447 81.2584 9.94475L81.4504 12.2247C76.7224 13.0167 71.5144 13.1367 67.5064 13.1367ZM78.5224 13.6887H83.4184V15.8727H78.5224V13.6887ZM74.2744 1.54474C77.5144 1.54474 79.7944 3.15275 79.7944 5.50475C79.7944 7.88075 77.5144 9.46475 74.2744 9.46475C71.0104 9.46475 68.7304 7.88075 68.7304 5.50475C68.7304 3.15275 71.0104 1.54474 74.2744 1.54474ZM74.2744 3.87275C72.7864 3.87275 71.7544 4.42474 71.7544 5.50475C71.7544 6.58475 72.7864 7.13675 74.2744 7.13675C75.7384 7.13675 76.7704 6.58475 76.7704 5.50475C76.7704 4.42474 75.7384 3.87275 74.2744 3.87275ZM94.2645 2.48075H96.8565V5.72075C96.8565 11.2167 94.9365 16.3767 90.7365 18.4407L88.8165 15.8727C92.5605 14.1207 94.2645 9.84875 94.2645 5.72075V2.48075ZM94.9125 2.48075H97.4565V5.72075C97.4565 9.70475 99.0405 13.7607 102.593 15.4887L100.673 18.0327C96.6645 15.9927 94.9125 11.0487 94.9125 5.72075V2.48075ZM103.481 0.776746H106.697V23.0007H103.481V0.776746ZM105.977 9.32075H109.913V11.9847H105.977V9.32075ZM122.583 5.67275H128.151V8.24075H122.583V5.67275ZM117.495 1.68875C120.831 1.68875 123.351 3.92075 123.351 6.99275C123.351 10.0887 120.831 12.2967 117.495 12.2967C114.135 12.2967 111.615 10.0887 111.615 6.99275C111.615 3.92075 114.135 1.68875 117.495 1.68875ZM117.495 4.35275C115.863 4.35275 114.663 5.33675 114.663 6.99275C114.663 8.64875 115.863 9.65675 117.495 9.65675C119.127 9.65675 120.303 8.64875 120.303 6.99275C120.303 5.33675 119.127 4.35275 117.495 4.35275ZM126.759 0.776746H129.951V12.7287H126.759V0.776746ZM115.191 13.6887H118.359V15.8007H126.783V13.6887H129.951V22.7607H115.191V13.6887ZM118.359 18.2487V20.2167H126.783V18.2487H118.359Z" fill="black"/>
</svg>