<svg width="73" height="21" viewBox="0 0 73 21" fill="none" xmlns="http://www.w3.org/2000/svg">
<path d="M0.184 20V2.24H3.784L8.944 11.72L10.744 15.56H10.864C10.672 13.712 10.384 11.336 10.384 9.32V2.24H13.768V20H10.144L5.008 10.496L3.208 6.704H3.088C3.256 8.6 3.544 10.832 3.544 12.896V20H0.184ZM23.4886 20.336C20.1046 20.336 17.0326 17.744 17.0326 13.304C17.0326 8.84 20.1046 6.248 23.4886 6.248C26.8486 6.248 29.9206 8.84 29.9206 13.304C29.9206 17.744 26.8486 20.336 23.4886 20.336ZM23.4886 17.48C25.3126 17.48 26.3206 15.824 26.3206 13.304C26.3206 10.76 25.3126 9.128 23.4886 9.128C21.6406 9.128 20.6326 10.76 20.6326 13.304C20.6326 15.824 21.6406 17.48 23.4886 17.48ZM37.0186 20.336C33.8266 20.336 32.6026 18.32 32.6026 15.32V9.344H30.7306V6.728L32.8186 6.584L33.2026 2.936H36.1306V6.584H39.4666V9.344H36.1306V15.32C36.1306 16.856 36.7786 17.576 37.9546 17.576C38.4106 17.576 38.9146 17.408 39.2986 17.264L39.8746 19.832C39.1546 20.072 38.2186 20.336 37.0186 20.336ZM42.2241 20V6.584H45.7521V20H42.2241ZM43.9761 4.4C42.7521 4.4 41.9361 3.632 41.9361 2.456C41.9361 1.304 42.7521 0.559999 43.9761 0.559999C45.2001 0.559999 46.0401 1.304 46.0401 2.456C46.0401 3.632 45.2001 4.4 43.9761 4.4ZM55.2012 20.336C51.5052 20.336 48.6732 17.744 48.6732 13.304C48.6732 8.84 51.8652 6.248 55.5132 6.248C57.1932 6.248 58.4412 6.872 59.4252 7.736L57.7692 9.992C57.0972 9.416 56.4492 9.128 55.7292 9.128C53.6412 9.128 52.2732 10.76 52.2732 13.304C52.2732 15.824 53.6652 17.48 55.5852 17.48C56.5692 17.48 57.4812 17 58.2252 16.4L59.6172 18.728C58.3452 19.832 56.6892 20.336 55.2012 20.336ZM67.1817 20.336C63.4137 20.336 60.4857 17.744 60.4857 13.304C60.4857 8.936 63.5577 6.248 66.7257 6.248C70.4457 6.248 72.3417 8.936 72.3417 12.656C72.3417 13.328 72.2697 13.952 72.1977 14.288H63.8937C64.2057 16.496 65.6457 17.624 67.6377 17.624C68.7177 17.624 69.6777 17.288 70.6617 16.688L71.8377 18.872C70.5177 19.784 68.8377 20.336 67.1817 20.336ZM63.8457 11.936H69.3417C69.3417 10.112 68.5257 8.96 66.7977 8.96C65.3817 8.96 64.1337 9.968 63.8457 11.936Z" fill="black"/>
</svg>