<svg width="88" height="61" viewBox="0 0 88 61" fill="none" xmlns="http://www.w3.org/2000/svg">
<path d="M1.184 20V2.24H4.736V9.944H4.784L10.688 2.24H14.6L9.152 9.224L15.536 20H11.672L7.064 12.032L4.736 15.008V20H1.184ZM15.2692 14.408V11.888H21.8452V14.408H15.2692ZM25.184 20V2.24H30.056C35.48 2.24 38.816 5.048 38.816 11.048C38.816 17.024 35.48 20 30.248 20H25.184ZM28.736 17.144H29.816C33.152 17.144 35.192 15.368 35.192 11.048C35.192 6.728 33.152 5.072 29.816 5.072H28.736V17.144ZM42.0288 20V6.584H44.8848L45.1728 8.96H45.2448C46.2048 7.184 47.6688 6.248 49.0608 6.248C49.7808 6.248 50.2128 6.344 50.6208 6.536L50.0208 9.56C49.5408 9.44 49.1808 9.344 48.6048 9.344C47.5728 9.344 46.3008 10.064 45.5568 12.008V20H42.0288ZM52.5054 20V6.584H56.0334V20H52.5054ZM54.2574 4.4C53.0334 4.4 52.2174 3.632 52.2174 2.456C52.2174 1.304 53.0334 0.559999 54.2574 0.559999C55.4814 0.559999 56.3214 1.304 56.3214 2.456C56.3214 3.632 55.4814 4.4 54.2574 4.4ZM59.7944 20V6.584H62.6504L62.9384 8.36H63.0104C64.1624 7.208 65.5544 6.248 67.3784 6.248C70.2584 6.248 71.5304 8.264 71.5304 11.624V20H68.0024V12.08C68.0024 9.968 67.4024 9.272 66.1064 9.272C65.0024 9.272 64.3064 9.8 63.3224 10.76V20H59.7944ZM75.1694 20V0.871999H78.6254V12.344H78.7454L83.3054 6.584H87.1934L82.5854 12.104L87.6014 20H83.7854L80.5214 14.432L78.6254 16.616V20H75.1694ZM6.488 55.336C4.088 55.336 1.736 54.424 0.00800008 52.768L2.048 50.32C3.296 51.496 5 52.264 6.56 52.264C8.408 52.264 9.368 51.472 9.368 50.248C9.368 48.928 8.288 48.496 6.704 47.824L4.328 46.816C2.552 46.096 0.728 44.632 0.728 42.064C0.728 39.16 3.296 36.928 6.872 36.928C8.936 36.928 11 37.744 12.44 39.208L10.664 41.44C9.512 40.504 8.336 39.976 6.872 39.976C5.312 39.976 4.328 40.672 4.328 41.824C4.328 43.096 5.6 43.576 7.112 44.176L9.44 45.136C11.576 46.024 12.992 47.416 12.992 49.96C12.992 52.864 10.568 55.336 6.488 55.336ZM19.9014 55.336C16.7094 55.336 15.4854 53.32 15.4854 50.32V44.344H13.6134V41.728L15.7014 41.584L16.0854 37.936H19.0134V41.584H22.3494V44.344H19.0134V50.32C19.0134 51.856 19.6614 52.576 20.8374 52.576C21.2934 52.576 21.7974 52.408 22.1814 52.264L22.7574 54.832C22.0374 55.072 21.1014 55.336 19.9014 55.336ZM30.137 55.336C26.753 55.336 23.681 52.744 23.681 48.304C23.681 43.84 26.753 41.248 30.137 41.248C33.497 41.248 36.569 43.84 36.569 48.304C36.569 52.744 33.497 55.336 30.137 55.336ZM30.137 52.48C31.961 52.48 32.969 50.824 32.969 48.304C32.969 45.76 31.961 44.128 30.137 44.128C28.289 44.128 27.281 45.76 27.281 48.304C27.281 50.824 28.289 52.48 30.137 52.48ZM39.5444 55V41.584H42.4004L42.6884 43.96H42.7604C43.7204 42.184 45.1844 41.248 46.5764 41.248C47.2964 41.248 47.7284 41.344 48.1364 41.536L47.5364 44.56C47.0564 44.44 46.6964 44.344 46.1204 44.344C45.0884 44.344 43.8164 45.064 43.0724 47.008V55H39.5444ZM51.3839 60.4C50.6159 60.4 50.0639 60.304 49.5599 60.136L50.2079 57.424C50.4479 57.496 50.8079 57.616 51.1439 57.616C52.4879 57.616 53.2559 56.752 53.6639 55.552L53.8799 54.76L48.6479 41.584H52.2239L54.3359 47.8C54.7439 49.024 55.0799 50.32 55.4879 51.616H55.6079C55.8959 50.344 56.2319 49.072 56.5439 47.8L58.4159 41.584H61.7999L57.0239 55.432C55.8479 58.576 54.4079 60.4 51.3839 60.4Z" fill="black"/>
</svg>