<svg width="46" height="20" viewBox="0 0 46 20" fill="none" xmlns="http://www.w3.org/2000/svg">
<path d="M6.488 19.336C4.088 19.336 1.736 18.424 0.00800008 16.768L2.048 14.32C3.296 15.496 5 16.264 6.56 16.264C8.408 16.264 9.368 15.472 9.368 14.248C9.368 12.928 8.288 12.496 6.704 11.824L4.328 10.816C2.552 10.096 0.728 8.632 0.728 6.064C0.728 3.16 3.296 0.927999 6.872 0.927999C8.936 0.927999 11 1.744 12.44 3.208L10.664 5.44C9.512 4.504 8.336 3.976 6.872 3.976C5.312 3.976 4.328 4.672 4.328 5.824C4.328 7.096 5.6 7.576 7.112 8.176L9.44 9.136C11.576 10.024 12.992 11.416 12.992 13.96C12.992 16.864 10.568 19.336 6.488 19.336ZM16.1606 19V1.24H19.7606L24.9206 10.72L26.7206 14.56H26.8406C26.6486 12.712 26.3606 10.336 26.3606 8.32V1.24H29.7446V19H26.1206L20.9846 9.496L19.1846 5.704H19.0646C19.2326 7.6 19.5206 9.832 19.5206 11.896V19H16.1606ZM39.4411 19.336C37.0411 19.336 34.6891 18.424 32.9611 16.768L35.0011 14.32C36.2491 15.496 37.9531 16.264 39.5131 16.264C41.3611 16.264 42.3211 15.472 42.3211 14.248C42.3211 12.928 41.2411 12.496 39.6571 11.824L37.2811 10.816C35.5051 10.096 33.6811 8.632 33.6811 6.064C33.6811 3.16 36.2491 0.927999 39.8251 0.927999C41.8891 0.927999 43.9531 1.744 45.3931 3.208L43.6171 5.44C42.4651 4.504 41.2891 3.976 39.8251 3.976C38.2651 3.976 37.2811 4.672 37.2811 5.824C37.2811 7.096 38.5531 7.576 40.0651 8.176L42.3931 9.136C44.5291 10.024 45.9451 11.416 45.9451 13.96C45.9451 16.864 43.5211 19.336 39.4411 19.336Z" fill="black"/>
</svg>