<svg width="202" height="21" viewBox="0 0 202 21" fill="none" xmlns="http://www.w3.org/2000/svg">
<path d="M0.184 20V2.24H3.736V9.944H3.784L9.688 2.24H13.6L8.152 9.224L14.536 20H10.672L6.064 12.032L3.736 15.008V20H0.184ZM14.2692 14.408V11.888H20.8452V14.408H14.2692ZM26.1183 20V5.192H21.1023V2.24H34.6863V5.192H29.6703V20H26.1183ZM36.0132 20V6.584H38.8692L39.1572 8.96H39.2292C40.1892 7.184 41.6532 6.248 43.0452 6.248C43.7652 6.248 44.1972 6.344 44.6052 6.536L44.0052 9.56C43.5252 9.44 43.1652 9.344 42.5892 9.344C41.5572 9.344 40.2852 10.064 39.5412 12.008V20H36.0132ZM48.9106 20.336C46.5106 20.336 44.9506 18.656 44.9506 16.352C44.9506 13.496 47.2786 11.984 52.6786 11.384C52.6066 10.064 52.0546 9.08 50.3986 9.08C49.1506 9.08 47.9266 9.608 46.7026 10.352L45.4306 8C47.0146 7.04 48.9106 6.248 51.0466 6.248C54.4546 6.248 56.2066 8.264 56.2066 12.176V20H53.3266L53.0626 18.584H52.9666C51.7906 19.592 50.4466 20.336 48.9106 20.336ZM50.0626 17.576C51.0706 17.576 51.8146 17.12 52.6786 16.28V13.568C49.3906 13.976 48.3106 14.864 48.3106 16.088C48.3106 17.12 49.0306 17.576 50.0626 17.576ZM64.5303 20.336C61.1703 20.336 59.0103 17.72 59.0103 13.304C59.0103 8.912 61.7703 6.248 64.6503 6.248C66.1623 6.248 67.0983 6.8 68.0823 7.688L67.9383 5.576V0.871999H71.4662V20H68.5863L68.3223 18.608H68.2503C67.2663 19.592 65.9223 20.336 64.5303 20.336ZM65.4183 17.432C66.3783 17.432 67.1703 17.048 67.9383 16.064V10.16C67.1463 9.416 66.2823 9.128 65.4423 9.128C63.9303 9.128 62.6343 10.568 62.6343 13.256C62.6343 16.064 63.6663 17.432 65.4183 17.432ZM75.2476 20V6.584H78.7756V20H75.2476ZM76.9996 4.4C75.7756 4.4 74.9596 3.632 74.9596 2.456C74.9596 1.304 75.7756 0.559999 76.9996 0.559999C78.2236 0.559999 79.0636 1.304 79.0636 2.456C79.0636 3.632 78.2236 4.4 76.9996 4.4ZM87.4326 20.336C84.2406 20.336 83.0166 18.32 83.0166 15.32V9.344H81.1446V6.728L83.2326 6.584L83.6166 2.936H86.5446V6.584H89.8806V9.344H86.5446V15.32C86.5446 16.856 87.1926 17.576 88.3686 17.576C88.8246 17.576 89.3286 17.408 89.7126 17.264L90.2886 19.832C89.5686 20.072 88.6326 20.336 87.4326 20.336ZM92.6382 20V6.584H96.1662V20H92.6382ZM94.3902 4.4C93.1662 4.4 92.3502 3.632 92.3502 2.456C92.3502 1.304 93.1662 0.559999 94.3902 0.559999C95.6142 0.559999 96.4542 1.304 96.4542 2.456C96.4542 3.632 95.6142 4.4 94.3902 4.4ZM105.543 20.336C102.159 20.336 99.0873 17.744 99.0873 13.304C99.0873 8.84 102.159 6.248 105.543 6.248C108.903 6.248 111.975 8.84 111.975 13.304C111.975 17.744 108.903 20.336 105.543 20.336ZM105.543 17.48C107.367 17.48 108.375 15.824 108.375 13.304C108.375 10.76 107.367 9.128 105.543 9.128C103.695 9.128 102.687 10.76 102.687 13.304C102.687 15.824 103.695 17.48 105.543 17.48ZM114.951 20V6.584H117.807L118.095 8.36H118.167C119.319 7.208 120.711 6.248 122.535 6.248C125.415 6.248 126.687 8.264 126.687 11.624V20H123.159V12.08C123.159 9.968 122.559 9.272 121.263 9.272C120.159 9.272 119.463 9.8 118.479 10.76V20H114.951ZM133.614 20.336C131.214 20.336 129.654 18.656 129.654 16.352C129.654 13.496 131.982 11.984 137.382 11.384C137.31 10.064 136.758 9.08 135.102 9.08C133.854 9.08 132.63 9.608 131.406 10.352L130.134 8C131.718 7.04 133.614 6.248 135.75 6.248C139.158 6.248 140.91 8.264 140.91 12.176V20H138.03L137.766 18.584H137.67C136.494 19.592 135.15 20.336 133.614 20.336ZM134.766 17.576C135.774 17.576 136.518 17.12 137.382 16.28V13.568C134.094 13.976 133.014 14.864 133.014 16.088C133.014 17.12 133.734 17.576 134.766 17.576ZM147.817 20.336C145.345 20.336 144.505 18.728 144.505 16.232V0.871999H148.033V16.376C148.033 17.216 148.393 17.48 148.729 17.48C148.849 17.48 148.945 17.48 149.185 17.432L149.617 20.048C149.209 20.192 148.657 20.336 147.817 20.336ZM157.801 20V2.24H161.353V20H157.801ZM165.435 20V6.584H168.291L168.579 8.36H168.651C169.803 7.208 171.195 6.248 173.019 6.248C175.899 6.248 177.171 8.264 177.171 11.624V20H173.643V12.08C173.643 9.968 173.043 9.272 171.747 9.272C170.643 9.272 169.947 9.8 168.963 10.76V20H165.435ZM181.386 20V5.48C181.386 2.696 182.706 0.535999 186.066 0.535999C187.122 0.535999 188.034 0.751999 188.634 0.967999L187.962 3.608C187.506 3.416 187.002 3.296 186.546 3.296C185.49 3.296 184.914 3.944 184.914 5.432V20H181.386ZM179.586 9.344V6.728L181.602 6.584H187.458V9.344H179.586ZM194.957 20.336C191.573 20.336 188.501 17.744 188.501 13.304C188.501 8.84 191.573 6.248 194.957 6.248C198.317 6.248 201.389 8.84 201.389 13.304C201.389 17.744 198.317 20.336 194.957 20.336ZM194.957 17.48C196.781 17.48 197.789 15.824 197.789 13.304C197.789 10.76 196.781 9.128 194.957 9.128C193.109 9.128 192.101 10.76 192.101 13.304C192.101 15.824 193.109 17.48 194.957 17.48Z" fill="black"/>
</svg>