<svg width="68" height="19" viewBox="0 0 68 19" fill="none" xmlns="http://www.w3.org/2000/svg">
<path d="M0.184 18V0.24H3.736V7.248H10.456V0.24H13.984V18H10.456V10.32H3.736V18H0.184ZM23.6761 18.336C20.2921 18.336 17.2201 15.744 17.2201 11.304C17.2201 6.84 20.2921 4.248 23.6761 4.248C27.0361 4.248 30.1081 6.84 30.1081 11.304C30.1081 15.744 27.0361 18.336 23.6761 18.336ZM23.6761 15.48C25.5001 15.48 26.5081 13.824 26.5081 11.304C26.5081 8.76 25.5001 7.128 23.6761 7.128C21.8281 7.128 20.8201 8.76 20.8201 11.304C20.8201 13.824 21.8281 15.48 23.6761 15.48ZM33.0835 18V4.584H35.9395L36.2275 6.36H36.2995C37.4275 5.208 38.6755 4.248 40.4035 4.248C42.3475 4.248 43.4755 5.088 44.0995 6.576C45.3475 5.304 46.6435 4.248 48.3955 4.248C51.2515 4.248 52.5475 6.264 52.5475 9.624V18H49.0195V10.08C49.0195 7.968 48.4435 7.272 47.1475 7.272C46.3795 7.272 45.5395 7.752 44.5795 8.76V18H41.0515V10.08C41.0515 7.968 40.4515 7.272 39.1555 7.272C38.4115 7.272 37.5235 7.752 36.6115 8.76V18H33.0835ZM62.0723 18.336C58.3043 18.336 55.3763 15.744 55.3763 11.304C55.3763 6.936 58.4483 4.248 61.6163 4.248C65.3363 4.248 67.2323 6.936 67.2323 10.656C67.2323 11.328 67.1603 11.952 67.0883 12.288H58.7843C59.0963 14.496 60.5363 15.624 62.5283 15.624C63.6083 15.624 64.5683 15.288 65.5523 14.688L66.7283 16.872C65.4083 17.784 63.7283 18.336 62.0723 18.336ZM58.7363 9.936H64.2323C64.2323 8.112 63.4163 6.96 61.6883 6.96C60.2723 6.96 59.0243 7.968 58.7363 9.936Z" fill="black"/>
</svg>