<svg width="311" height="26" viewBox="0 0 311 26" fill="none" xmlns="http://www.w3.org/2000/svg">
<path d="M0.184 20V2.24H3.736V9.944H3.784L9.688 2.24H13.6L8.152 9.224L14.536 20H10.672L6.064 12.032L3.736 15.008V20H0.184ZM14.2692 14.408V11.888H20.8452V14.408H14.2692ZM26.1183 20V5.192H21.1023V2.24H34.6863V5.192H29.6703V20H26.1183ZM36.0132 20V6.584H38.8692L39.1572 8.96H39.2292C40.1892 7.184 41.6532 6.248 43.0452 6.248C43.7652 6.248 44.1972 6.344 44.6052 6.536L44.0052 9.56C43.5252 9.44 43.1652 9.344 42.5892 9.344C41.5572 9.344 40.2852 10.064 39.5412 12.008V20H36.0132ZM48.9106 20.336C46.5106 20.336 44.9506 18.656 44.9506 16.352C44.9506 13.496 47.2786 11.984 52.6786 11.384C52.6066 10.064 52.0546 9.08 50.3986 9.08C49.1506 9.08 47.9266 9.608 46.7026 10.352L45.4306 8C47.0146 7.04 48.9106 6.248 51.0466 6.248C54.4546 6.248 56.2066 8.264 56.2066 12.176V20H53.3266L53.0626 18.584H52.9666C51.7906 19.592 50.4466 20.336 48.9106 20.336ZM50.0626 17.576C51.0706 17.576 51.8146 17.12 52.6786 16.28V13.568C49.3906 13.976 48.3106 14.864 48.3106 16.088C48.3106 17.12 49.0306 17.576 50.0626 17.576ZM64.5303 20.336C61.1703 20.336 59.0103 17.72 59.0103 13.304C59.0103 8.912 61.7703 6.248 64.6503 6.248C66.1623 6.248 67.0983 6.8 68.0823 7.688L67.9383 5.576V0.871999H71.4662V20H68.5863L68.3223 18.608H68.2503C67.2663 19.592 65.9223 20.336 64.5303 20.336ZM65.4183 17.432C66.3783 17.432 67.1703 17.048 67.9383 16.064V10.16C67.1463 9.416 66.2823 9.128 65.4423 9.128C63.9303 9.128 62.6343 10.568 62.6343 13.256C62.6343 16.064 63.6663 17.432 65.4183 17.432ZM75.2476 20V6.584H78.7756V20H75.2476ZM76.9996 4.4C75.7756 4.4 74.9596 3.632 74.9596 2.456C74.9596 1.304 75.7756 0.559999 76.9996 0.559999C78.2236 0.559999 79.0636 1.304 79.0636 2.456C79.0636 3.632 78.2236 4.4 76.9996 4.4ZM87.4326 20.336C84.2406 20.336 83.0166 18.32 83.0166 15.32V9.344H81.1446V6.728L83.2326 6.584L83.6166 2.936H86.5446V6.584H89.8806V9.344H86.5446V15.32C86.5446 16.856 87.1926 17.576 88.3686 17.576C88.8246 17.576 89.3286 17.408 89.7126 17.264L90.2886 19.832C89.5686 20.072 88.6326 20.336 87.4326 20.336ZM92.6382 20V6.584H96.1662V20H92.6382ZM94.3902 4.4C93.1662 4.4 92.3502 3.632 92.3502 2.456C92.3502 1.304 93.1662 0.559999 94.3902 0.559999C95.6142 0.559999 96.4542 1.304 96.4542 2.456C96.4542 3.632 95.6142 4.4 94.3902 4.4ZM105.543 20.336C102.159 20.336 99.0873 17.744 99.0873 13.304C99.0873 8.84 102.159 6.248 105.543 6.248C108.903 6.248 111.975 8.84 111.975 13.304C111.975 17.744 108.903 20.336 105.543 20.336ZM105.543 17.48C107.367 17.48 108.375 15.824 108.375 13.304C108.375 10.76 107.367 9.128 105.543 9.128C103.695 9.128 102.687 10.76 102.687 13.304C102.687 15.824 103.695 17.48 105.543 17.48ZM114.951 20V6.584H117.807L118.095 8.36H118.167C119.319 7.208 120.711 6.248 122.535 6.248C125.415 6.248 126.687 8.264 126.687 11.624V20H123.159V12.08C123.159 9.968 122.559 9.272 121.263 9.272C120.159 9.272 119.463 9.8 118.479 10.76V20H114.951ZM133.614 20.336C131.214 20.336 129.654 18.656 129.654 16.352C129.654 13.496 131.982 11.984 137.382 11.384C137.31 10.064 136.758 9.08 135.102 9.08C133.854 9.08 132.63 9.608 131.406 10.352L130.134 8C131.718 7.04 133.614 6.248 135.75 6.248C139.158 6.248 140.91 8.264 140.91 12.176V20H138.03L137.766 18.584H137.67C136.494 19.592 135.15 20.336 133.614 20.336ZM134.766 17.576C135.774 17.576 136.518 17.12 137.382 16.28V13.568C134.094 13.976 133.014 14.864 133.014 16.088C133.014 17.12 133.734 17.576 134.766 17.576ZM147.817 20.336C145.345 20.336 144.505 18.728 144.505 16.232V0.871999H148.033V16.376C148.033 17.216 148.393 17.48 148.729 17.48C148.849 17.48 148.945 17.48 149.185 17.432L149.617 20.048C149.209 20.192 148.657 20.336 147.817 20.336ZM157.801 20V2.24H162.673C168.097 2.24 171.433 5.048 171.433 11.048C171.433 17.024 168.097 20 162.865 20H157.801ZM161.353 17.144H162.433C165.769 17.144 167.809 15.368 167.809 11.048C167.809 6.728 165.769 5.072 162.433 5.072H161.353V17.144ZM174.646 20V6.584H177.502L177.79 8.96H177.862C178.822 7.184 180.286 6.248 181.678 6.248C182.398 6.248 182.83 6.344 183.238 6.536L182.638 9.56C182.158 9.44 181.798 9.344 181.222 9.344C180.19 9.344 178.918 10.064 178.174 12.008V20H174.646ZM185.123 20V6.584H188.651V20H185.123ZM186.875 4.4C185.651 4.4 184.835 3.632 184.835 2.456C184.835 1.304 185.651 0.559999 186.875 0.559999C188.099 0.559999 188.939 1.304 188.939 2.456C188.939 3.632 188.099 4.4 186.875 4.4ZM192.412 20V6.584H195.268L195.556 8.36H195.628C196.78 7.208 198.172 6.248 199.996 6.248C202.876 6.248 204.148 8.264 204.148 11.624V20H200.62V12.08C200.62 9.968 200.02 9.272 198.724 9.272C197.62 9.272 196.924 9.8 195.94 10.76V20H192.412ZM207.787 20V0.871999H211.243V12.344H211.363L215.923 6.584H219.811L215.203 12.104L220.219 20H216.403L213.139 14.432L211.243 16.616V20H207.787ZM235.629 20.336C230.805 20.336 227.109 17.12 227.109 11.192C227.109 5.336 230.901 1.928 235.629 1.928C238.173 1.928 239.949 3.032 241.101 4.184L239.229 6.464C238.341 5.624 237.333 4.976 235.749 4.976C232.773 4.976 230.733 7.28 230.733 11.072C230.733 14.96 232.509 17.264 235.989 17.264C236.853 17.264 237.717 17.024 238.221 16.616V13.112H235.053V10.208H241.389V18.2C240.189 19.4 238.077 20.336 235.629 20.336ZM248.2 20.336C245.8 20.336 244.24 18.656 244.24 16.352C244.24 13.496 246.568 11.984 251.968 11.384C251.896 10.064 251.344 9.08 249.688 9.08C248.44 9.08 247.216 9.608 245.992 10.352L244.72 8C246.304 7.04 248.2 6.248 250.336 6.248C253.744 6.248 255.496 8.264 255.496 12.176V20H252.616L252.352 18.584H252.256C251.08 19.592 249.736 20.336 248.2 20.336ZM249.352 17.576C250.36 17.576 251.104 17.12 251.968 16.28V13.568C248.68 13.976 247.6 14.864 247.6 16.088C247.6 17.12 248.32 17.576 249.352 17.576ZM262.403 20.336C259.931 20.336 259.091 18.728 259.091 16.232V0.871999H262.619V16.376C262.619 17.216 262.979 17.48 263.315 17.48C263.435 17.48 263.531 17.48 263.771 17.432L264.203 20.048C263.795 20.192 263.243 20.336 262.403 20.336ZM269.974 20.336C267.502 20.336 266.662 18.728 266.662 16.232V0.871999H270.19V16.376C270.19 17.216 270.55 17.48 270.886 17.48C271.006 17.48 271.102 17.48 271.342 17.432L271.774 20.048C271.366 20.192 270.814 20.336 269.974 20.336ZM280.088 20.336C276.32 20.336 273.392 17.744 273.392 13.304C273.392 8.936 276.464 6.248 279.632 6.248C283.352 6.248 285.248 8.936 285.248 12.656C285.248 13.328 285.176 13.952 285.104 14.288H276.8C277.112 16.496 278.552 17.624 280.544 17.624C281.624 17.624 282.584 17.288 283.568 16.688L284.744 18.872C283.424 19.784 281.744 20.336 280.088 20.336ZM276.752 11.936H282.248C282.248 10.112 281.432 8.96 279.704 8.96C278.288 8.96 277.04 9.968 276.752 11.936ZM288.177 20V6.584H291.033L291.321 8.96H291.393C292.353 7.184 293.817 6.248 295.209 6.248C295.929 6.248 296.361 6.344 296.769 6.536L296.169 9.56C295.689 9.44 295.329 9.344 294.753 9.344C293.721 9.344 292.449 10.064 291.705 12.008V20H288.177ZM300.017 25.4C299.249 25.4 298.697 25.304 298.193 25.136L298.841 22.424C299.081 22.496 299.441 22.616 299.777 22.616C301.121 22.616 301.889 21.752 302.297 20.552L302.513 19.76L297.281 6.584H300.857L302.969 12.8C303.377 14.024 303.713 15.32 304.121 16.616H304.241C304.529 15.344 304.865 14.072 305.177 12.8L307.049 6.584H310.433L305.657 20.432C304.481 23.576 303.041 25.4 300.017 25.4Z" fill="black"/>
</svg>