<svg width="159" height="23" viewBox="0 0 159 23" fill="none" xmlns="http://www.w3.org/2000/svg">
<path d="M12.864 6.00249H18.048V8.57049H12.864V6.00249ZM16.368 0.290492H19.56V16.4905H16.368V0.290492ZM4.896 19.5625H20.064V22.1065H4.896V19.5625ZM4.896 15.1225H8.088V21.0745H4.896V15.1225ZM6.096 3.19449H8.688V4.58649C8.688 8.76249 6.72 12.6265 2.448 14.0425L0.84 11.4985C4.512 10.2985 6.096 7.39449 6.096 4.58649V3.19449ZM6.768 3.19449H9.336V4.58649C9.336 7.17849 10.848 9.93849 14.352 11.1145L12.792 13.6105C8.664 12.2425 6.768 8.54649 6.768 4.58649V3.19449ZM1.704 1.77849H13.656V4.29849H1.704V1.77849ZM23.0141 11.7145H43.1261V14.2105H23.0141V11.7145ZM31.4621 9.33849H34.6541V12.6265H31.4621V9.33849ZM25.5101 7.94649H40.9901V10.3705H25.5101V7.94649ZM25.5101 0.818492H40.8221V3.24249H28.6781V9.31449H25.5101V0.818492ZM27.7901 4.41849H40.3181V6.74649H27.7901V4.41849ZM33.0461 15.1945C37.9181 15.1945 40.7501 16.4905 40.7501 18.8425C40.7501 21.2185 37.9181 22.4905 33.0461 22.4905C28.1501 22.4905 25.3181 21.2185 25.3181 18.8425C25.3181 16.4905 28.1501 15.1945 33.0461 15.1945ZM33.0461 17.5465C29.9501 17.5465 28.5341 17.9305 28.5341 18.8425C28.5341 19.7785 29.9501 20.1625 33.0461 20.1625C36.1181 20.1625 37.5341 19.7785 37.5341 18.8425C37.5341 17.9305 36.1181 17.5465 33.0461 17.5465ZM53.3483 2.73849H56.1083V3.38649C56.1083 7.29849 52.9163 10.4905 47.2763 11.2585L46.1003 8.76249C50.9963 8.16249 53.3483 5.66649 53.3483 3.38649V2.73849ZM54.2603 2.73849H57.0203V3.38649C57.0203 5.66649 59.3723 8.16249 64.2683 8.76249L63.1163 11.2585C57.4523 10.4905 54.2603 7.29849 54.2603 3.38649V2.73849ZM53.5163 14.3545H56.6843V22.5145H53.5163V14.3545ZM45.1403 12.5305H65.2283V15.0745H45.1403V12.5305ZM46.9163 1.39449H63.4043V3.91449H46.9163V1.39449ZM88.5439 0.266492H91.5679V11.3785H88.5439V0.266492ZM85.8319 4.75449H89.3839V7.27449H85.8319V4.75449ZM83.6959 0.674491H86.6719V11.2345H83.6959V0.674491ZM78.9199 1.56249H82.1599C82.1599 6.93849 79.5679 10.2985 73.9999 12.2185L72.5359 9.91449C77.1199 8.45049 78.9199 6.09849 78.9199 2.83449V1.56249ZM73.5919 1.56249H80.2399V4.08249H73.5919V1.56249ZM76.4719 12.2665H91.5679V18.3385H79.6639V20.9545H76.4959V16.0105H88.4479V14.7385H76.4719V12.2665ZM76.4959 19.7545H92.2879V22.2505H76.4959V19.7545ZM110.118 0.242491H113.31V22.5385H110.118V0.242491ZM106.638 8.25849H110.766V10.8265H106.638V8.25849ZM95.478 14.7625H97.302C100.902 14.7625 103.758 14.6905 106.974 14.1385L107.262 16.7305C103.974 17.2825 100.998 17.4025 97.302 17.4025H95.478V14.7625ZM95.43 2.13849H105.438V10.4905H98.646V15.5545H95.478V7.97049H102.294V4.68249H95.43V2.13849ZM132.1 0.242491H135.292V22.5385H132.1V0.242491ZM117.988 14.7625H119.956C123.892 14.7625 127.036 14.6185 130.564 14.0185L130.876 16.5865C127.276 17.2345 124.012 17.3545 119.956 17.3545H117.988V14.7625ZM117.964 2.13849H128.452V10.7305H121.228V15.7225H117.988V8.21049H125.188V4.68249H117.964V2.13849ZM141.362 6.26649H156.77V8.78649H141.362V6.26649ZM138.866 11.0905H159.002V13.6345H138.866V11.0905ZM141.362 1.05849H144.53V7.51449H141.362V1.05849ZM141.146 19.4665H156.89V22.0105H141.146V19.4665ZM141.146 15.4105H144.338V20.1385H141.146V15.4105Z" fill="white"/>
</svg>