<svg width="131" height="26" viewBox="0 0 131 26" fill="none" xmlns="http://www.w3.org/2000/svg">
<path d="M0.184 20V2.24H5.056C10.48 2.24 13.816 5.048 13.816 11.048C13.816 17.024 10.48 20 5.248 20H0.184ZM3.736 17.144H4.816C8.152 17.144 10.192 15.368 10.192 11.048C10.192 6.728 8.152 5.072 4.816 5.072H3.736V17.144ZM17.0288 20V6.584H19.8848L20.1728 8.96H20.2448C21.2048 7.184 22.6688 6.248 24.0608 6.248C24.7808 6.248 25.2128 6.344 25.6208 6.536L25.0208 9.56C24.5408 9.44 24.1808 9.344 23.6048 9.344C22.5728 9.344 21.3008 10.064 20.5568 12.008V20H17.0288ZM27.5054 20V6.584H31.0334V20H27.5054ZM29.2574 4.4C28.0334 4.4 27.2174 3.632 27.2174 2.456C27.2174 1.304 28.0334 0.559999 29.2574 0.559999C30.4814 0.559999 31.3214 1.304 31.3214 2.456C31.3214 3.632 30.4814 4.4 29.2574 4.4ZM34.7944 20V6.584H37.6504L37.9384 8.36H38.0104C39.1624 7.208 40.5544 6.248 42.3784 6.248C45.2584 6.248 46.5304 8.264 46.5304 11.624V20H43.0024V12.08C43.0024 9.968 42.4024 9.272 41.1064 9.272C40.0024 9.272 39.3064 9.8 38.3224 10.76V20H34.7944ZM50.1694 20V0.871999H53.6254V12.344H53.7454L58.3054 6.584H62.1934L57.5854 12.104L62.6014 20H58.7854L55.5214 14.432L53.6254 16.616V20H50.1694ZM75.6833 20.336C73.2833 20.336 70.9313 19.424 69.2033 17.768L71.2433 15.32C72.4913 16.496 74.1953 17.264 75.7553 17.264C77.6033 17.264 78.5633 16.472 78.5633 15.248C78.5633 13.928 77.4833 13.496 75.8993 12.824L73.5233 11.816C71.7473 11.096 69.9233 9.632 69.9233 7.064C69.9233 4.16 72.4913 1.928 76.0673 1.928C78.1313 1.928 80.1953 2.744 81.6353 4.208L79.8593 6.44C78.7073 5.504 77.5313 4.976 76.0673 4.976C74.5073 4.976 73.5233 5.672 73.5233 6.824C73.5233 8.096 74.7953 8.576 76.3073 9.176L78.6353 10.136C80.7713 11.024 82.1873 12.416 82.1873 14.96C82.1873 17.864 79.7633 20.336 75.6833 20.336ZM89.0967 20.336C85.9047 20.336 84.6807 18.32 84.6807 15.32V9.344H82.8087V6.728L84.8967 6.584L85.2807 2.936H88.2087V6.584H91.5447V9.344H88.2087V15.32C88.2087 16.856 88.8567 17.576 90.0327 17.576C90.4887 17.576 90.9927 17.408 91.3767 17.264L91.9527 19.832C91.2327 20.072 90.2967 20.336 89.0967 20.336ZM99.3323 20.336C95.9483 20.336 92.8763 17.744 92.8763 13.304C92.8763 8.84 95.9483 6.248 99.3323 6.248C102.692 6.248 105.764 8.84 105.764 13.304C105.764 17.744 102.692 20.336 99.3323 20.336ZM99.3323 17.48C101.156 17.48 102.164 15.824 102.164 13.304C102.164 10.76 101.156 9.128 99.3323 9.128C97.4843 9.128 96.4763 10.76 96.4763 13.304C96.4763 15.824 97.4843 17.48 99.3323 17.48ZM108.74 20V6.584H111.596L111.884 8.96H111.956C112.916 7.184 114.38 6.248 115.772 6.248C116.492 6.248 116.924 6.344 117.332 6.536L116.732 9.56C116.252 9.44 115.892 9.344 115.316 9.344C114.284 9.344 113.012 10.064 112.268 12.008V20H108.74ZM120.579 25.4C119.811 25.4 119.259 25.304 118.755 25.136L119.403 22.424C119.643 22.496 120.003 22.616 120.339 22.616C121.683 22.616 122.451 21.752 122.859 20.552L123.075 19.76L117.843 6.584H121.419L123.531 12.8C123.939 14.024 124.275 15.32 124.683 16.616H124.803C125.091 15.344 125.427 14.072 125.739 12.8L127.611 6.584H130.995L126.219 20.432C125.043 23.576 123.603 25.4 120.579 25.4Z" fill="black"/>
</svg>